<svg width="18" height="18" viewBox="0 0 18 18" fill="none" xmlns="http://www.w3.org/2000/svg">
<path fill-rule="evenodd" clip-rule="evenodd" d="M0 9C0 13.9821 4.01786 18 9 18C13.9821 18 18 13.9821 18 9C18 4.01786 13.9821 0 9 0C4.01786 0 0 4.01786 0 9ZM1.92857 9C1.92857 5.07857 5.07857 1.92857 9 1.92857C12.8893 1.92857 16.0714 5.11071 16.0714 9C16.0714 12.9214 12.9214 16.0714 9 16.0714C5.07857 16.0714 1.92857 12.9214 1.92857 9ZM9.96428 8.03571H12.2143C12.7607 8.03571 13.1786 8.45357 13.1786 9C13.1786 9.54642 12.7607 9.96428 12.2143 9.96428H9.96428V12.2143C9.96428 12.7607 9.54643 13.1786 9 13.1786C8.45357 13.1786 8.03571 12.7607 8.03571 12.2143V9.96428H5.78571C5.23928 9.96428 4.82143 9.54642 4.82143 9C4.82143 8.45357 5.23928 8.03571 5.78571 8.03571H8.03571V5.78571C8.03571 5.23928 8.45357 4.82142 9 4.82142C9.54643 4.82142 9.96428 5.23928 9.96428 5.78571V8.03571Z" fill="currentcolor"/>
</svg>
