<svg width="20" height="20" viewBox="0 0 18 18" fill="none" xmlns="http://www.w3.org/2000/svg">
<g clip-path="url(#clip0)">
<path d="M0.397893 9.96144L5.94947 15.6096C6.46105 16.1301 7.31368 16.1301 7.82526 15.6096C8.33684 15.0892 8.33684 14.2217 7.82526 13.7012L4.54737 10.347L16.6737 10.347C17.4126 10.347 18 9.7494 18 8.99759C18 8.24578 17.4126 7.64819 16.6737 7.64819L4.54737 7.64819L7.82526 4.31325C8.33684 3.79277 8.33684 2.9253 7.82526 2.40482C7.56 2.13494 7.21895 2 6.87789 2C6.53684 2 6.19579 2.13494 5.93053 2.40482L0.397893 8.03373C0.151578 8.28434 -1.18865e-06 8.63132 -1.22067e-06 8.99759C-1.25269e-06 9.36385 0.13263 9.71084 0.397893 9.96144Z" fill="currentcolor"/>
</g>
<defs>
<clipPath id="clip0">
<rect width="18" height="18" fill="white"/>
</clipPath>
</defs>
</svg>
