<svg width="18" height="18" viewBox="0 0 18 18" fill="none" xmlns="http://www.w3.org/2000/svg">
    <path d="M13.625 18C12.4061 18.0005 11.144 17.3439 9.9614 16.0398L1.0057 6.12813C0.827152 5.93103 0.227089 5.19844 0.0477225 4.08649C-0.075796 3.32194 -0.0191331 2.18569 0.95067 1.11515C1.94289 0.0189493 2.9339 -0.0760008 3.59348 0.0360489C4.53841 0.198048 5.21675 0.852346 5.4646 1.1264L14.4598 11.079C14.7154 11.3607 15.3151 12.0218 15.3151 12.9326C15.3147 13.4901 15.0941 14.0162 14.6588 14.4963C14.3522 14.8352 13.2304 15.8108 11.698 14.1219L2.71703 4.21654C2.47814 3.95284 2.47814 3.52534 2.71662 3.26164C2.9555 2.99794 3.34277 2.99839 3.58165 3.26119L12.5618 13.1666C13.3482 14.0337 13.66 13.6895 13.7933 13.5419C13.991 13.3236 14.0913 13.1189 14.0913 12.9326C14.0913 12.582 13.7558 12.2112 13.594 12.0339L4.59915 2.07994C4.43691 1.90039 3.99461 1.47109 3.40555 1.37029C2.85481 1.27489 2.3212 1.51114 1.8153 2.07004C1.33631 2.59924 1.14634 3.19819 1.25152 3.85024C1.34446 4.42579 1.64327 4.92304 1.87074 5.17369L10.8268 15.0849C12.0469 16.4322 13.8997 17.6045 15.7823 15.5273C16.6897 14.5251 16.9734 13.4807 16.6497 12.3345C16.4443 11.6078 15.9885 10.8405 15.3318 10.116L7.51794 1.53005C7.27865 1.2668 7.27783 0.839747 7.5159 0.575147C7.75519 0.311448 8.14165 0.310099 8.38094 0.572898L16.1956 9.15977C16.9926 10.0391 17.5531 10.9976 17.8177 11.9327C18.1373 13.0653 18.1939 14.7735 16.6473 16.4813C15.728 17.496 14.693 18 13.625 18Z" fill="currentcolor" />
</svg>