<svg height="512" viewBox="0 0 60 60" width="512" xmlns="http://www.w3.org/2000/svg"><g id="Page-1" fill="none" fill-rule="evenodd"><g id="029---Basement" fill="rgb(0,0,0)" fill-rule="nonzero"><path id="Shape" d="m59 24c.5522847 0 1-.4477153 1-1s-.4477153-1-1-1h-3v-19c0-1.65685425-1.3431458-3-3-3h-12c-1.6568542 0-3 1.34314575-3 3v19h-3c-.5522847 0-1 .4477153-1 1s.4477153 1 1 1h1v4h-1c-.5522847 0-1 .4477153-1 1s.4477153 1 1 1h1v4h-1c-.5522847 0-1 .4477153-1 1s.4477153 1 1 1h1v4h-1c-.5522847 0-1 .4477153-1 1s.4477153 1 1 1h1v4h-1c-.5522847 0-1 .4477153-1 1s.4477153 1 1 1h1v4h-1c-.5522847 0-1 .4477153-1 1s.4477153 1 1 1h1v4h-6v-34c0-1.1045695-.8954305-2-2-2h-26c-1.1045695 0-2 .8954305-2 2v34c0 1.1045695.8954305 2 2 2h57c.5522847 0 1-.4477153 1-1s-.4477153-1-1-1h-1v-4h1c.5522847 0 1-.4477153 1-1s-.4477153-1-1-1h-1v-4h1c.5522847 0 1-.4477153 1-1s-.4477153-1-1-1h-1v-4h1c.5522847 0 1-.4477153 1-1s-.4477153-1-1-1h-1v-4h1c.5522847 0 1-.4477153 1-1s-.4477153-1-1-1h-1v-4h1c.5522847 0 1-.4477153 1-1s-.4477153-1-1-1h-1v-4zm-43 16h8v2h-8zm-1 4h8v2h-8zm9.974-.264c.6314224-.3498782 1.0240008-1.0141239 1.026-1.736v-2c0-1.1045695-.8954305-2-2-2h-8c-1.1045695 0-2 .8954305-2 2v2c.0029004.0885174.0119219.176728.027.264-.6318084.3496174-1.0247991 1.0139132-1.027 1.736v2h-11v-10h26v10h-3v-2c-.0029004-.0885174-.0119219-.176728-.027-.264zm-16.974-9.736h-2v-6h2zm10-3c0-1.6568542 1.3431458-3 3-3s3 1.3431458 3 3-1.3431458 3-3 3-3-1.3431458-3-3zm10-7v10h-3.026c.6618067-.8603889 1.0223232-1.9145307 1.026-3 0-2.7614237-2.2385763-5-5-5s-5 2.2385763-5 5c.0036768 1.0854693.3641933 2.1396111 1.026 3h-7.026v-6c0-1.1045695-.8954305-2-2-2h-2c-1.1045695 0-2 .8954305-2 2v6h-2v-10zm-26 24h26v10h-15.026c.6618067-.8603889 1.0223232-1.9145307 1.026-3 0-2.7614237-2.2385763-5-5-5-2.76142375 0-5 2.2385763-5 5 .00367682 1.0854693.36419333 2.1396111 1.026 3h-3.026zm4 7c0-1.6568542 1.34314575-3 3-3 1.6568542 0 3 1.3431458 3 3s-1.3431458 3-3 3c-.79564947 0-1.55871121-.3160705-2.12132034-.8786797-.56260914-.5626091-.87867966-1.3256708-.87867966-2.1213203zm34-52c0-.55228475.4477153-1 1-1h12c.5522847 0 1 .44771525 1 1v19h-14zm16 31h-18v-4h18zm0 6h-18v-4h18zm0 6h-18v-4h18zm0 6h-18v-4h18zm-18 6v-4h18v4zm18-30h-18v-4h18z"/><path id="Shape" d="m52 12c-.5522847 0-1 .4477153-1 1v1c0 .5522847.4477153 1 1 1s1-.4477153 1-1v-1c0-.5522847-.4477153-1-1-1z"/><path id="Shape" d="m2 10h22c1.1045695 0 2-.8954305 2-2v-6c0-1.1045695-.8954305-2-2-2h-22c-1.1045695 0-2 .8954305-2 2v6c0 1.1045695.8954305 2 2 2zm22-2h-10v-6h10zm-22-6h10v6h-10z"/></g></g></svg>