<svg id="Outline" enable-background="new 0 0 64 64" height="512" viewBox="0 0 64 64" width="512" xmlns="http://www.w3.org/2000/svg"><g><path d="m58 37h-34c-.552 0-1 .447-1 1s.448 1 1 1h35 1.908c.282 0 .542.113.733.318s.285.474.265.755c-.28 3.868-1.499 13.48-6.761 19.188-1.605 1.741-3.964 2.739-6.471 2.739h-33.348c-2.507 0-4.866-.998-6.471-2.739-5.262-5.707-6.481-15.319-6.761-19.188-.021-.281.074-.55.265-.755s.451-.318.733-.318h5.908v11c0 1.103.897 2 2 2h9c1.103 0 2-.897 2-2v-13c0-1.103-.897-2-2-2h-9c-1.103 0-2 .897-2 2h-5.908c-.831 0-1.632.349-2.197.956s-.855 1.432-.795 2.262c.295 4.077 1.595 14.228 7.285 20.398 1.982 2.151 4.877 3.384 7.941 3.384h33.348c3.064 0 5.959-1.233 7.942-3.384 5.69-6.171 6.99-16.321 7.285-20.398.06-.83-.23-1.654-.795-2.262-.032-.034-.072-.059-.105-.092v-10.864c0-1.654-1.346-3-3-3h-10.001c-.552 0-1 .447-1 1v3c0 .553.448 1 1 1v2c0 .553.448 1 1 1h4c.552 0 1-.447 1-1v-2h2zm-47 0h9l.001 13h-9.001zm43-7h-2v-1h2zm1-3h-4v-1h9c.551 0 1 .448 1 1v10h-.092-.908v-8c0-1.103-.897-2-2-2z"/><path d="m63 2h-4c0-1.103-.897-2-2-2h-15c-1.103 0-2 .897-2 2h-4c-.552 0-1 .447-1 1v4c0 .553.448 1 1 1h2c.552 0 1-.447 1-1s-.448-1-1-1h-1v-2h3v16c0 1.103.897 2 2 2h15c1.103 0 2-.897 2-2v-12h4c.552 0 1-.447 1-1v-4c0-.553-.448-1-1-1zm-21 18v-18h15v1s0 0 0 0v3.998.002s0 .001 0 .002l.001 12.998zm20-14h-3v-2h3z"/><path d="m1 29h34c.552 0 1-.447 1-1v-4c0-.553-.448-1-1-1h-3.833l.793-2.72c.088-.303.029-.629-.16-.88-.189-.252-.485-.4-.8-.4h-.051c.033-.162.051-.329.051-.5v-1c0-1.379-1.122-2.5-2.5-2.5h-2c-1.378 0-2.5 1.121-2.5 2.5v1c0 .171.018.338.051.5h-.051c-.315 0-.611.148-.8.4-.189.251-.249.577-.16.88l.793 2.72h-1.833v-5c0-1.103-.897-2-2-2h-5c-1.103 0-2 .897-2 2v5h-1.144c0-.083.006-.165-.005-.248l-.75-6c-.124-.999-.977-1.752-1.984-1.752h-.117v-3c0-.553-.448-1-1-1h-2c-.552 0-1 .447-1 1s.448 1 1 1h1v2h-.117c-1.006 0-1.86.753-1.984 1.752l-.75 6c-.011.083-.005.165-.005.248h-3.144c-.552 0-1 .447-1 1v4c0 .553.448 1 1 1zm25-10.5v-1c0-.271.229-.5.5-.5h2c.271 0 .5.229.5.5v1c0 .271-.229.5-.5.5h-2c-.271 0-.5-.229-.5-.5zm-.667 2.5h1.167 2 1.167l-.583 2h-3.167zm-5.333-3v1h-5v-1zm-5 3h5.001l.001 2h-5.002zm-8.117-4h2.234l.75 6h-3.734zm-4.883 8h4.133 3.734 5.133 5 5.167 4.667 4.166v2h-32z"/></g></svg>