<svg width="18" height="18" viewBox="0 0 18 18" fill="none" xmlns="http://www.w3.org/2000/svg">
<g clip-path="url(#clip0)">
<path fill-rule="evenodd" clip-rule="evenodd" d="M3.09838 0C2.90273 0 2.71509 0.0777228 2.57674 0.21607C2.43839 0.354418 2.36067 0.542057 2.36067 0.73771V1.18034H0.73771C0.542057 1.18034 0.354418 1.25806 0.21607 1.39641C0.0777228 1.53475 0 1.72239 0 1.91805V17.2624C0 17.4581 0.0777227 17.6457 0.21607 17.7841C0.354418 17.9224 0.542057 18.0001 0.73771 18.0001H17.2624C17.4581 18.0001 17.6457 17.9224 17.7841 17.7841C17.9224 17.6457 18.0001 17.4581 18.0001 17.2624V1.91805C18.0001 1.72239 17.9224 1.53475 17.7841 1.39641C17.6457 1.25806 17.4581 1.18034 17.2624 1.18034H15.6395V0.73771C15.6395 0.542057 15.5617 0.354418 15.4234 0.21607C15.285 0.0777227 15.0974 0 14.9017 0C14.7061 0 14.5184 0.0777227 14.3801 0.21607C14.2418 0.354418 14.164 0.542057 14.164 0.73771V1.18034H3.83609V0.73771C3.83609 0.542057 3.75837 0.354418 3.62002 0.21607C3.48167 0.0777228 3.29403 0 3.09838 0ZM1.47542 4.72134V2.65576H2.36067V3.09838C2.36067 3.29403 2.43839 3.48167 2.57674 3.62002C2.71509 3.75837 2.90273 3.83609 3.09838 3.83609C3.29403 3.83609 3.48167 3.75837 3.62002 3.62002C3.75837 3.48167 3.83609 3.29403 3.83609 3.09838V2.65576H14.164V3.09838C14.164 3.29403 14.2418 3.48167 14.3801 3.62002C14.5184 3.75837 14.7061 3.83609 14.9017 3.83609C15.0974 3.83609 15.285 3.75837 15.4234 3.62002C15.5617 3.48167 15.6395 3.29403 15.6395 3.09838V2.65576H16.5247V4.72134H1.47542ZM1.47542 16.5247V6.19676H16.5247V16.5247H1.47542ZM3.09838 8.26235C2.90273 8.26235 2.71509 8.34007 2.57674 8.47842C2.43839 8.61677 2.36067 8.80441 2.36067 9.00006V10.1804C2.36067 10.376 2.43839 10.5637 2.57674 10.702C2.71509 10.8404 2.90273 10.9181 3.09838 10.9181H4.27872C4.47437 10.9181 4.66201 10.8404 4.80036 10.702C4.9387 10.5637 5.01643 10.376 5.01643 10.1804V9.00006C5.01643 8.80441 4.9387 8.61677 4.80036 8.47842C4.66201 8.34007 4.47437 8.26235 4.27872 8.26235H3.09838ZM6.63939 8.26235C6.44374 8.26235 6.2561 8.34007 6.11775 8.47842C5.9794 8.61677 5.90168 8.80441 5.90168 9.00006V10.1804C5.90168 10.376 5.9794 10.5637 6.11775 10.702C6.2561 10.8404 6.44374 10.9181 6.63939 10.9181H7.81973C8.01538 10.9181 8.20302 10.8404 8.34136 10.702C8.47971 10.5637 8.55744 10.376 8.55744 10.1804V9.00006C8.55744 8.80441 8.47971 8.61677 8.34136 8.47842C8.20302 8.34007 8.01538 8.26235 7.81973 8.26235H6.63939ZM10.1804 8.26235C9.98474 8.26235 9.7971 8.34007 9.65876 8.47842C9.52041 8.61677 9.44269 8.80441 9.44269 9.00006V10.1804C9.44269 10.376 9.52041 10.5637 9.65876 10.702C9.7971 10.8404 9.98474 10.9181 10.1804 10.9181H11.3607C11.5564 10.9181 11.744 10.8404 11.8824 10.702C12.0207 10.5637 12.0984 10.376 12.0984 10.1804V9.00006C12.0984 8.80441 12.0207 8.61677 11.8824 8.47842C11.744 8.34007 11.5564 8.26235 11.3607 8.26235H10.1804ZM13.7214 8.26235C13.5258 8.26235 13.3381 8.34007 13.1998 8.47842C13.0614 8.61677 12.9837 8.80441 12.9837 9.00006V10.1804C12.9837 10.376 13.0614 10.5637 13.1998 10.702C13.3381 10.8404 13.5258 10.9181 13.7214 10.9181H14.9017C15.0974 10.9181 15.285 10.8404 15.4234 10.702C15.5617 10.5637 15.6395 10.376 15.6395 10.1804V9.00006C15.6395 8.80441 15.5617 8.61677 15.4234 8.47842C15.285 8.34007 15.0974 8.26235 14.9017 8.26235H13.7214ZM3.09838 11.8034C2.90273 11.8034 2.71509 11.8811 2.57674 12.0194C2.43839 12.1578 2.36067 12.3454 2.36067 12.5411V13.7214C2.36067 13.9171 2.43839 14.1047 2.57674 14.243C2.71509 14.3814 2.90273 14.4591 3.09838 14.4591H4.27872C4.47437 14.4591 4.66201 14.3814 4.80036 14.243C4.9387 14.1047 5.01643 13.9171 5.01643 13.7214V12.5411C5.01643 12.3454 4.9387 12.1578 4.80036 12.0194C4.66201 11.8811 4.47437 11.8034 4.27872 11.8034H3.09838ZM6.63939 11.8034C6.44374 11.8034 6.2561 11.8811 6.11775 12.0194C5.9794 12.1578 5.90168 12.3454 5.90168 12.5411V13.7214C5.90168 13.9171 5.9794 14.1047 6.11775 14.243C6.2561 14.3814 6.44374 14.4591 6.63939 14.4591H7.81973C8.01538 14.4591 8.20302 14.3814 8.34136 14.243C8.47971 14.1047 8.55744 13.9171 8.55744 13.7214V12.5411C8.55744 12.3454 8.47971 12.1578 8.34136 12.0194C8.20302 11.8811 8.01538 11.8034 7.81973 11.8034H6.63939ZM10.1804 11.8034C9.98474 11.8034 9.7971 11.8811 9.65876 12.0194C9.52041 12.1578 9.44269 12.3454 9.44269 12.5411V13.7214C9.44269 13.9171 9.52041 14.1047 9.65876 14.243C9.7971 14.3814 9.98474 14.4591 10.1804 14.4591H11.3607C11.5564 14.4591 11.744 14.3814 11.8824 14.243C12.0207 14.1047 12.0984 13.9171 12.0984 13.7214V12.5411C12.0984 12.3454 12.0207 12.1578 11.8824 12.0194C11.744 11.8811 11.5564 11.8034 11.3607 11.8034H10.1804ZM13.7214 11.8034C13.5258 11.8034 13.3381 11.8811 13.1998 12.0194C13.0614 12.1578 12.9837 12.3454 12.9837 12.5411V13.7214C12.9837 13.9171 13.0614 14.1047 13.1998 14.243C13.3381 14.3814 13.5258 14.4591 13.7214 14.4591H14.9017C15.0974 14.4591 15.285 14.3814 15.4234 14.243C15.5617 14.1047 15.6395 13.9171 15.6395 13.7214V12.5411C15.6395 12.3454 15.5617 12.1578 15.4234 12.0194C15.285 11.8811 15.0974 11.8034 14.9017 11.8034H13.7214Z" fill="currentcolor"/>
</g>
<defs>
<clipPath id="clip0">
<rect width="18" height="18" fill="white"/>
</clipPath>
</defs>
</svg>
