<?xml version="1.0" encoding="UTF-8"?>
<svg xmlns="http://www.w3.org/2000/svg" id="Layer_3" data-name="Layer 3" viewBox="0 0 64 64" width="512" height="512"><path d="M59,35H40V34a1,1,0,0,0-1-1H37.91A6.008,6.008,0,0,0,35,28.811V18.974A4.977,4.977,0,0,0,37,15v-.382A3.966,3.966,0,0,0,38,12H49c4.187,0,7-2.411,7-6a1,1,0,0,0-1-1H9A1,1,0,0,0,8,6c0,3.589,2.813,6,7,6H26a3.966,3.966,0,0,0,1,2.618V15a4.977,4.977,0,0,0,2,3.974v9.838A6.007,6.007,0,0,0,26.09,33H25a1,1,0,0,0-1,1v1H5a4,4,0,0,0,0,8,62.523,62.523,0,0,0,14.045-1.6l5.266-1.213A7.984,7.984,0,0,0,26,43.274v9.91a3,3,0,1,0,2,0V44.918a7.935,7.935,0,0,0,8,0v6.266a3,3,0,1,0,2,0v-7.91a7.985,7.985,0,0,0,1.689-3.089L44.955,41.4A62.523,62.523,0,0,0,59,43a4,4,0,0,0,0-8ZM29.155,15.906A3.993,3.993,0,0,0,30,16h4a3.993,3.993,0,0,0,.845-.094,2.98,2.98,0,0,1-5.69,0ZM15,10c-2.121,0-4.37-.809-4.889-3H53.889C53.37,9.191,51.121,10,49,10Zm21,2a2,2,0,0,1-2,2H30a2,2,0,0,1-2-2Zm-5,7.9a5,5,0,0,0,2,0V28.09a5.6,5.6,0,0,0-2,0ZM32,30a4,4,0,0,1,3.858,3H28.142A4,4,0,0,1,32,30ZM18.6,39.451A60.534,60.534,0,0,1,5,41a2,2,0,0,1,0-4H24v1c0,.068.009.134.01.2ZM27,57a1,1,0,1,1,1-1A1,1,0,0,1,27,57Zm10-2a1,1,0,1,1,1-1A1,1,0,0,1,37,55Zm1-17a6,6,0,0,1-12,0V35H38Zm21,3a60.534,60.534,0,0,1-13.6-1.549L39.99,38.2c0-.068.01-.134.01-.2V37H59a2,2,0,0,1,0,4Z"/></svg>
