<svg width="46" height="46" viewBox="0 0 46 46" fill="none" xmlns="http://www.w3.org/2000/svg">
<circle cx="23" cy="23" r="23" fill="#EBEBEB"/>
<circle cx="23" cy="23" r="23" fill="#EBEBEB"/>
<path fill-rule="evenodd" clip-rule="evenodd" d="M25.8238 18.5402C25.8373 18.4081 25.8445 18.275 25.8445 18.142C25.8429 18.0079 25.8366 17.8738 25.8234 17.7407C25.7803 17.4796 25.7111 17.2246 25.6167 16.9778C25.5059 16.7331 25.3696 16.5016 25.2112 16.2854C25.0519 16.0921 24.8737 15.9142 24.6802 15.7552C24.4655 15.5973 24.2358 15.4636 23.9931 15.3538C23.7432 15.2581 23.4848 15.1883 23.2202 15.1454C22.9592 15.1186 22.6974 15.1186 22.4365 15.1454C22.172 15.1883 21.9139 15.258 21.6641 15.3536C21.4195 15.4644 21.188 15.6006 20.9717 15.7591C20.7784 15.9183 20.6005 16.0965 20.4416 16.29C20.2837 16.5048 20.1499 16.7345 20.0402 16.9771C19.9445 17.2271 19.8747 17.4854 19.8317 17.7501C19.805 18.011 19.805 18.2729 19.8317 18.5338C19.8746 18.7982 19.9444 19.0563 20.0399 19.3061C20.1508 19.5508 20.287 19.7823 20.4454 19.9985C20.6047 20.1918 20.7829 20.3697 20.9764 20.5287C21.1912 20.6866 21.4209 20.8204 21.6635 20.9301C21.9135 21.0258 22.1718 21.0956 22.4364 21.1385C22.6974 21.1653 22.9592 21.1653 23.2202 21.1385C23.4846 21.0956 23.7427 21.0259 23.9925 20.9303C24.2371 20.8195 24.4686 20.6833 24.6849 20.5249C24.8782 20.3656 25.0561 20.1874 25.2151 19.9939C25.3729 19.7791 25.5067 19.5494 25.6164 19.3068C25.7114 19.0588 25.7808 18.8026 25.8238 18.5402ZM25.5774 19.4049C25.5805 19.3971 25.5837 19.3894 25.5869 19.3816C25.5838 19.3894 25.5806 19.3971 25.5774 19.4049ZM24.0912 20.891C24.0835 20.8942 24.0757 20.8974 24.0679 20.9006C24.0757 20.8974 24.0835 20.8942 24.0912 20.891ZM23.1278 21.1524C23.1383 21.1509 23.1488 21.1494 23.1593 21.1479C23.1488 21.1495 23.1383 21.1509 23.1278 21.1524ZM23.2597 21.1343C23.2833 21.1312 23.3068 21.1283 23.3301 21.1257C23.3066 21.1288 23.2832 21.1316 23.2597 21.1343ZM21.5654 20.891C21.5731 20.8942 21.5809 20.8974 21.5886 20.9006C21.5809 20.8974 21.5731 20.8942 21.5654 20.891ZM20.0792 19.4049C20.076 19.3971 20.0729 19.3894 20.0697 19.3816C20.0729 19.3894 20.0761 19.3971 20.0792 19.4049ZM19.8179 18.4415C19.8194 18.4519 19.8209 18.4624 19.8223 18.4729C19.8208 18.4624 19.8193 18.452 19.8179 18.4415ZM19.836 18.5733C19.839 18.5969 19.8419 18.6204 19.8446 18.6437C19.8415 18.6203 19.8386 18.5968 19.836 18.5733ZM20.0792 16.879C20.0761 16.8868 20.0729 16.8945 20.0697 16.9023C20.0729 16.8945 20.076 16.8868 20.0792 16.879ZM21.5654 15.3929C21.5731 15.3897 21.5809 15.3865 21.5886 15.3833C21.5809 15.3865 21.5731 15.3897 21.5654 15.3929ZM22.5288 15.1315C22.5183 15.133 22.5079 15.1345 22.4973 15.136C22.5078 15.1345 22.5183 15.133 22.5288 15.1315ZM22.3969 15.1496C22.3734 15.1527 22.3498 15.1556 22.3266 15.1582C22.35 15.1551 22.3735 15.1523 22.3969 15.1496ZM24.0912 15.3929C24.0835 15.3897 24.0757 15.3865 24.068 15.3833C24.0757 15.3865 24.0835 15.3897 24.0912 15.3929ZM25.5774 16.879C25.5806 16.8868 25.5838 16.8946 25.587 16.9024C25.5837 16.8946 25.5805 16.8868 25.5774 16.879ZM25.8387 17.8424C25.8373 17.832 25.8358 17.8215 25.8343 17.811C25.8358 17.8215 25.8373 17.8319 25.8387 17.8424ZM25.8177 17.6877C25.8157 17.6718 25.8138 17.6559 25.812 17.6402C25.814 17.656 25.8159 17.6718 25.8177 17.6877ZM27.3659 18.2308C27.3692 18.2018 27.3708 18.1722 27.3707 18.142C27.3669 17.2281 27.0921 16.2933 26.5542 15.5493C26.4092 15.349 26.2546 15.1525 26.0829 14.9751C25.9093 14.7957 25.7186 14.6412 25.5202 14.4905C25.1596 14.2158 24.7571 14.0136 24.3297 13.8571C22.607 13.2257 20.5295 13.7885 19.3638 15.2078C19.2036 15.4024 19.051 15.6046 18.9212 15.8221C18.7915 16.0377 18.6904 16.2666 18.5969 16.4994C18.4214 16.9305 18.3317 17.3884 18.2955 17.852C18.2249 18.7601 18.4615 19.7082 18.9346 20.4866C19.3905 21.2382 20.0792 21.8831 20.8843 22.2474C21.1209 22.3543 21.3632 22.4535 21.615 22.5241C21.8649 22.5927 22.1186 22.6309 22.3762 22.6614C22.8455 22.7167 23.3243 22.6786 23.7879 22.5851C25.5488 22.2265 27.0235 20.7098 27.2963 18.9299C27.3321 18.6978 27.3603 18.4657 27.3659 18.2308ZM27.2543 30.0711H28.3761H28.3761C28.3798 30.071 28.3835 30.0708 28.3871 30.0707C28.4006 30.0673 28.4141 30.0638 28.4276 30.0599C28.4413 30.0523 28.455 30.0444 28.4684 30.0362C28.4777 30.0271 28.4868 30.0179 28.4958 30.0084C28.5036 29.9958 28.5111 29.983 28.5182 29.9701C28.5216 29.9586 28.5248 29.9471 28.5277 29.9355C28.5296 29.885 28.5293 29.8342 28.5289 29.7833C28.5288 29.7635 28.5287 29.7437 28.5287 29.7239V28.7796C28.5287 28.5212 28.5272 28.2658 28.5012 28.0095C28.4506 27.695 28.3669 27.3883 28.2521 27.0923C28.1198 26.7972 27.9568 26.5178 27.7642 26.2578C27.5715 26.0217 27.3555 25.8071 27.1202 25.6149C26.859 25.4219 26.5784 25.2587 26.2819 25.1265C25.9875 25.0121 25.6817 24.9304 25.3704 24.8806C25.1017 24.8533 24.8342 24.8534 24.5654 24.8534C24.5517 24.8534 24.538 24.8534 24.5243 24.8534H22.0805H21.0331C20.7816 24.8534 20.533 24.8549 20.2835 24.8804C19.9678 24.9309 19.66 25.0148 19.363 25.13C19.0679 25.2623 18.7885 25.4254 18.5285 25.6179C18.2924 25.8106 18.0778 26.0266 17.8856 26.2619C17.6926 26.5231 17.5294 26.8037 17.3972 27.1002C17.2814 27.3981 17.1992 27.7078 17.1495 28.023C17.1319 28.1894 17.1241 28.356 17.1241 28.524V29.3405C17.1241 29.4075 17.1224 29.4755 17.1206 29.5438C17.1175 29.6679 17.1142 29.7933 17.1214 29.9162C17.1256 29.9342 17.1302 29.9522 17.1353 29.97C17.1429 29.9838 17.1508 29.9974 17.1591 30.0109C17.1681 30.0201 17.1774 30.0293 17.1868 30.0383C17.1995 30.0461 17.2122 30.0535 17.2252 30.0607C17.2373 30.0643 17.2496 30.0677 17.2619 30.0708C17.2707 30.071 17.2794 30.0711 17.2882 30.0711C17.5769 30.0737 17.8656 30.0728 18.1543 30.072C18.2987 30.0716 18.443 30.0711 18.5874 30.0711H21.3651H24.5834H27.2543ZM17.1288 30.0074C17.1295 30.0142 17.1303 30.021 17.1311 30.0278C17.1307 30.0276 17.1303 30.0274 17.1298 30.0273M17.1288 30.0074C17.1296 30.0142 17.1305 30.021 17.1313 30.0278ZM17.4465 26.9787C17.4379 27 17.429 27.0212 17.4201 27.0425C17.4287 27.0212 17.4375 26.9999 17.4465 26.9787ZM19.2494 25.1758C19.2643 25.1696 19.2793 25.1634 19.2944 25.1573C19.2794 25.1635 19.2644 25.1697 19.2494 25.1758ZM20.3883 24.8649C20.3722 24.8672 20.356 24.8695 20.3398 24.8717C20.3559 24.8694 20.3721 24.8671 20.3883 24.8649ZM20.2414 24.8849C20.2229 24.8873 20.2044 24.8895 20.1861 24.8916C20.2045 24.8892 20.223 24.887 20.2414 24.8849ZM26.4034 25.1758C26.3822 25.1672 26.3609 25.1583 26.3396 25.1494C26.361 25.158 26.3822 25.1668 26.4034 25.1758ZM28.2063 26.9787C28.2125 26.9936 28.2187 27.0086 28.2248 27.0236C28.2186 27.0086 28.2124 26.9937 28.2063 26.9787ZM28.5172 28.1176C28.5149 28.1015 28.5126 28.0853 28.5104 28.0691C28.5127 28.0852 28.515 28.1014 28.5172 28.1176ZM28.496 27.9613C28.4941 27.9459 28.4923 27.9306 28.4905 27.9154C28.4925 27.9307 28.4943 27.946 28.496 27.9613ZM28.4658 31.5936C29.1703 31.5463 29.7794 31.0725 29.9881 30.3897C30.0608 30.1506 30.0583 29.8965 30.0558 29.6482C30.0553 29.6032 30.0549 29.5585 30.0549 29.5141C30.0549 29.4249 30.0553 29.3359 30.0556 29.2469C30.0581 28.6734 30.0605 28.1036 29.9614 27.5338C29.7935 26.5704 29.309 25.6642 28.6451 24.9526C27.9812 24.241 27.0883 23.7183 26.144 23.4856C25.6022 23.352 25.0566 23.331 24.5033 23.331H22.7997H21.119C20.5524 23.331 19.9896 23.3578 19.4382 23.5047C18.5015 23.7527 17.6201 24.2811 16.9696 24.9984C16.3133 25.7215 15.8383 26.6296 15.6838 27.5987C15.5957 28.155 15.5983 28.7127 15.6009 29.273C15.6013 29.3679 15.6017 29.4629 15.6017 29.558C15.6017 29.594 15.6015 29.6302 15.6012 29.6666C15.5994 29.9343 15.5976 30.2086 15.6933 30.4622C15.8345 30.8323 16.0596 31.1242 16.3896 31.3436C16.6472 31.5134 16.9734 31.5954 17.2787 31.5993C17.3779 31.6005 17.4771 31.6001 17.5763 31.5997C17.6259 31.5995 17.6755 31.5993 17.7251 31.5993H18.8678H20.4913H22.38H24.3183H26.0906H27.4794H28.2749H28.378C28.4074 31.5993 28.4367 31.5973 28.4658 31.5936ZM28.479 30.0648C28.4811 30.0645 28.4832 30.0643 28.4853 30.0641C28.4852 30.0645 28.485 30.065 28.4848 30.0654M28.479 30.0648C28.4811 30.0645 28.4833 30.0642 28.4854 30.064ZM17.1313 30.0278C17.1321 30.0347 17.1329 30.0415 17.1337 30.0482ZM17.1337 30.0482C17.1328 30.0414 17.1319 30.0346 17.1311 30.0278ZM28.4854 30.064C28.4922 30.0632 28.499 30.0624 28.5058 30.0616ZM28.5058 30.0616C28.499 30.0625 28.4922 30.0633 28.4853 30.0641Z" fill="currentcolor"/>
</svg>
