<svg width="46" height="46" viewBox="0 0 46 46" fill="none" xmlns="http://www.w3.org/2000/svg">
<circle cx="23" cy="23" r="23" fill="#EBEBEB"/>
<circle cx="23" cy="23" r="23" fill="#EBEBEB"/>
<path d="M30.718 26.5404L26.382 23.5068L26.457 23.4318C27.547 23.6176 28.662 23.4192 29.6254 22.8628C31.122 21.9988 32.0304 20.386 31.9964 18.6538C31.9916 18.4032 31.8582 18.1798 31.6398 18.0564C31.4214 17.9332 31.1618 17.9342 30.945 18.0596L28.9928 19.1866L27.7492 18.4612L27.7428 17.0216L29.6952 15.8944C29.9118 15.7692 30.0428 15.5448 30.0452 15.2944C30.0476 15.0438 29.9212 14.8168 29.7068 14.687C28.209 13.7828 26.3444 13.771 24.84 14.6564C23.1648 15.6428 22.2597 17.6188 22.5736 19.5372L22.0341 20.0768L19.0001 17.0428V16C19.0001 15.8244 18.9079 15.6616 18.7573 15.5712L16.2573 14.0712C16.0609 13.9532 15.8087 13.9842 15.6465 14.1464L14.1465 15.6464C13.9841 15.8086 13.9533 16.0604 14.0713 16.2572L15.5713 18.7572C15.6617 18.9078 15.8245 19 16.0001 19H17.0429L20.0769 22.034L14.8055 27.3054C13.7335 28.3776 13.7335 30.1222 14.8055 31.1946C15.3417 31.7306 16.0459 31.9986 16.7501 31.9986C17.4543 31.9986 18.1585 31.7306 18.6947 31.1944L23.507 26.382L26.5406 30.718C27.102 31.5208 28.0214 32 29 32C30.6542 32 32 30.6542 32 29C32 28.0214 31.5208 27.102 30.718 26.5404ZM23.4686 20.0564C23.59 19.9352 23.6406 19.76 23.6028 19.5926C23.2446 18.0094 23.962 16.334 25.3474 15.5182C25.9338 15.1728 26.5896 15.0006 27.246 15.0006C27.7476 15.0006 28.2496 15.1014 28.7206 15.3026L26.9916 16.3008C26.8362 16.3906 26.7408 16.5566 26.7416 16.736L26.7506 18.7516C26.7514 18.9286 26.8458 19.092 26.9986 19.1812L28.7396 20.1968C28.8944 20.2872 29.086 20.2874 29.2416 20.1978L30.9704 19.1998C30.83 20.362 30.1536 21.4034 29.1256 21.9968C28.3068 22.4694 27.3498 22.6138 26.4276 22.406C26.2112 22.331 26.005 22.2302 25.813 22.1062L24.8534 21.1466C24.6582 20.9512 24.3414 20.9512 24.1464 21.1466L23.625 21.668L22.741 20.784L23.4686 20.0564ZM17.6037 18.1464C17.5099 18.0526 17.3827 18 17.2501 18H16.2833L15.1297 16.0776L16.0777 15.1296L18.0001 16.2832V17.25C18.0001 17.3826 18.0527 17.5098 18.1465 17.6036L23.1464 22.6036L22.6034 23.1466L17.6037 18.1464ZM17.9877 30.4874C17.3053 31.1698 16.1951 31.1696 15.5127 30.4874C14.8303 29.805 14.8303 28.6948 15.5127 28.0124L20.7841 22.741L21.6681 23.625L21.1467 24.1464C20.9513 24.3416 20.9513 24.6582 21.1467 24.8534L22.1467 25.8534C22.2349 25.9418 22.353 25.9918 22.4772 25.9976L17.9877 30.4874ZM29 31C28.3476 31 27.7344 30.6802 27.3598 30.1448L23.9098 25.2134C23.8162 25.0796 23.6632 25 23.5 25H22.7072L22.2073 24.5L24.5 22.2072L25 22.7072V23.5C25 23.6632 25.0796 23.8162 25.2134 23.9096L30.1448 27.3596C30.6802 27.7344 31 28.3476 31 29C31 30.1028 30.1028 31 29 31Z" fill="currentcolor"/>
<circle cx="36" cy="36" r="10" fill="currentcolor"/>
<path fill-rule="evenodd" clip-rule="evenodd" d="M37.6577 33.7337C37.6651 33.6606 37.6691 33.587 37.6691 33.5134C37.6682 33.4392 37.6647 33.365 37.6574 33.2913C37.6336 33.1468 37.5953 33.0057 37.543 32.8691C37.4817 32.7338 37.4063 32.6056 37.3186 32.486C37.2305 32.379 37.1319 32.2806 37.0248 32.1926C36.906 32.1052 36.7789 32.0312 36.6446 31.9705C36.5063 31.9175 36.3633 31.8789 36.2168 31.8551C36.0724 31.8403 35.9276 31.8403 35.7832 31.8551C35.6368 31.8789 35.494 31.9174 35.3558 31.9703C35.2204 32.0317 35.0923 32.107 34.9726 32.1947C34.8656 32.2829 34.7672 32.3815 34.6792 32.4886C34.5919 32.6074 34.5178 32.7345 34.4571 32.8688C34.4042 33.0071 34.3655 33.15 34.3418 33.2965C34.327 33.4409 34.327 33.5858 34.3418 33.7302C34.3655 33.8765 34.4041 34.0194 34.457 34.1576C34.5183 34.293 34.5937 34.4211 34.6814 34.5407C34.7695 34.6477 34.8681 34.7462 34.9752 34.8341C35.094 34.9215 35.2212 34.9955 35.3554 35.0562C35.4937 35.1092 35.6367 35.1478 35.7832 35.1716C35.9276 35.1864 36.0725 35.1864 36.2168 35.1716C36.3632 35.1478 36.506 35.1093 36.6442 35.0564C36.7796 34.995 36.9077 34.9197 37.0274 34.832C37.1344 34.7438 37.2328 34.6452 37.3208 34.5381C37.4081 34.4193 37.4822 34.2922 37.5429 34.1579C37.5954 34.0207 37.6338 33.879 37.6577 33.7337ZM37.5213 34.2122C37.523 34.2079 37.5248 34.2035 37.5266 34.1991C37.5249 34.2035 37.5231 34.2079 37.5213 34.2122ZM36.6989 35.0346C36.6945 35.0364 36.6902 35.0382 36.6858 35.04C36.6902 35.0382 36.6945 35.0364 36.6989 35.0346ZM36.1657 35.1793C36.1716 35.1784 36.1776 35.1776 36.1835 35.1767C36.1776 35.1776 36.1717 35.1784 36.1657 35.1793ZM36.2387 35.1692C36.2518 35.1675 36.2648 35.1659 36.2777 35.1645C36.2647 35.1662 36.2517 35.1678 36.2387 35.1692ZM35.3011 35.0346C35.3055 35.0364 35.3099 35.0382 35.3142 35.04C35.3098 35.0382 35.3055 35.0364 35.3011 35.0346ZM34.4787 34.2122C34.4769 34.2079 34.4751 34.2035 34.4734 34.1991C34.4752 34.2035 34.477 34.2079 34.4787 34.2122ZM34.3341 33.6791C34.3349 33.685 34.3358 33.6909 34.3366 33.6968C34.3358 33.6909 34.3349 33.685 34.3341 33.6791ZM34.3441 33.7521C34.3458 33.7651 34.3474 33.7781 34.3489 33.791C34.3472 33.778 34.3456 33.7651 34.3441 33.7521ZM34.4787 32.8145C34.477 32.8188 34.4752 32.8232 34.4734 32.8276C34.4751 32.8232 34.4769 32.8188 34.4787 32.8145ZM35.3011 31.9921C35.3055 31.9903 35.3098 31.9885 35.3142 31.9867C35.3099 31.9885 35.3055 31.9903 35.3011 31.9921ZM35.8343 31.8474C35.8284 31.8483 35.8224 31.8491 35.8165 31.85C35.8224 31.8491 35.8283 31.8483 35.8343 31.8474ZM35.7613 31.8575C35.7482 31.8592 35.7352 31.8608 35.7224 31.8622C35.7353 31.8605 35.7483 31.8589 35.7613 31.8575ZM36.6989 31.9921C36.6945 31.9903 36.6902 31.9885 36.6858 31.9867C36.6902 31.9885 36.6945 31.9903 36.6989 31.9921ZM37.5213 32.8145C37.5231 32.8188 37.5249 32.8232 37.5266 32.8276C37.5248 32.8232 37.523 32.8188 37.5213 32.8145ZM37.6659 33.3476C37.6651 33.3417 37.6642 33.3358 37.6634 33.3299C37.6642 33.3358 37.6651 33.3417 37.6659 33.3476ZM37.6543 33.262C37.6532 33.2532 37.6521 33.2444 37.6511 33.2357C37.6522 33.2445 37.6533 33.2532 37.6543 33.262ZM38.511 33.5625C38.5128 33.5465 38.5137 33.5301 38.5136 33.5134C38.5115 33.0077 38.3595 32.4904 38.0618 32.0786C37.9816 31.9678 37.896 31.8591 37.801 31.7609C37.705 31.6616 37.5994 31.5761 37.4896 31.4927C37.2901 31.3407 37.0673 31.2288 36.8308 31.1422C35.8775 30.7928 34.7279 31.1042 34.0828 31.8897C33.9942 31.9974 33.9097 32.1093 33.8379 32.2296C33.7661 32.3489 33.7102 32.4756 33.6584 32.6044C33.5613 32.843 33.5117 33.0963 33.4916 33.3529C33.4526 33.8554 33.5835 34.3801 33.8453 34.8108C34.0976 35.2268 34.4787 35.5836 34.9242 35.7852C35.0551 35.8444 35.1892 35.8992 35.3286 35.9383C35.4669 35.9763 35.6073 35.9974 35.7498 36.0143C36.0095 36.0449 36.2745 36.0238 36.531 35.9721C37.5054 35.7736 38.3215 34.9343 38.4725 33.9494C38.4923 33.8209 38.5079 33.6925 38.511 33.5625ZM38.4492 40.1143H39.07C39.072 40.1142 39.0741 40.1141 39.0761 40.114C39.0836 40.1122 39.0911 40.1102 39.0985 40.1081C39.1061 40.1039 39.1136 40.0995 39.1211 40.0949C39.1262 40.0899 39.1313 40.0848 39.1362 40.0796C39.1406 40.0726 39.1447 40.0655 39.1487 40.0584C39.1505 40.052 39.1523 40.0456 39.1539 40.0392C39.1549 40.0113 39.1548 39.9831 39.1546 39.955C39.1545 39.944 39.1544 39.9331 39.1544 39.9221V39.3996C39.1544 39.2566 39.1536 39.1153 39.1392 38.9734C39.1112 38.7994 39.0649 38.6296 39.0014 38.4658C38.9282 38.3026 38.8379 38.148 38.7314 38.004C38.6248 37.8734 38.5052 37.7546 38.375 37.6483C38.2305 37.5415 38.0752 37.4512 37.9111 37.378C37.7482 37.3147 37.579 37.2695 37.4067 37.2419C37.258 37.2268 37.11 37.2269 36.9612 37.2269C36.9537 37.2269 36.9461 37.2269 36.9385 37.2269H35.5861H35.0066C34.8674 37.2269 34.7298 37.2278 34.5917 37.2418C34.4171 37.2698 34.2467 37.3162 34.0823 37.38C33.9191 37.4532 33.7645 37.5434 33.6206 37.65C33.4899 37.7566 33.3712 37.8761 33.2648 38.0063C33.158 38.1509 33.0677 38.3062 32.9945 38.4702C32.9305 38.6351 32.885 38.8064 32.8575 38.9809C32.8477 39.073 32.8434 39.1652 32.8434 39.2581V39.7099C32.8434 39.747 32.8425 39.7846 32.8415 39.8225C32.8397 39.8911 32.838 39.9605 32.8419 40.0285C32.8443 40.0385 32.8468 40.0484 32.8496 40.0583C32.8538 40.0659 32.8582 40.0735 32.8628 40.0809C32.8678 40.0861 32.8729 40.0911 32.8781 40.0961C32.8851 40.1004 32.8922 40.1045 32.8993 40.1085C32.9061 40.1105 32.9129 40.1123 32.9197 40.1141C32.9245 40.1142 32.9294 40.1143 32.9342 40.1143C33.094 40.1157 33.2537 40.1152 33.4135 40.1147C33.4934 40.1145 33.5733 40.1143 33.6532 40.1143H35.1903H36.9712H38.4492ZM32.846 40.079C32.8464 40.0828 32.8468 40.0865 32.8473 40.0903C32.8471 40.0902 32.8468 40.0901 32.8466 40.09M32.846 40.079C32.8465 40.0828 32.8469 40.0866 32.8474 40.0903ZM33.0218 38.403C33.0171 38.4148 33.0121 38.4265 33.0072 38.4383C33.012 38.4265 33.0169 38.4147 33.0218 38.403ZM34.0195 37.4053C34.0278 37.4019 34.0361 37.3984 34.0444 37.3951C34.0361 37.3985 34.0278 37.402 34.0195 37.4053ZM34.6497 37.2333C34.6408 37.2345 34.6319 37.2358 34.6229 37.2371C34.6318 37.2357 34.6408 37.2345 34.6497 37.2333ZM34.5685 37.2443C34.5582 37.2456 34.548 37.2469 34.5378 37.248C34.548 37.2467 34.5583 37.2455 34.5685 37.2443ZM37.9784 37.4053C37.9666 37.4006 37.9548 37.3956 37.943 37.3907C37.9549 37.3955 37.9666 37.4004 37.9784 37.4053ZM38.976 38.403C38.9795 38.4113 38.9829 38.4196 38.9863 38.4279C38.9828 38.4196 38.9794 38.4113 38.976 38.403ZM39.1481 39.0332C39.1468 39.0243 39.1456 39.0154 39.1443 39.0064C39.1456 39.0153 39.1469 39.0243 39.1481 39.0332ZM39.1364 38.9467C39.1353 38.9382 39.1343 38.9297 39.1333 38.9213C39.1344 38.9298 39.1354 38.9383 39.1364 38.9467ZM39.1196 40.9568C39.5095 40.9306 39.8466 40.6684 39.9621 40.2906C40.0023 40.1583 40.0009 40.0176 39.9995 39.8802C39.9992 39.8553 39.999 39.8306 39.999 39.806C39.999 39.7567 39.9992 39.7074 39.9994 39.6582C40.0008 39.3408 40.0021 39.0255 39.9473 38.7102C39.8544 38.1771 39.5862 37.6756 39.2188 37.2818C38.8514 36.888 38.3574 36.5988 37.8348 36.47C37.535 36.3961 37.2331 36.3845 36.9269 36.3845H35.9842H35.0541C34.7405 36.3845 34.4291 36.3993 34.124 36.4805C33.6056 36.6178 33.1179 36.9102 32.7579 37.3072C32.3948 37.7073 32.1319 38.2098 32.0464 38.7461C31.9976 39.0539 31.999 39.3626 32.0005 39.6726C32.0007 39.7251 32.001 39.7777 32.001 39.8303C32.001 39.8502 32.0008 39.8703 32.0007 39.8904C31.9997 40.0385 31.9987 40.1904 32.0516 40.3307C32.1298 40.5355 32.2543 40.697 32.437 40.8184C32.5795 40.9124 32.76 40.9578 32.9289 40.9599C32.9838 40.9606 33.0387 40.9604 33.0936 40.9601C33.1211 40.96 33.1485 40.9599 33.176 40.9599H33.8083H34.7067H35.7519H36.8245H37.8052H38.5738H39.014H39.071C39.0873 40.9599 39.1035 40.9588 39.1196 40.9568ZM39.127 40.1107C39.1281 40.1106 39.1293 40.1105 39.1305 40.1104C39.1304 40.1106 39.1303 40.1109 39.1302 40.1111M39.127 40.1107C39.1281 40.1106 39.1293 40.1105 39.1305 40.1103ZM32.8474 40.0903C32.8478 40.0941 32.8483 40.0979 32.8487 40.1016ZM32.8487 40.1016C32.8482 40.0978 32.8477 40.0941 32.8473 40.0903ZM39.1305 40.1103C39.1342 40.1099 39.138 40.1094 39.1418 40.109ZM39.1418 40.109C39.138 40.1095 39.1343 40.11 39.1305 40.1104Z" fill="white"/>
</svg>
