<svg width="46" height="46" viewBox="0 0 46 46" fill="none" xmlns="http://www.w3.org/2000/svg">
<circle cx="23" cy="23" r="23" fill="#EBEBEB"/>
<circle cx="23" cy="23" r="23" fill="#EBEBEB"/>
<path d="M30.718 26.5404L26.382 23.5068L26.457 23.4318C27.547 23.6176 28.662 23.4192 29.6254 22.8628C31.122 21.9988 32.0304 20.386 31.9964 18.6538C31.9916 18.4032 31.8582 18.1798 31.6398 18.0564C31.4214 17.9332 31.1618 17.9342 30.945 18.0596L28.9928 19.1866L27.7492 18.4612L27.7428 17.0216L29.6952 15.8944C29.9118 15.7692 30.0428 15.5448 30.0452 15.2944C30.0476 15.0438 29.9212 14.8168 29.7068 14.687C28.209 13.7828 26.3444 13.771 24.84 14.6564C23.1648 15.6428 22.2597 17.6188 22.5736 19.5372L22.0341 20.0768L19.0001 17.0428V16C19.0001 15.8244 18.9079 15.6616 18.7573 15.5712L16.2573 14.0712C16.0609 13.9532 15.8087 13.9842 15.6465 14.1464L14.1465 15.6464C13.9841 15.8086 13.9533 16.0604 14.0713 16.2572L15.5713 18.7572C15.6617 18.9078 15.8245 19 16.0001 19H17.0429L20.0769 22.034L14.8055 27.3054C13.7335 28.3776 13.7335 30.1222 14.8055 31.1946C15.3417 31.7306 16.0459 31.9986 16.7501 31.9986C17.4543 31.9986 18.1585 31.7306 18.6947 31.1944L23.507 26.382L26.5406 30.718C27.102 31.5208 28.0214 32 29 32C30.6542 32 32 30.6542 32 29C32 28.0214 31.5208 27.102 30.718 26.5404ZM23.4686 20.0564C23.59 19.9352 23.6406 19.76 23.6028 19.5926C23.2446 18.0094 23.962 16.334 25.3474 15.5182C25.9338 15.1728 26.5896 15.0006 27.246 15.0006C27.7476 15.0006 28.2496 15.1014 28.7206 15.3026L26.9916 16.3008C26.8362 16.3906 26.7408 16.5566 26.7416 16.736L26.7506 18.7516C26.7514 18.9286 26.8458 19.092 26.9986 19.1812L28.7396 20.1968C28.8944 20.2872 29.086 20.2874 29.2416 20.1978L30.9704 19.1998C30.83 20.362 30.1536 21.4034 29.1256 21.9968C28.3068 22.4694 27.3498 22.6138 26.4276 22.406C26.2112 22.331 26.005 22.2302 25.813 22.1062L24.8534 21.1466C24.6582 20.9512 24.3414 20.9512 24.1464 21.1466L23.625 21.668L22.741 20.784L23.4686 20.0564ZM17.6037 18.1464C17.5099 18.0526 17.3827 18 17.2501 18H16.2833L15.1297 16.0776L16.0777 15.1296L18.0001 16.2832V17.25C18.0001 17.3826 18.0527 17.5098 18.1465 17.6036L23.1464 22.6036L22.6034 23.1466L17.6037 18.1464ZM17.9877 30.4874C17.3053 31.1698 16.1951 31.1696 15.5127 30.4874C14.8303 29.805 14.8303 28.6948 15.5127 28.0124L20.7841 22.741L21.6681 23.625L21.1467 24.1464C20.9513 24.3416 20.9513 24.6582 21.1467 24.8534L22.1467 25.8534C22.2349 25.9418 22.353 25.9918 22.4772 25.9976L17.9877 30.4874ZM29 31C28.3476 31 27.7344 30.6802 27.3598 30.1448L23.9098 25.2134C23.8162 25.0796 23.6632 25 23.5 25H22.7072L22.2073 24.5L24.5 22.2072L25 22.7072V23.5C25 23.6632 25.0796 23.8162 25.2134 23.9096L30.1448 27.3596C30.6802 27.7344 31 28.3476 31 29C31 30.1028 30.1028 31 29 31Z" fill="currentcolor"/>
<circle cx="36" cy="36" r="10" fill="currentcolor"/>
<path fill-rule="evenodd" clip-rule="evenodd" d="M33.9877 34.1371L34.2719 36.5823L35.3586 36.4677L35.0407 33.7326C35.0219 33.5741 35.0092 33.4249 35.0193 33.2982C35.0297 33.1676 35.0617 33.1003 35.0944 33.0684L35.0952 33.0676C35.1239 33.0393 35.1838 33.0091 35.3016 32.9921C35.4166 32.9755 35.5542 32.9758 35.7077 32.9804L37.2555 33.0251L37.2563 33.0251C37.3068 33.0267 37.3814 33.0293 37.4489 33.0398C37.4609 33.0417 37.4716 33.0437 37.481 33.0457C37.4826 33.0894 37.4796 33.1397 37.4763 33.1904L37.2598 36.4874L38.3497 36.5568L38.5118 34.087C39.2166 34.4554 39.8266 35.0171 40.2324 35.6814C40.6435 36.3545 40.8599 37.1578 40.8514 37.9491C37.8425 37.8621 34.8099 37.8897 31.8033 38.0305C31.7913 37.2178 32.007 36.3931 32.4213 35.6976C32.7962 35.0671 33.3458 34.5245 33.9877 34.1371ZM37.2637 32.7996L37.2623 32.7996L35.7145 32.7549C35.4155 32.746 35.1091 32.7501 34.9446 32.8962C35.1091 32.75 35.4156 32.7459 35.7145 32.7549L37.2624 32.7995L37.2638 32.7996C37.3625 32.8027 37.6174 32.8107 37.6801 32.8965C37.7227 32.9565 37.7132 33.1059 37.7069 33.2044L37.5052 36.2769L38.134 36.317L38.134 36.317L37.5051 36.277L37.7069 33.2044C37.7132 33.1059 37.7226 32.9566 37.6801 32.8966C37.6173 32.8108 37.3625 32.8027 37.2637 32.7996ZM38.3034 33.7373C38.3791 33.7697 38.454 33.8043 38.528 33.8409C39.3084 34.2268 39.9854 34.8368 40.4307 35.5658C40.904 36.3407 41.1315 37.2765 41.0739 38.1813C41.0739 38.1813 41.0739 38.1813 41.074 38.1813C41.1315 37.2765 40.9041 36.3407 40.4308 35.5657C39.9433 34.7676 39.178 34.1121 38.3034 33.7372L38.3034 33.7373ZM35.1029 36.2677L34.4756 36.3339L34.1779 33.7723C33.8108 33.9587 33.4666 34.1926 33.1576 34.4643C33.4044 34.2473 33.6736 34.0544 33.9591 33.8906C34.031 33.8493 34.1039 33.8099 34.1778 33.7724L34.4755 36.334L35.1029 36.2678L35.1029 36.2677ZM42.4991 39.0764L42.5455 38.01L42.3147 38.0005C42.1916 37.9954 42.0684 37.9905 41.9452 37.9857C41.9518 37.6035 41.9158 37.2191 41.8362 36.8375C41.713 36.2312 41.4893 35.6575 41.1697 35.1346C40.8501 34.6118 40.4403 34.1474 39.9524 33.7528C39.531 33.4108 39.0661 33.1359 38.5686 32.9327C38.5545 32.7719 38.5093 32.5851 38.3846 32.4115C38.2224 32.1856 37.9945 32.0747 37.7911 32.0193C37.5932 31.9654 37.4027 31.9601 37.2939 31.957L35.7402 31.9122C35.3201 31.9001 34.7386 31.9035 34.3217 32.3107C34.1317 32.4962 34.0285 32.7162 33.975 32.931C33.5286 33.1354 33.1101 33.3978 32.7268 33.7124C32.2233 34.1273 31.8024 34.6135 31.4766 35.1614C31.1492 35.7093 30.9242 36.3065 30.8044 36.9395C30.732 37.3217 30.7009 37.7053 30.7104 38.0867C30.611 38.0923 30.5117 38.098 30.4124 38.1038L30.1818 38.1173L30.2474 39.1818L30.4779 39.1683C34.3886 38.9394 38.356 38.9056 42.2683 39.0669L42.4991 39.0764ZM34.501 32.4549C34.4956 32.4599 34.4903 32.465 34.485 32.4702C34.3028 32.6481 34.2152 32.869 34.1776 33.0887C34.1776 33.0887 34.1776 33.0887 34.1776 33.0887C34.2152 32.8689 34.3028 32.6481 34.4851 32.4701C34.4903 32.465 34.4956 32.4599 34.501 32.4549ZM32.7363 34.0035C32.3139 34.3752 31.9579 34.8012 31.6763 35.2748C31.3626 35.7997 31.1466 36.3724 31.0316 36.9804C30.9483 37.4204 30.922 37.8619 30.9514 38.2993C30.9514 38.2993 30.9514 38.2993 30.9513 38.2993C30.9489 38.2634 30.9469 38.2274 30.9452 38.1915C30.9266 37.7895 30.9551 37.3843 31.0315 36.9805C31.1466 36.3724 31.3625 35.7998 31.6762 35.2749C31.9578 34.8012 32.3139 34.3752 32.7363 34.0035ZM30.4263 38.329L30.4263 38.329L30.4641 38.9432C34.3826 38.7138 38.358 38.6799 42.2781 38.8416L42.2781 38.8415C38.358 38.6799 34.3827 38.7137 30.4641 38.9431L30.4263 38.329Z" fill="white"/>
</svg>
