<svg width="46" height="46" viewBox="0 0 46 46" fill="none" xmlns="http://www.w3.org/2000/svg">
<circle cx="23" cy="23" r="23" fill="white"/>
<circle cx="23" cy="23" r="23" fill="white"/>
<path fill-rule="evenodd" clip-rule="evenodd" d="M25.824 18.5402C25.8374 18.4081 25.8446 18.275 25.8446 18.142C25.8431 18.0079 25.8367 17.8738 25.8235 17.7407C25.7805 17.4796 25.7112 17.2246 25.6168 16.9778C25.506 16.7331 25.3698 16.5016 25.2113 16.2854C25.052 16.0921 24.8739 15.9142 24.6803 15.7552C24.4656 15.5973 24.2359 15.4636 23.9933 15.3538C23.7433 15.2581 23.485 15.1883 23.2203 15.1454C22.9594 15.1186 22.6975 15.1186 22.4366 15.1454C22.1721 15.1883 21.914 15.258 21.6643 15.3536C21.4196 15.4644 21.1881 15.6006 20.9718 15.7591C20.7786 15.9183 20.6007 16.0965 20.4417 16.29C20.2838 16.5048 20.15 16.7345 20.0403 16.9771C19.9446 17.2271 19.8748 17.4854 19.8319 17.7501C19.8051 18.011 19.8051 18.2729 19.8319 18.5338C19.8748 18.7982 19.9445 19.0563 20.0401 19.3061C20.1509 19.5508 20.2871 19.7823 20.4455 19.9986C20.6048 20.1918 20.783 20.3697 20.9765 20.5287C21.1913 20.6866 21.421 20.8204 21.6636 20.9301C21.9136 21.0258 22.1719 21.0956 22.4366 21.1385C22.6975 21.1653 22.9594 21.1653 23.2203 21.1385C23.4847 21.0956 23.7428 21.0259 23.9926 20.9303C24.2372 20.8195 24.4687 20.6833 24.685 20.5249C24.8783 20.3656 25.0562 20.1874 25.2152 19.9939C25.373 19.7791 25.5068 19.5494 25.6166 19.3068C25.7115 19.0588 25.7809 18.8026 25.824 18.5402ZM25.5775 19.4049C25.5807 19.3971 25.5838 19.3894 25.5871 19.3816C25.5839 19.3894 25.5807 19.3971 25.5775 19.4049ZM24.0914 20.891C24.0836 20.8942 24.0758 20.8974 24.0681 20.9006C24.0758 20.8974 24.0836 20.8942 24.0914 20.891ZM23.128 21.1524C23.1384 21.1509 23.1489 21.1494 23.1594 21.1479C23.1489 21.1495 23.1384 21.1509 23.128 21.1524ZM23.2598 21.1343C23.2834 21.1312 23.3069 21.1283 23.3302 21.1257C23.3067 21.1288 23.2833 21.1316 23.2598 21.1343ZM21.5655 20.891C21.5733 20.8942 21.581 20.8974 21.5888 20.9006C21.581 20.8974 21.5732 20.8942 21.5655 20.891ZM20.0794 19.4049C20.0762 19.3971 20.073 19.3894 20.0698 19.3816C20.073 19.3894 20.0762 19.3971 20.0794 19.4049ZM19.818 18.4415C19.8195 18.4519 19.821 18.4624 19.8225 18.4729C19.8209 18.4625 19.8194 18.452 19.818 18.4415ZM19.8361 18.5733C19.8392 18.5969 19.842 18.6204 19.8447 18.6437C19.8416 18.6202 19.8388 18.5968 19.8361 18.5733ZM20.0794 16.879C20.0762 16.8868 20.073 16.8945 20.0698 16.9023C20.073 16.8945 20.0762 16.8868 20.0794 16.879ZM21.5655 15.3929C21.5732 15.3897 21.581 15.3865 21.5888 15.3833C21.581 15.3865 21.5733 15.3897 21.5655 15.3929ZM22.5289 15.1315C22.5185 15.133 22.508 15.1345 22.4975 15.136C22.5079 15.1345 22.5184 15.133 22.5289 15.1315ZM22.397 15.1496C22.3735 15.1527 22.35 15.1556 22.3267 15.1582C22.3501 15.1551 22.3736 15.1523 22.397 15.1496ZM24.0914 15.3929C24.0836 15.3897 24.0759 15.3865 24.0681 15.3833C24.0759 15.3865 24.0836 15.3897 24.0914 15.3929ZM25.5775 16.879C25.5807 16.8868 25.5839 16.8946 25.5871 16.9023C25.5839 16.8946 25.5807 16.8868 25.5775 16.879ZM25.8389 17.8424C25.8374 17.832 25.8359 17.8215 25.8344 17.811C25.8359 17.8215 25.8374 17.8319 25.8389 17.8424ZM25.8179 17.6877C25.8159 17.6718 25.814 17.656 25.8122 17.6402C25.8142 17.656 25.8161 17.6719 25.8179 17.6877ZM27.366 18.2308C27.3693 18.2018 27.3709 18.1722 27.3708 18.142C27.367 17.2281 27.0923 16.2933 26.5543 15.5493C26.4093 15.349 26.2548 15.1525 26.0831 14.9751C25.9095 14.7957 25.7187 14.6412 25.5203 14.4905C25.1597 14.2158 24.7572 14.0136 24.3298 13.8571C22.6071 13.2257 20.5296 13.7885 19.364 15.2078C19.2037 15.4024 19.0511 15.6046 18.9214 15.8221C18.7916 16.0377 18.6905 16.2666 18.597 16.4994C18.4215 16.9305 18.3319 17.3884 18.2956 17.852C18.225 18.7601 18.4616 19.7082 18.9347 20.4866C19.3907 21.2382 20.0794 21.8831 20.8844 22.2474C21.121 22.3543 21.3633 22.4535 21.6151 22.5241C21.865 22.5927 22.1187 22.6309 22.3763 22.6614C22.8456 22.7167 23.3245 22.6786 23.788 22.5851C25.5489 22.2265 27.0236 20.7098 27.2964 18.9299C27.3322 18.6978 27.3604 18.4657 27.366 18.2308ZM27.2544 30.0711H28.3762H28.3762C28.3799 30.071 28.3836 30.0708 28.3872 30.0707C28.4008 30.0673 28.4143 30.0638 28.4277 30.0599C28.4415 30.0523 28.4551 30.0444 28.4685 30.0362C28.4778 30.0271 28.4869 30.0179 28.4959 30.0084C28.5037 29.9958 28.5112 29.983 28.5184 29.9701C28.5217 29.9586 28.5249 29.9471 28.5279 29.9355C28.5297 29.885 28.5294 29.8342 28.5291 29.7833C28.5289 29.7635 28.5288 29.7437 28.5288 29.7239V28.7796C28.5288 28.5212 28.5273 28.2658 28.5013 28.0095C28.4507 27.695 28.367 27.3883 28.2522 27.0923C28.1199 26.7972 27.9569 26.5178 27.7643 26.2578C27.5716 26.0217 27.3556 25.8071 27.1204 25.6149C26.8591 25.4219 26.5785 25.2587 26.2821 25.1265C25.9876 25.0121 25.6818 24.9304 25.3705 24.8806C25.1019 24.8533 24.8343 24.8534 24.5655 24.8534C24.5518 24.8534 24.5381 24.8534 24.5244 24.8534H22.0806H21.0332C20.7817 24.8534 20.5331 24.8549 20.2836 24.8804C19.9679 24.9309 19.6601 25.0148 19.3631 25.13C19.068 25.2623 18.7887 25.4254 18.5286 25.6179C18.2925 25.8106 18.0779 26.0266 17.8857 26.2619C17.6927 26.5231 17.5296 26.8037 17.3973 27.1002C17.2815 27.3981 17.1993 27.7078 17.1496 28.023C17.132 28.1894 17.1242 28.356 17.1242 28.524V29.3405C17.1242 29.4075 17.1225 29.4755 17.1208 29.5438C17.1176 29.6679 17.1144 29.7933 17.1215 29.9162C17.1257 29.9342 17.1304 29.9522 17.1355 29.97C17.1431 29.9838 17.151 29.9974 17.1592 30.0109C17.1683 30.0201 17.1775 30.0293 17.187 30.0383C17.1996 30.0461 17.2124 30.0535 17.2253 30.0607C17.2375 30.0643 17.2497 30.0677 17.2621 30.0708C17.2708 30.071 17.2796 30.0711 17.2883 30.0711C17.577 30.0737 17.8657 30.0728 18.1544 30.072C18.2988 30.0716 18.4431 30.0711 18.5875 30.0711H21.3652H24.5836H27.2544ZM17.1289 30.0074C17.1296 30.0142 17.1304 30.021 17.1312 30.0278C17.1308 30.0276 17.1304 30.0274 17.13 30.0273M17.1289 30.0074C17.1298 30.0142 17.1306 30.0211 17.1314 30.0278L17.1289 30.0074ZM17.4467 26.9787C17.438 27 17.4291 27.0212 17.4202 27.0425C17.4288 27.0212 17.4377 26.9999 17.4467 26.9787ZM19.2495 25.1758C19.2645 25.1696 19.2795 25.1634 19.2945 25.1573C19.2795 25.1635 19.2645 25.1697 19.2495 25.1758ZM20.3884 24.8649C20.3723 24.8672 20.3561 24.8695 20.3398 24.8718C20.356 24.8694 20.3722 24.8671 20.3884 24.8649ZM20.2415 24.8849C20.223 24.8873 20.2045 24.8895 20.1862 24.8916C20.2046 24.8892 20.2231 24.887 20.2415 24.8849ZM26.4036 25.1758C26.3823 25.1672 26.361 25.1583 26.3397 25.1494C26.3611 25.158 26.3824 25.1668 26.4036 25.1758ZM28.2064 26.9787C28.2127 26.9936 28.2188 27.0086 28.2249 27.0236C28.2187 27.0086 28.2125 26.9937 28.2064 26.9787ZM28.5174 28.1176C28.5151 28.1015 28.5128 28.0853 28.5105 28.0691C28.5129 28.0852 28.5152 28.1014 28.5174 28.1176ZM28.4961 27.9613C28.4942 27.9459 28.4924 27.9306 28.4906 27.9154C28.4926 27.9307 28.4944 27.946 28.4961 27.9613ZM28.4659 31.5936C29.1704 31.5463 29.7796 31.0725 29.9882 30.3897C30.0609 30.1506 30.0584 29.8965 30.0559 29.6482C30.0555 29.6032 30.055 29.5585 30.055 29.5141C30.055 29.4249 30.0554 29.3359 30.0558 29.2469C30.0582 28.6734 30.0606 28.1036 29.9615 27.5338C29.7936 26.5704 29.3091 25.6642 28.6452 24.9526C27.9813 24.241 27.0884 23.7183 26.1441 23.4856C25.6023 23.352 25.0567 23.331 24.5034 23.331H22.7998H21.1191C20.5525 23.331 19.9897 23.3578 19.4384 23.5047C18.5016 23.7527 17.6203 24.2811 16.9697 24.9984C16.3134 25.7215 15.8384 26.6296 15.6839 27.5987C15.5958 28.155 15.5984 28.7127 15.601 29.273C15.6014 29.3679 15.6019 29.4629 15.6019 29.558C15.6019 29.594 15.6016 29.6302 15.6014 29.6666C15.5996 29.9343 15.5977 30.2086 15.6934 30.4622C15.8346 30.8323 16.0597 31.1242 16.3898 31.3436C16.6473 31.5134 16.9735 31.5954 17.2788 31.5993C17.378 31.6005 17.4772 31.6001 17.5764 31.5997C17.626 31.5995 17.6756 31.5993 17.7252 31.5993H18.8679H20.4914H22.3801H24.3184H26.0907H27.4795H28.2751H28.3781C28.4075 31.5993 28.4368 31.5973 28.4659 31.5936ZM28.4791 30.0648C28.4812 30.0645 28.4834 30.0643 28.4855 30.0641C28.4853 30.0645 28.4851 30.065 28.4849 30.0654M28.4791 30.0648C28.4812 30.0645 28.4834 30.0642 28.4855 30.064L28.4791 30.0648ZM17.1314 30.0278C17.1322 30.0347 17.133 30.0415 17.1338 30.0482L17.1314 30.0278ZM17.1338 30.0482C17.1329 30.0414 17.132 30.0346 17.1312 30.0278L17.1338 30.0482ZM28.4855 30.064C28.4923 30.0632 28.4991 30.0624 28.5059 30.0616L28.4855 30.064ZM28.5059 30.0616C28.4991 30.0625 28.4923 30.0633 28.4855 30.0641L28.5059 30.0616Z" fill="currentcolor"/>
</svg>
