<?xml version="1.0" encoding="UTF-8"?>
<svg xmlns="http://www.w3.org/2000/svg" xmlns:xlink="http://www.w3.org/1999/xlink" width="18px" height="18px" viewBox="0 0 18 18" version="1.1">
<g id="surface1">
<path stroke="none" fill="currentcolor" d="M 16.765625 6.820312 L 14.242188 4.292969 C 14.171875 4.226562 14.082031 4.1875 13.988281 4.1875 L 11.246094 4.1875 L 11.246094 2.886719 C 11.246094 2.789062 11.207031 2.699219 11.140625 2.632812 L 8.613281 0.105469 C 8.546875 0.0390625 8.453125 0 8.359375 0 L 1.484375 0 C 1.289062 0 1.128906 0.160156 1.128906 0.359375 L 1.128906 13.453125 C 1.128906 13.652344 1.289062 13.8125 1.484375 13.8125 L 6.753906 13.8125 L 6.753906 17.640625 C 6.753906 17.839844 6.914062 18 7.113281 18 L 16.515625 18 C 16.710938 18 16.871094 17.839844 16.871094 17.640625 L 16.871094 7.074219 C 16.871094 6.976562 16.835938 6.886719 16.765625 6.820312 Z M 14.347656 5.410156 L 14.996094 6.0625 L 15.648438 6.714844 L 14.347656 6.714844 Z M 8.71875 1.222656 L 9.371094 1.875 L 10.019531 2.527344 L 8.71875 2.527344 Z M 3.128906 4.1875 C 2.933594 4.1875 2.769531 4.347656 2.769531 4.546875 C 2.769531 4.742188 2.933594 4.90625 3.128906 4.90625 L 6.753906 4.90625 L 6.753906 5.976562 L 3.128906 5.976562 C 2.933594 5.976562 2.769531 6.136719 2.769531 6.335938 C 2.769531 6.535156 2.933594 6.695312 3.128906 6.695312 L 6.753906 6.695312 L 6.753906 7.769531 L 3.128906 7.769531 C 2.933594 7.769531 2.769531 7.929688 2.769531 8.128906 C 2.769531 8.328125 2.933594 8.488281 3.128906 8.488281 L 6.753906 8.488281 L 6.753906 9.5625 L 3.128906 9.5625 C 2.933594 9.5625 2.769531 9.722656 2.769531 9.921875 C 2.769531 10.121094 2.933594 10.28125 3.128906 10.28125 L 6.753906 10.28125 L 6.753906 13.09375 L 1.84375 13.09375 L 1.84375 0.71875 L 8 0.71875 L 8 2.886719 C 8 3.082031 8.160156 3.242188 8.359375 3.242188 L 10.527344 3.242188 L 10.527344 4.1875 Z M 16.15625 17.28125 L 7.472656 17.28125 L 7.472656 4.90625 L 13.628906 4.90625 L 13.628906 7.074219 C 13.628906 7.269531 13.789062 7.429688 13.988281 7.429688 L 16.15625 7.429688 Z M 16.15625 17.28125 "/>
<path stroke="none" fill="currentcolor" d="M 8.757812 9.089844 L 13.253906 9.089844 C 13.453125 9.089844 13.613281 8.929688 13.613281 8.730469 C 13.613281 8.53125 13.453125 8.371094 13.253906 8.371094 L 8.757812 8.371094 C 8.558594 8.371094 8.398438 8.53125 8.398438 8.730469 C 8.398438 8.929688 8.558594 9.089844 8.757812 9.089844 Z M 8.757812 9.089844 "/>
<path stroke="none" fill="currentcolor" d="M 14.871094 10.164062 L 8.757812 10.164062 C 8.558594 10.164062 8.398438 10.324219 8.398438 10.523438 C 8.398438 10.722656 8.558594 10.882812 8.757812 10.882812 L 14.871094 10.882812 C 15.066406 10.882812 15.230469 10.722656 15.230469 10.523438 C 15.230469 10.324219 15.066406 10.164062 14.871094 10.164062 Z M 14.871094 10.164062 "/>
<path stroke="none" fill="currentcolor" d="M 14.871094 11.957031 L 8.757812 11.957031 C 8.558594 11.957031 8.398438 12.117188 8.398438 12.316406 C 8.398438 12.515625 8.558594 12.675781 8.757812 12.675781 L 14.871094 12.675781 C 15.066406 12.675781 15.230469 12.515625 15.230469 12.316406 C 15.230469 12.117188 15.066406 11.957031 14.871094 11.957031 Z M 14.871094 11.957031 "/>
<path stroke="none" fill="currentcolor" d="M 14.871094 13.75 L 8.757812 13.75 C 8.558594 13.75 8.398438 13.910156 8.398438 14.109375 C 8.398438 14.308594 8.558594 14.46875 8.757812 14.46875 L 14.871094 14.46875 C 15.066406 14.46875 15.230469 14.308594 15.230469 14.109375 C 15.230469 13.910156 15.066406 13.75 14.871094 13.75 Z M 14.871094 13.75 "/>
<path stroke="none" fill="currentcolor" d="M 14.273438 9.089844 L 14.871094 9.089844 C 15.066406 9.089844 15.230469 8.929688 15.230469 8.730469 C 15.230469 8.53125 15.066406 8.371094 14.871094 8.371094 L 14.273438 8.371094 C 14.074219 8.371094 13.914062 8.53125 13.914062 8.730469 C 13.914062 8.929688 14.074219 9.089844 14.273438 9.089844 Z M 14.273438 9.089844 "/>
</g>
</svg>
