<svg height="512" viewBox="0 0 60 60" width="512" xmlns="http://www.w3.org/2000/svg"><g id="Page-1" fill="none" fill-rule="evenodd"><g id="010---Hallway" fill="rgb(0,0,0)" fill-rule="nonzero"><path id="Shape" d="m13.741 18.821-8-3.2c-.61632165-.2458434-1.31444775-.1700062-1.86360453.2024427s-.87783847.9930129-.87739547 1.6565573v37.963l-2.725 2.868c-.27553606.2898373-.35189964.715962-.19415844 1.0834446.15774121.3674826.51925127.6056509.91915844.6055554h58c.3999072.0000955.7614172-.2380728.9191584-.6055554s.0813777-.7936073-.1941584-1.0834446l-2.725-2.868v-37.963c.000443-.6635444-.3282387-1.2841084-.8773955-1.6565573-.5491567-.3724489-1.2472828-.4482861-1.8636045-.2024427l-8 3.2c-.7629111.3006964-1.2629091 1.0389779-1.259 1.859v22.131l-4-4.211v-23.1l18.593-13.7c.3853738-.34445396.444743-.9258346.1369472-1.34107339-.3077957-.41523879-.8813183-.52748837-1.3229472-.25892661l-18.735 13.8h-19.344l-18.735-13.8c-.44330664-.28441027-1.031225-.17621555-1.34423718.24738019s-.24380524 1.01736716.15823718 1.35761981l18.593 13.7v23.095l-4 4.21v-22.13c.0039091-.8200221-.4960889-1.5583036-1.259-1.859zm-8.741-1.343 8 3.2v11.7l-1.447.723c-.4942949.2468713-.6948713.8477051-.448 1.342s.8477051.6948713 1.342.448l.553-.273v10.3l-8 8.42zm3.847 40.522 13.3-14h15.707l13.3 14zm45.065 0-14.9-15.689c-.1897931-.199649-.4535371-.3121653-.729-.311h-16.566c-.274074-.0000654-.536163.1123617-.725.311l-14.904 15.689h-2.759l17.1-18h19.141l17.1 18zm-19.912-28h-1c-.5522847 0-1 .4477153-1 1s.4477153 1 1 1h1v6h-8v-16h8zm13-9.321 8-3.2v16.9l-.553-.277c-.4942949-.2468713-1.0951287-.0462949-1.342.448s-.0462949 1.0951287.448 1.342l1.447.726v16.72l-8-8.421zm-26-4.679h18v22h-3v-16c0-1.1045695-.8954305-2-2-2h-8c-1.1045695 0-2 .8954305-2 2v16h-3z"/><path id="Shape" d="m30 8c2.757 0 5-1.794 5-4s-2.243-4-5-4-5 1.794-5 4 2.243 4 5 4zm0-6c1.626 0 3 .916 3 2s-1.374 2-3 2-3-.916-3-2 1.374-2 3-2z"/></g></g></svg>