<svg width="18" height="18" viewBox="0 0 18 18" fill="none" xmlns="http://www.w3.org/2000/svg">
<path fill-rule="evenodd" clip-rule="evenodd" d="M8.08109 0.046552C8.38327 0.0157706 8.68983 0 9 0C9.01939 0 9.03876 6.16014e-05 9.05811 0.000184625C9.34847 0.00202996 9.63561 0.0176944 9.91891 0.046552C14.4516 0.508273 18 4.34744 18 9C18 13.963 13.963 18 9 18C4.34744 18 0.508273 14.4516 0.046552 9.91891C0.0157706 9.61673 0 9.31017 0 9C0 8.68229 0.0165461 8.36838 0.0488218 8.05908C0.489158 3.83866 3.8577 0.476703 8.08109 0.046552ZM1.56665 9C1.56665 4.90164 4.90164 1.56665 9 1.56665C13.0984 1.56665 16.4334 4.90164 16.4334 9C16.4334 13.0984 13.0984 16.4334 9 16.4334C4.90164 16.4334 1.56665 13.0984 1.56665 9ZM9 3.28667C5.84964 3.28667 3.28667 5.84876 3.28667 9C3.28667 9.43231 3.63768 9.78333 4.06999 9.78333C4.50231 9.78333 4.85332 9.43231 4.85332 9C4.85332 6.7142 6.71345 4.85332 9 4.85332C9.61629 4.85332 10.209 4.98523 10.7633 5.24532C11.1564 5.43221 11.6225 5.26054 11.806 4.8702C11.9897 4.47809 11.8217 4.01198 11.43 3.82784C10.6663 3.4685 9.8476 3.28667 9 3.28667ZM13.8358 5.72663C13.5168 5.4351 13.0225 5.45785 12.7305 5.77456L12.7299 5.7753L9.37864 9.43606C8.67372 9.19571 7.86259 9.37548 7.32739 9.96006C6.60633 10.7478 6.65929 11.9709 7.4474 12.6923C8.23516 13.4133 9.45827 13.3603 10.1797 12.5722C10.7105 11.992 10.8204 11.1769 10.5285 10.4995L13.8842 6.83404C14.1772 6.51494 14.1539 6.01866 13.8358 5.72663Z" fill="currentcolor"/>
</svg>
