<svg width="40" height="40" viewBox="0 0 22 30" fill="none" xmlns="http://www.w3.org/2000/svg">
    <path fill-rule="evenodd" clip-rule="evenodd" d="M6.82026 0.615601H19.4616C20.1348 0.615601 20.7805 0.88304 21.2565 1.35909C21.7326 1.83513 22 2.48079 22 3.15402V26.8459C22 27.5192 21.7326 28.1648 21.2565 28.6409C20.7805 29.1169 20.1348 29.3843 19.4616 29.3843H2.53879C1.86556 29.3843 1.2199 29.1169 0.743858 28.6409C0.267812 28.1648 0.00037302 27.5192 0.00037302 26.8459V7.38472C-0.00338349 7.25824 0.0212726 7.13254 0.0725249 7.01685C0.123777 6.90117 0.200321 6.79845 0.296522 6.71627L6.2195 0.844059C6.29747 0.767948 6.38941 0.707613 6.49026 0.666369C6.54065 0.640605 6.59499 0.623445 6.65103 0.615601H6.82026ZM5.92335 6.45396V3.50094L2.91955 6.45396H5.92335ZM20.0599 27.4442C20.2186 27.2856 20.3077 27.0703 20.3077 26.8459V3.1794C20.3077 2.95499 20.2186 2.73977 20.0599 2.58109C19.9012 2.42241 19.686 2.33326 19.4616 2.33326H7.65793L7.61563 7.32549C7.61563 7.5499 7.52648 7.76512 7.3678 7.9238C7.20912 8.08248 6.9939 8.17163 6.76949 8.17163H1.69265V26.8459C1.69265 27.0703 1.7818 27.2856 1.94048 27.4442C2.09916 27.6029 2.31438 27.6921 2.53879 27.6921H19.4616C19.686 27.6921 19.9012 27.6029 20.0599 27.4442ZM6.82075 11.6662H15.1806C15.405 11.6662 15.6202 11.5771 15.7789 11.4184C15.9376 11.2597 16.0267 11.0445 16.0267 10.8201C16.0267 10.5957 15.9376 10.3804 15.7789 10.2218C15.6202 10.0631 15.405 9.97394 15.1806 9.97394H6.82075C6.59634 9.97394 6.38112 10.0631 6.22244 10.2218C6.06376 10.3804 5.97461 10.5957 5.97461 10.8201C5.97461 11.0445 6.06376 11.2597 6.22244 11.4184C6.38112 11.5771 6.59634 11.6662 6.82075 11.6662ZM15.1806 15.8461H6.82075C6.59634 15.8461 6.38112 15.757 6.22244 15.5983C6.06376 15.4396 5.97461 15.2244 5.97461 15C5.97461 14.7756 6.06376 14.5604 6.22244 14.4017C6.38112 14.243 6.59634 14.1539 6.82075 14.1539H15.1806C15.405 14.1539 15.6202 14.243 15.7789 14.4017C15.9376 14.5604 16.0267 14.7756 16.0267 15C16.0267 15.2244 15.9376 15.4396 15.7789 15.5983C15.6202 15.757 15.405 15.8461 15.1806 15.8461ZM6.82075 20.026H15.1806C15.405 20.026 15.6202 19.9369 15.7789 19.7782C15.9376 19.6195 16.0267 19.4043 16.0267 19.1799C16.0267 18.9555 15.9376 18.7403 15.7789 18.5816C15.6202 18.4229 15.405 18.3337 15.1806 18.3337H6.82075C6.59634 18.3337 6.38112 18.4229 6.22244 18.5816C6.06376 18.7403 5.97461 18.9555 5.97461 19.1799C5.97461 19.4043 6.06376 19.6195 6.22244 19.7782C6.38112 19.9369 6.59634 20.026 6.82075 20.026Z" fill="currentcolor" />
</svg>