<svg width="18" height="18" viewBox="0 0 18 18" fill="none" xmlns="http://www.w3.org/2000/svg">
<g clip-path="url(#clip0)">
<path fill-rule="evenodd" clip-rule="evenodd" d="M9.72541 13.2871L13.9024 9.10225C14.2878 8.71613 14.2878 8.08584 13.9194 7.69404C13.5283 7.30792 12.8992 7.30792 12.5138 7.69404L10.0031 10.2095V0.993696C10.0031 0.715461 9.89544 0.471296 9.71407 0.289591C9.53271 0.113565 9.28334 0 9.0113 0C8.46722 0 8.01948 0.448583 8.01948 0.993696V10.2095L5.50876 7.69404C5.1177 7.30792 4.48861 7.30792 4.10322 7.69404C3.91052 7.8871 3.81417 8.14263 3.81417 8.39815C3.81417 8.65367 3.91052 8.90919 4.10322 9.10225L8.28019 13.2871L8.30286 13.3098C8.45588 13.4632 8.64858 13.5597 8.85261 13.5881C8.86111 13.5881 8.86961 13.5895 8.87811 13.5909C8.88661 13.5923 8.89511 13.5938 8.90362 13.5938L8.99996 13.5994C9.03397 13.5994 9.06798 13.5994 9.10198 13.5938C9.11048 13.5938 9.11898 13.5923 9.12748 13.5909C9.13599 13.5895 9.14449 13.5881 9.15299 13.5881C9.35135 13.5597 9.54972 13.4632 9.70274 13.3098C9.70445 13.3081 9.70669 13.3064 9.70913 13.3045C9.71475 13.3002 9.72146 13.295 9.72541 13.2871ZM18.0001 17.0915V13.0997C18.0001 12.8669 17.9037 12.6511 17.7564 12.4921C17.6034 12.3388 17.388 12.2422 17.1556 12.2422C16.6909 12.2422 16.3055 12.6227 16.3055 13.094V16.2908H1.70026V13.094C1.70026 12.8612 1.60391 12.6454 1.45089 12.4921C1.29787 12.3388 1.0825 12.2422 0.85013 12.2422C0.385392 12.2422 0 12.6227 0 13.094V17.0858C0 17.1426 0 17.188 0.0113351 17.2391C0.0566754 17.665 0.419397 18 0.855797 18H17.1386C17.5467 18 17.8924 17.7047 17.9717 17.3129C17.9887 17.2448 18.0001 17.171 18.0001 17.0915Z" fill="currentcolor"/>
</g>
<defs>
<clipPath id="clip0">
<rect width="18" height="18" fill="white"/>
</clipPath>
</defs>
</svg>
