<svg width="18" height="18" viewBox="0 0 18 18" fill="none" xmlns="http://www.w3.org/2000/svg">
<path d="M0.0416908 15.7903C0.0416908 16.9994 1.04227 18 2.2513 18H13.5912C14.8002 18 15.8008 16.9994 15.8008 15.7903V10.1204H14.1749V15.7903C14.1749 16.0822 13.9247 16.3323 13.6329 16.3323H2.20961C1.91778 16.3323 1.66763 16.0822 1.66763 15.7903V4.45045C1.66763 4.15862 1.91778 3.90847 2.20961 3.90847H7.87956V2.28253H2.20961C1.00058 2.28253 0 3.28311 0 4.49214V15.7903H0.0416908Z" fill="currentcolor"/>
<path d="M17.5935 3.19977C18.1355 2.65779 18.1355 1.82397 17.5935 1.28199L16.718 0.406485C16.176 -0.135495 15.3422 -0.135495 14.8002 0.406485L13.8413 1.36537L6.87898 8.32774L6.04517 11.9548L9.67227 11.121L16.6763 4.11697L17.5935 3.19977Z" fill="currentcolor"/>
</svg>
