<svg id="Capa_1" enable-background="new 0 0 512.026 512.026" height="512" viewBox="0 0 512.026 512.026" width="512" xmlns="http://www.w3.org/2000/svg"><g><path d="m494.498 184.413c6.318 0 11.98-3.265 15.146-8.733 3.165-5.469 3.176-12.005.027-17.483l-37.488-65.261c-1.337-2.329-3.817-3.765-6.503-3.765h-34.16v-56.658c0-4.143-3.357-7.5-7.5-7.5h-50.14c-4.143 0-7.5 3.357-7.5 7.5v56.658h-88.867c-4.143 0-7.5 3.357-7.5 7.5s3.357 7.5 7.5 7.5h183.827l35.326 61.497c.625 1.088.266 2.031-.004 2.497-.27.467-.909 1.248-2.164 1.248h-294.425l-62.973-48.676c-2.702-2.088-6.472-2.088-9.174 0l-62.974 48.676h-47.425c-1.254 0-1.894-.781-2.164-1.247-.27-.467-.629-1.411-.004-2.499l35.326-61.496h196.827c4.142 0 7.5-3.357 7.5-7.5s-3.358-7.5-7.5-7.5h-201.168c-2.686 0-5.166 1.436-6.503 3.765l-37.488 65.26c-3.147 5.479-3.137 12.015.029 17.483s8.827 8.733 15.146 8.733h12.485v90.5l-24.97 43.469c-3.213 5.48-3.276 12.259-.164 17.691 3.079 5.374 8.641 8.583 14.878 8.583h10.255v97.557c-8.466 1.22-15 8.502-15 17.3v20c0 4.143 3.358 7.5 7.5 7.5h178.5c4.142 0 7.5-3.357 7.5-7.5s-3.358-7.5-7.5-7.5h-171v-12.5c0-1.379 1.122-2.5 2.5-2.5h447c1.379 0 2.5 1.121 2.5 2.5v12.5h-251c-4.142 0-7.5 3.357-7.5 7.5s3.358 7.5 7.5 7.5h258.5c4.143 0 7.5-3.357 7.5-7.5v-20c0-8.798-6.534-16.081-15-17.3v-75.299c0-4.143-3.357-7.5-7.5-7.5s-7.5 3.357-7.5 7.5v75.1h-125.562v-97.357h25v62.5c0 4.143 3.357 7.5 7.5 7.5h50c4.143 0 7.5-3.357 7.5-7.5v-62.5h60.391c6.318 0 11.98-3.265 15.146-8.733 3.165-5.469 3.176-12.005.027-17.483l-25.002-43.527v-90.499h12.486zm-113.118-144.4h35.141v49.158h-35.141zm.07 184.4h35v15h-35zm35-15h-35v-25h35zm-161.437 15h35v15h-35zm35-15h-35v-25h35zm-209.438 135.242v62.5c0 4.143 3.358 7.5 7.5 7.5h50c4.142 0 7.5-3.357 7.5-7.5v-62.5h25v97.357h-125.562v-97.357zm50 0v25h-35v-25zm-35 40h35v15h-35zm177.938 57.358h-35v-97.357h35zm15 0v-104.858c0-4.143-3.357-7.5-7.5-7.5h-50c-4.142 0-7.5 3.357-7.5 7.5v104.857h-37.938v-101.175l70.438-54.445 70.438 54.445v101.176zm92.937-42.358v-15h35v15zm35-30h-35v-25h35zm77.555-41.248c-.27.467-.909 1.248-2.164 1.248h-155.33l-58.531-45.242h192.192l23.837 41.497c.625 1.088.265 2.032-.004 2.497zm-26.992-58.994h-360.002c-4.142 0-7.5 3.357-7.5 7.5s3.358 7.5 7.5 7.5h127.035l-58.531 45.242h-155.757c-.841 0-1.468-.35-1.863-1.04-.218-.38-.645-1.397.122-2.706l23.837-41.496h35.157c4.142 0 7.5-3.357 7.5-7.5s-3.358-7.5-7.5-7.5h-31.998v-85h22.5c1.66 0 3.273-.551 4.587-1.566l60.413-46.696 60.413 46.696c1.313 1.016 2.927 1.566 4.587 1.566h42.5v62.5c0 4.143 3.358 7.5 7.5 7.5h50c4.143 0 7.5-3.357 7.5-7.5v-62.5h61.438v62.5c0 4.143 3.357 7.5 7.5 7.5h50c4.143 0 7.5-3.357 7.5-7.5v-62.5h35.562z"/><path d="m157.513 169.413h-50c-4.142 0-7.5 3.357-7.5 7.5v70c0 4.143 3.358 7.5 7.5 7.5h50c4.142 0 7.5-3.357 7.5-7.5v-70c0-4.142-3.358-7.5-7.5-7.5zm-7.5 15v25h-35v-25zm-35 55v-15h35v15z"/></g></svg>