<svg width="18" height="18" viewBox="0 0 18 18" fill="none" xmlns="http://www.w3.org/2000/svg">
<path d="M15.1538 0H2.84615C2.35652 0 1.88695 0.196181 1.54073 0.545387C1.1945 0.894593 1 1.36822 1 1.86207V3.72414C1.0001 4.1982 1.17947 4.65438 1.50154 4.99966L5.92308 9.73862V16.1379C5.92308 16.4837 6.01855 16.8227 6.1988 17.1169C6.37905 17.411 6.63695 17.6488 6.94361 17.8034C7.25026 17.9581 7.59356 18.0235 7.93503 17.9925C8.27649 17.9614 8.60264 17.8351 8.87692 17.6276L11.3385 15.7655C11.5677 15.5921 11.7538 15.3672 11.882 15.1086C12.0102 14.85 12.0769 14.5649 12.0769 14.2759V9.73862L16.4985 4.99966C16.8205 4.65438 16.9999 4.1982 17 3.72414V1.86207C17 1.36822 16.8055 0.894593 16.4593 0.545387C16.1131 0.196181 15.6435 0 15.1538 0ZM15.1538 3.72414L10.2308 9V14.2759L7.76923 16.1379V9L2.84615 3.72414V1.86207H15.1538V3.72414Z" fill="currentcolor"/>
</svg>
