<svg width="18" height="18" viewBox="0 0 18 18" fill="none" xmlns="http://www.w3.org/2000/svg">
<path d="M6.71375 17C6.49346 17 6.31322 16.8159 6.31322 16.5909C6.31322 16.4681 6.3733 16.3454 6.47343 16.2635C8.07556 15.0975 10.0382 12.8677 10.7191 10.9038C11.2598 9.34907 10.9594 7.32382 9.07689 6.56691C8.53617 6.36234 7.9554 6.30097 7.39466 6.40326C6.33325 6.60783 5.43205 7.34428 5.0115 8.36713C4.47078 9.65593 3.64969 10.5969 2.58828 11.1697C2.38802 11.272 2.1477 11.2107 2.04757 11.0061C1.94743 10.8015 2.00751 10.556 2.20778 10.4537C2.20778 10.4537 2.22781 10.4537 2.22781 10.4333C3.129 9.96278 3.8099 9.16496 4.29054 8.01936C4.81123 6.75103 5.93272 5.83046 7.25447 5.56452C7.9554 5.42132 8.69638 5.50315 9.37728 5.76909C11.0395 6.42371 12.4213 8.38759 11.4801 11.1288C10.7591 13.2564 8.65633 15.6294 6.95407 16.8773C6.87397 16.9795 6.79386 17 6.71375 17ZM9.69771 16.3249C9.47742 16.3249 9.29718 16.1408 9.29718 15.9158C9.29718 15.8135 9.33723 15.7112 9.41734 15.6294C10.7191 14.2383 11.6803 12.7245 12.1209 11.3948C13.1623 8.34668 11.6403 5.9532 9.6176 5.13492C8.81654 4.82807 7.9554 4.74624 7.11428 4.88944C5.57224 5.17584 4.39067 6.05549 3.76985 7.34428L3.74982 7.38519C3.48948 7.93753 3.20911 8.53079 2.62834 8.7149C2.40805 8.75582 2.20778 8.61262 2.1477 8.40805C2.10765 8.20348 2.20778 8.01936 2.38802 7.93753C2.62834 7.85571 2.84863 7.42611 3.02887 7.03743L3.04889 6.99651C3.78988 5.46223 5.17171 4.43938 6.9741 4.09161C7.9554 3.9075 8.97675 3.98933 9.89797 4.37801C12.2811 5.31903 14.0635 8.1421 12.8619 11.6607C12.3813 13.0927 11.3399 14.7088 9.97808 16.1817C9.918 16.284 9.79784 16.3249 9.69771 16.3249ZM5.17171 16.2022C4.95142 16.2022 4.77118 16.0385 4.75115 15.8135C4.75115 15.6498 4.83126 15.5066 4.97144 15.4453C6.43338 14.627 8.67636 12.2131 9.29718 10.4128C9.75779 9.04221 9.17702 8.26485 8.53617 7.99891C7.67503 7.67159 6.73378 8.12165 6.41335 8.98084C6.01282 9.94232 4.81123 12.0085 3.24916 12.8677C3.04889 12.97 2.80858 12.9086 2.70844 12.704C2.60831 12.4995 2.66839 12.254 2.86866 12.1517C4.13033 11.4561 5.27184 9.63547 5.67237 8.65353C6.15301 7.36474 7.5749 6.73057 8.83657 7.22154C10.2985 7.79434 10.4988 9.41044 10.0782 10.6583C9.37728 12.704 7.01415 15.2407 5.35195 16.1613C5.31189 16.1817 5.23179 16.2022 5.17171 16.2022ZM3.99014 14.7702C3.76985 14.7702 3.58961 14.5861 3.58961 14.361C3.58961 14.2178 3.66972 14.0746 3.78988 13.9928C4.07025 13.8292 4.31057 13.6655 4.55089 13.4609C4.73112 13.3382 4.97144 13.3791 5.11163 13.5632C5.23179 13.7269 5.21176 13.9724 5.05155 14.1156C4.77118 14.3406 4.49081 14.5452 4.17038 14.7088C4.13033 14.7497 4.05022 14.7702 3.99014 14.7702ZM13.1222 14.2178C12.902 14.2178 12.7217 14.0337 12.7217 13.8087C12.7217 13.7269 12.7417 13.6655 12.7818 13.6041C13.0822 13.0722 13.3425 12.4995 13.5428 11.9062C14.8846 7.99891 12.8018 4.76669 10.1783 3.72339C9.11694 3.29379 7.97543 3.1915 6.87397 3.41653C5.25182 3.72339 3.8099 4.72578 2.92874 6.17823C2.80858 6.36234 2.54823 6.42371 2.36799 6.30097C2.18775 6.17823 2.12767 5.91229 2.24783 5.72818C3.24916 4.11207 4.87131 2.98693 6.71375 2.63916C7.97543 2.39368 9.27715 2.51642 10.4587 3.00739C13.4427 4.1939 15.8058 7.81479 14.3038 12.2131C14.0835 12.8472 13.8032 13.4609 13.4827 14.0542C13.4026 14.136 13.2624 14.2178 13.1222 14.2178ZM5.83259 13.2564C5.61229 13.2564 5.43205 13.0723 5.43205 12.8472C5.43205 12.7449 5.47211 12.6427 5.55221 12.5608C6.65367 11.3743 7.47476 10.0037 7.75513 9.20587C7.83524 9.0013 8.07556 8.89902 8.27582 8.98084C8.47609 9.06267 8.57622 9.2877 8.49612 9.49227C8.15566 10.3719 7.29452 11.8448 6.11296 13.1132C6.03285 13.195 5.93272 13.2359 5.83259 13.2564ZM15.5855 7.79434C15.4053 7.79434 15.2451 7.67159 15.205 7.48748C14.6242 5.11446 13.1623 3.31425 11.0395 2.41414C8.81654 1.47311 6.2932 1.65723 4.23046 2.92556C4.05022 3.06876 3.8099 3.02785 3.66972 2.84373C3.52953 2.65962 3.56958 2.41414 3.74982 2.27094C3.76985 2.25048 3.78988 2.25048 3.8099 2.23002C6.09293 0.818487 8.89665 0.613917 11.3599 1.65723C13.723 2.65962 15.3652 4.66441 15.986 7.28291C16.0461 7.50794 15.9059 7.73296 15.6856 7.77388C15.6456 7.79434 15.6055 7.79434 15.5855 7.79434Z" fill="currentcolor"/>
</svg>
