<?xml version="1.0" encoding="iso-8859-1"?>
<!-- Generator: Adobe Illustrator 19.0.0, SVG Export Plug-In . SVG Version: 6.00 Build 0)  -->
<svg version="1.1" id="Layer_1" xmlns="http://www.w3.org/2000/svg" xmlns:xlink="http://www.w3.org/1999/xlink" x="0px" y="0px"
	 viewBox="0 0 512 512" style="enable-background:new 0 0 512 512;" xml:space="preserve">
<g>
	<g>
		<path d="M264.084,0h-16.168h-66.471h-16.168H98.807H82.639H0v247.916v16.168v66.471v16.168v66.471v16.168V512h247.916h16.168
			h66.471h16.168h66.471h16.168H512V264.084v-16.168v-66.471v-16.168V98.807V82.639V0H264.084z M98.807,16.168h66.471v231.747
			H98.807V16.168z M16.168,16.168h66.471v231.747H16.168V16.168z M247.916,495.832H16.168v-66.471h231.747V495.832z
			 M247.916,413.193H16.168v-66.471h231.747V413.193z M247.916,330.555H16.168v-66.471h66.471h16.168h66.471h16.168h66.469V330.555z
			 M247.916,82.639v16.168v66.471v16.168v66.469h-66.471V16.168h66.471V82.639z M330.555,495.832h-66.471v-66.471v-16.168v-66.471
			v-16.168v-66.469h66.471V495.832z M413.193,495.832h-66.471V264.084h66.471V495.832z M495.832,495.832h-66.471V264.084h66.471
			V495.832z M495.832,247.916h-66.471h-16.168h-66.471h-16.168h-66.469v-66.471h231.747V247.916z M495.832,165.277H264.084V98.807
			h231.747V165.277z M495.832,82.639H264.084V16.168h231.747V82.639z"/>
	</g>
</g>
<g>
</g>
<g>
</g>
<g>
</g>
<g>
</g>
<g>
</g>
<g>
</g>
<g>
</g>
<g>
</g>
<g>
</g>
<g>
</g>
<g>
</g>
<g>
</g>
<g>
</g>
<g>
</g>
<g>
</g>
</svg>
