<svg width="18" height="18" viewBox="0 0 18 18" fill="none" xmlns="http://www.w3.org/2000/svg">
<g clip-path="url(#clip0)">
<path fill-rule="evenodd" clip-rule="evenodd" d="M9.74135 13.3191C9.65973 13.3154 9.57598 13.337 9.5023 13.3861C9.32535 13.5086 9.2818 13.748 9.40158 13.9276L11.8842 17.541C11.9393 17.6206 12.0205 17.6757 12.1115 17.6982C12.0204 17.6757 11.9393 17.6206 11.8842 17.541L9.40151 13.9276C9.28173 13.748 9.32529 13.5086 9.50223 13.3861C9.57593 13.337 9.65971 13.3154 9.74135 13.3191ZM17.3457 0.290964C17.3382 0.290538 17.3307 0.290323 17.3231 0.290323H0.679596C0.464543 0.290323 0.290323 0.464462 0.290323 0.679415V17.3151C0.290323 17.5032 0.42371 17.6601 0.601126 17.6963C0.423742 17.66 0.290389 17.5032 0.290389 17.3151V0.679418C0.290389 0.464465 0.464609 0.290326 0.679662 0.290326H17.3232C17.3307 0.290326 17.3382 0.290541 17.3457 0.290964ZM4.28231 11.3649C4.27648 11.3646 4.27062 11.3645 4.26473 11.3645L1.06894 11.3645H4.26479C4.27066 11.3645 4.2765 11.3646 4.28231 11.3649ZM9.03946 1.06851V6.02875C9.03946 6.23027 9.19258 6.39592 9.38892 6.41584C9.19261 6.39589 9.03952 6.23025 9.03952 6.02875V1.06851L9.03946 1.06851ZM16.9365 1.06851V8.80682H6.71198C6.49693 8.80682 6.32271 8.98096 6.32271 9.19591C6.32271 9.39743 6.47583 9.56307 6.67217 9.58299C6.47586 9.56304 6.32277 9.39741 6.32277 9.19591C6.32277 8.98096 6.49699 8.80682 6.71205 8.80682H16.9366V1.06851L16.9365 1.06851ZM16.9338 9.585V16.9315L16.9339 16.9315V9.585L16.9338 9.585ZM17.3231 0C17.6969 0 18.0036 0.302939 18 0.680931V17.3206C18 17.696 17.6956 18 17.3204 18H12.2054C11.982 18 11.7731 17.8905 11.6455 17.7063L11.6449 17.7054L9.15998 14.0887C8.9541 13.78 9.02719 13.3618 9.33703 13.1474L9.34124 13.1445C9.64988 12.9389 10.0681 13.0118 10.2826 13.3215L10.2832 13.3223L12.565 16.6412H16.6435V9.87532H6.71198C6.33671 9.87532 6.03238 9.57133 6.03238 9.19591C6.03238 8.82049 6.33671 8.51649 6.71198 8.51649H16.6462V1.35883H10.1083V6.02875C10.1083 6.40417 9.804 6.70817 9.42873 6.70817C9.05346 6.70817 8.74913 6.40417 8.74913 6.02875V1.35883H1.35919V11.0742H4.26473C4.63999 11.0742 4.94432 11.3782 4.94432 11.7536C4.94432 12.129 4.63999 12.433 4.26473 12.433H1.35919V16.6357H7.04409C7.41935 16.6357 7.72368 16.9397 7.72368 17.3151C7.72368 17.6906 7.41935 17.9946 7.04409 17.9946H0.679596C0.30433 17.9946 0 17.6906 0 17.3151V0.679415C0 0.303993 0.30433 0 0.679596 0H17.3231Z" fill="currentcolor"/>
</g>
<defs>
<clipPath id="clip0">
<rect width="18" height="18" fill="white"/>
</clipPath>
</defs>
</svg>
