<?xml version="1.0"?>
<svg xmlns="http://www.w3.org/2000/svg" id="Icons" viewBox="0 0 60 60" width="512" height="512"><path d="M58.605,21.455,51,16.64V9a2,2,0,0,0-2-2H45a2,2,0,0,0-2,2v2.574l-8.2-5.19a9.049,9.049,0,0,0-9.609,0l-3.472,2.2A10.994,10.994,0,1,0,4.239,19.658L1.4,21.456a3,3,0,0,0-.932,4.136,2.992,2.992,0,0,0,4.141.933L6,25.642V57a3,3,0,0,0,3,3H51a3,3,0,0,0,3-3V25.641l1.393.882a3,3,0,1,0,3.212-5.068ZM45,9h4v6.373l-4-2.532ZM2,11a9,9,0,1,1,9,9A9.011,9.011,0,0,1,2,11ZM3.534,24.836a1,1,0,0,1-.758.131.984.984,0,0,1-.621-.443,1,1,0,0,1,.309-1.379l3.648-2.3a10.958,10.958,0,0,0,2.377.86ZM32,58a1,1,0,0,1-1-1V42a1,1,0,0,0-2,0V57a1,1,0,0,1-1,1H27a1,1,0,0,1-1-1V46.22A2.985,2.985,0,0,0,27,44V36a1,1,0,0,0-2,0v8a1,1,0,0,1-2,0V37a5.006,5.006,0,0,1,5-5h4a5.006,5.006,0,0,1,5,5v7a1,1,0,0,1-2,0V36a1,1,0,0,0-2,0v8a2.985,2.985,0,0,0,1,2.22V57a1,1,0,0,1-1,1ZM30,30a5,5,0,1,1,5-5A5.006,5.006,0,0,1,30,30ZM52,57a1,1,0,0,1-1,1H35.816A2.966,2.966,0,0,0,36,57V47a3,3,0,0,0,3-3V37a7.007,7.007,0,0,0-4.6-6.566,7,7,0,1,0-8.808,0A7.007,7.007,0,0,0,21,37v7a3,3,0,0,0,3,3V57a2.966,2.966,0,0,0,.184,1H9a1,1,0,0,1-1-1V24.376l3.82-2.418a11,11,0,0,0,8.736-5.531l7.85-4.973a3,3,0,0,1,3.189,0L52,24.375Zm5.845-32.475a1.02,1.02,0,0,1-1.38.31L32.664,9.764a5,5,0,0,0-5.329,0L21.754,13.3A10.982,10.982,0,0,0,22,11c0-.074-.01-.147-.011-.221l4.275-2.7a7.033,7.033,0,0,1,7.471,0l23.8,15.069A1,1,0,0,1,57.845,24.525Z"/><path d="M8.293,15.707A1,1,0,0,0,9,16h.033a1,1,0,0,0,.719-.341l7-8a1,1,0,1,0-1.5-1.318l-6.3,7.2L6.707,11.293a1,1,0,0,0-1.414,1.414Z"/></svg>
