<svg width="18" height="18" viewBox="0 0 18 18" fill="none" xmlns="http://www.w3.org/2000/svg">
<path d="M16.744 2H1.256C0.92 2 0.606 2.13177 0.368 2.37301C0.13 2.61222 0 2.93252 0 3.27107V14.7269C0 15.4283 0.564 16 1.256 16H16.744C17.436 16 18 15.4283 18 14.7269V3.27107C18 2.56965 17.436 2 16.744 2ZM15.856 3.27107L9 10.2224L2.144 3.27107H15.856ZM1.256 4.17116L6.02 9L1.256 13.8288V4.17116ZM2.144 14.7289L6.908 9.90009L8.114 11.1225C8.352 11.3637 8.666 11.4955 9.002 11.4955C9.338 11.4955 9.652 11.3637 9.89 11.1225L11.096 9.90009L15.86 14.7289H2.144ZM11.98 9L16.744 4.17116V13.8288L11.98 9Z" fill="currentcolor"/>
</svg>
