<svg width="18" height="18" viewBox="0 0 18 18" fill="none" xmlns="http://www.w3.org/2000/svg">
<path fill-rule="evenodd" clip-rule="evenodd" d="M16.7598 2H1.24016C0.911247 2 0.595808 2.12906 0.363233 2.35879C0.130659 2.58853 0 2.90011 0 3.225C0 3.54989 0.130659 3.86147 0.363233 4.09121C0.595808 4.32094 0.911247 4.45 1.24016 4.45H16.7598C17.0888 4.45 17.4042 4.32094 17.6368 4.09121C17.8693 3.86147 18 3.54989 18 3.225C18 2.90011 17.8693 2.58853 17.6368 2.35879C17.4042 2.12906 17.0888 2 16.7598 2ZM16.7598 7.77498H1.24016C0.911247 7.77498 0.595808 7.90404 0.363233 8.13377C0.130659 8.36351 0 8.67509 0 8.99998C0 9.32487 0.130659 9.63645 0.363233 9.86619C0.595808 10.0959 0.911247 10.225 1.24016 10.225H16.7598C17.0888 10.225 17.4042 10.0959 17.6368 9.86619C17.8693 9.63645 18 9.32487 18 8.99998C18 8.67509 17.8693 8.36351 17.6368 8.13377C17.4042 7.90404 17.0888 7.77498 16.7598 7.77498ZM17.6368 13.9088C17.8693 14.1385 18 14.4501 18 14.775C18 15.0999 17.8693 15.4115 17.6368 15.6412C17.4042 15.871 17.0888 16 16.7598 16H1.24016C0.911247 16 0.595808 15.871 0.363233 15.6412C0.130659 15.4115 0 15.0999 0 14.775C0 14.4501 0.130659 14.1385 0.363233 13.9088C0.595808 13.6791 0.911247 13.55 1.24016 13.55H16.7598C17.0888 13.55 17.4042 13.6791 17.6368 13.9088Z" fill="currentcolor"/>
</svg>
