<svg width="18" height="18" viewBox="0 0 18 18" fill="none" xmlns="http://www.w3.org/2000/svg">
<path fill-rule="evenodd" clip-rule="evenodd" d="M15.741 1.00073H0.844253C0.696653 0.993872 0.549054 1.03538 0.419754 1.11463C0.148555 1.27999 -0.0140445 1.61037 0.000955428 1.95824C0.0159554 2.20628 0.112555 2.43716 0.269155 2.60595L2.47835 5.13266C2.59565 5.26645 2.69075 5.5289 2.69075 5.71828V14.3441C2.69075 15.0295 2.92865 15.6872 3.35015 16.173C3.77494 16.6553 4.35004 16.9308 4.94944 16.9308L15.741 16.9274C16.3404 16.9308 16.9158 16.6553 17.3373 16.173C17.7621 15.6872 18 15.0295 18 14.3441V3.58404C18 2.89859 17.7621 2.24093 17.3373 1.75514C16.9158 1.27313 16.3404 1.00073 15.741 1.00073ZM15.741 2.72294H2.80085C2.63525 2.72294 2.59595 2.83169 2.71295 2.96549L3.98434 4.41942C4.10164 4.55356 4.19644 4.816 4.19644 5.00538V14.3475C4.19644 14.5749 4.27474 14.7918 4.41634 14.9537C4.55794 15.1156 4.74784 15.2086 4.94944 15.2086L15.741 15.2052C15.9399 15.2086 16.1325 15.1156 16.2741 14.9537C16.4157 14.7918 16.494 14.5749 16.494 14.3475V3.58404C16.494 3.3535 16.4157 3.13634 16.2741 2.97441C16.1325 2.81248 15.9399 2.72294 15.741 2.72294ZM15.0182 5.19956C14.8766 5.03763 14.6867 4.94466 14.4851 4.94466H6.20246C6.00356 4.94466 5.81096 5.03763 5.67236 5.19956C5.53076 5.35805 5.44946 5.5783 5.44946 5.80576C5.44946 6.0363 5.53076 6.25346 5.67236 6.41539C5.81096 6.57732 6.00356 6.66686 6.20246 6.66686H14.4851C14.6867 6.66686 14.8766 6.57732 15.0182 6.41539C15.1598 6.25346 15.2381 6.0363 15.2381 5.80576C15.2381 5.5783 15.1598 5.35805 15.0182 5.19956ZM14.4851 8.10295C14.6867 8.10295 14.8766 8.19249 15.0182 8.35442C15.1598 8.51635 15.2381 8.7366 15.2381 8.96406C15.2381 9.19151 15.1598 9.41176 15.0182 9.57369C14.8766 9.73562 14.6867 9.82516 14.4851 9.82516H6.20246C6.00356 9.82516 5.81096 9.73562 5.67236 9.57369C5.53076 9.41176 5.44946 9.19151 5.44946 8.96406C5.44946 8.7366 5.53076 8.51635 5.67236 8.35442C5.81096 8.19249 6.00356 8.10295 6.20246 8.10295H14.4851ZM12.2561 11.5127C12.1178 11.3511 11.9249 11.2613 11.726 11.2613H6.20246C6.00356 11.2613 5.81096 11.3511 5.67236 11.5127C5.53076 11.6746 5.44946 11.8918 5.44946 12.1224C5.44946 12.3498 5.53076 12.5704 5.67236 12.7286C5.81096 12.8905 6.00356 12.9835 6.20246 12.9835H11.726C11.9249 12.9835 12.1178 12.8905 12.2561 12.7286C12.3977 12.5704 12.479 12.3498 12.479 12.1224C12.479 11.8918 12.3977 11.6746 12.2561 11.5127Z" fill="currentcolor"/>
</svg>
