<svg width="18" height="18" viewBox="0 0 26 22" fill="none" xmlns="http://www.w3.org/2000/svg">
    <path d="M23.4407 1.62234L16.8694 17.9857C16.8227 18.1022 16.7497 18.2065 16.656 18.2904C16.5623 18.3744 16.4505 18.4357 16.3292 18.4697C16.2079 18.5037 16.0804 18.5094 15.9565 18.4865C15.8326 18.4635 15.7157 18.4124 15.6148 18.3372L9.04351 13.4282C8.95655 13.364 8.88318 13.2834 8.82762 13.1909C8.77207 13.0983 8.73541 12.9958 8.71977 12.8891C8.70413 12.7824 8.7098 12.6737 8.73648 12.5693C8.76315 12.4648 8.81028 12.3666 8.87518 12.2803C8.94008 12.194 9.02145 12.1214 9.11463 12.0665C9.20781 12.0117 9.31095 11.9757 9.41813 11.9607C9.52531 11.9457 9.63441 11.9519 9.73916 11.979C9.84392 12.0061 9.94226 12.0536 10.0285 12.1187L15.7432 16.3877L21.2781 2.60431L3.21662 8.13892L6.70598 10.456C6.81836 10.5308 6.9105 10.6321 6.9743 10.7508C7.03809 10.8695 7.07157 11.002 7.07177 11.1367V15.7069L7.31245 15.4672C7.467 15.3164 7.67508 15.2324 7.89147 15.2335C8.10786 15.2345 8.31508 15.3206 8.46809 15.4731C8.6211 15.6255 8.70755 15.8319 8.70864 16.0474C8.70973 16.2629 8.62539 16.4702 8.47393 16.6241L6.8311 18.2605C6.71622 18.3749 6.56987 18.4528 6.41055 18.4843C6.25124 18.5159 6.0861 18.4997 5.93602 18.4377C5.78595 18.3758 5.65767 18.271 5.56741 18.1365C5.47715 18.002 5.42896 17.8438 5.42893 17.682V11.5746L0.866292 8.54479C0.736902 8.45903 0.634601 8.33846 0.571272 8.19708C0.507944 8.05571 0.486188 7.89934 0.508533 7.74615C0.530878 7.59295 0.596406 7.44921 0.697504 7.33163C0.798602 7.21405 0.93112 7.12746 1.07966 7.08191L22.4364 0.53659C22.5846 0.490875 22.7428 0.487936 22.8926 0.528113C23.0424 0.56829 23.1777 0.649938 23.2828 0.76359C23.388 0.877242 23.4586 1.01824 23.4865 1.17025C23.5145 1.32225 23.4986 1.47903 23.4407 1.62241V1.62234Z" fill="currentcolor" />
</svg>