<svg width="18" height="18" viewBox="0 0 18 18" fill="none" xmlns="http://www.w3.org/2000/svg">
<g clip-path="url(#clip0)">
<path fill-rule="evenodd" clip-rule="evenodd" d="M1.64985 0.647317C1.34564 1.01153 1.00782 1.41775 0.695207 1.79277C-0.12203 2.77321 -0.229439 4.16287 0.426991 5.25732L1.86346 7.65084C3.94076 11.113 6.83889 14.0111 10.3011 16.0884C11.1783 16.6147 12.0213 17.1211 12.6946 17.5249C13.789 18.1813 15.1787 18.0739 16.1591 17.2567L17.3046 16.302C17.7234 15.9534 17.961 15.4338 17.952 14.889C17.943 14.3441 17.6874 13.8329 17.2572 13.4987C16.2341 12.7031 14.7779 11.5696 13.87 10.864C13.153 10.3066 12.1335 10.3702 11.4915 11.0116L10.7469 11.7568L10.3929 11.5798C8.65277 10.7098 7.24211 9.29911 6.37207 7.55903L6.19506 7.20501L6.9403 6.46038C7.58233 5.81835 7.64533 4.79891 7.0879 4.08188L4.45318 0.694707C4.11897 0.264487 3.60774 0.00888096 3.06292 -0.000119456C2.51809 -0.00911987 1.99847 0.228497 1.64985 0.647317ZM1.61685 2.56141L2.57149 1.41535C2.6879 1.27615 2.8607 1.19694 3.04251 1.19994C3.22432 1.20294 3.39473 1.28815 3.50634 1.43156L6.14106 4.81871C6.32647 5.05752 6.30547 5.39773 6.09126 5.61134L5.04061 6.66259C4.8582 6.845 4.8126 7.12401 4.9284 7.35502C4.9284 7.35502 5.08141 7.66164 5.29862 8.09606C6.28447 10.0684 7.88354 11.6674 9.85583 12.6533C10.2903 12.8705 10.5969 13.0235 10.5969 13.0235C10.8279 13.1393 11.1069 13.0937 11.2893 12.9113L12.3405 11.8606C12.5542 11.6464 12.8944 11.6254 13.1332 11.8108L16.5203 14.4456C16.6637 14.5572 16.7489 14.7276 16.7519 14.9094C16.7549 15.0906 16.6758 15.264 16.5365 15.3804L15.3905 16.335C14.8025 16.8253 13.9684 16.8895 13.312 16.4959L10.9185 15.0594C7.62493 13.0835 4.8684 10.327 2.89251 7.03342L1.45604 4.6399C1.06242 3.98287 1.12662 3.14943 1.61685 2.56141Z" fill="currentcolor"/>
</g>
<defs>
<clipPath id="clip0">
<rect width="18" height="18" fill="white"/>
</clipPath>
</defs>
</svg>
