<svg height="512" viewBox="0 0 64 64" width="512" xmlns="http://www.w3.org/2000/svg"><g id="Outline"><path d="m61 48a1 1 0 0 0 1-1v-14a1 1 0 0 0 -1-1h-3v-10a1 1 0 0 0 -2 0v10h-3v-8a6 6 0 0 0 -12 0v5a1 1 0 0 0 2 0v-5a4 4 0 0 1 8 0v8h-13v-20h18v6a1 1 0 0 0 2 0v-6h2a1 1 0 0 0 .588-1.809l-4.7-3.416a1 1 0 0 0 -1.177 1.618l2.214 1.607h-19.85l6.9-5.015a5.229 5.229 0 0 1 6.058 0l1.449 1.054a1 1 0 0 0 1.177-1.617l-1.453-1.054a7.257 7.257 0 0 0 -8.412 0l-9.382 6.823a1 1 0 0 0 .588 1.809h2v16h-4a2.981 2.981 0 0 0 -2 .77v-13.77a1 1 0 0 1 2 0v10a1 1 0 0 0 2 0v-10a3 3 0 0 0 -6 0v1h-4a1 1 0 0 0 -2 0h-8a1 1 0 0 0 -2 0h-4v-1a3 3 0 0 0 -6 0v17a1 1 0 0 0 2 0v-17a1 1 0 0 1 2 0v41h-2v-20a1 1 0 0 0 -2 0v21a1 1 0 0 0 1 1h9.908a1 1 0 0 0 .842-.459l17.41-27.082a.994.994 0 0 1 .84-.459h4v2h-3a.977.977 0 0 0 -.154.031.972.972 0 0 0 -.8.747l-17.206 26.763a.994.994 0 0 1 -.84.459h-11a1 1 0 0 0 0 2h11a2.986 2.986 0 0 0 2.523-1.378l4.258-6.622h4.219a1 1 0 0 0 1-1v-4a1 1 0 0 0 -1-1h-.362l3.362-5.23v13.87a1 1 0 0 0 1 1h3v3.36a1 1 0 0 0 1 1h28a1 1 0 0 0 1-1v-10a1 1 0 0 0 -2 0v9h-26v-26h26v13a1 1 0 0 0 1 1zm-44.781 2-1.285 2h-2.934v-2zm-2.219-2v-26h8v19.006l-4.495 6.994zm10-26h4v9.675l-4 6.225zm4-4v2h-4v-2zm-6 0v2h-8v-2zm-10 0v2h-4v-2zm.362 38h-4.362v-34h4v26h-1a1 1 0 0 0 -1 1v4a1 1 0 0 0 1 1h2.648zm11.638-6v2h-1.934l1.286-2zm6 5.64v-15.981l2-3.112v19.093z"/><path d="m47 58a9 9 0 1 0 -4.566-16.747 1 1 0 0 0 1.017 1.723 7.017 7.017 0 1 1 -2.476 2.475 1 1 0 1 0 -1.722-1.017 8.988 8.988 0 0 0 7.747 13.566z"/><circle cx="53" cy="15" r="1"/><circle cx="57" cy="37" r="1"/><circle cx="41" cy="15" r="1"/><circle cx="37" cy="37" r="1"/><circle cx="57" cy="57" r="1"/><circle cx="37" cy="57" r="1"/></g></svg>