<svg width="18" height="18" viewBox="0 0 18 18" fill="none" xmlns="http://www.w3.org/2000/svg">
<g clip-path="url(#clip0)">
<path fill-rule="evenodd" clip-rule="evenodd" d="M18 3.12003L12.1481 0L6.29613 3.12003V7.03793L0 9.41472V18.0261H18V3.12003ZM0.195652 17.8304V17.8304H17.8043V3.23744L17.8043 3.23741V17.8304H13.0438H6.87565H0.195652ZM13.2395 7.30869L8.941 6.02101L7.48085 6.58179V3.84013L12.1481 1.33821L16.8153 3.84013V16.8425H13.2395V7.30869ZM13.0438 7.4543V17.0381H13.0439V7.45433L13.0438 7.4543ZM12.1481 1.11621L12.148 1.11619L7.28515 3.72299V6.86649L7.2852 6.86647V3.72302L12.1481 1.11621ZM15.5686 6.85772V4.3963H14.3839V6.85772H15.5686ZM15.5686 7.56536H14.3839V10.0268H15.5686V7.56536ZM15.5686 13.0169V10.5555H14.3839V13.0169H15.5686ZM15.5686 13.5712H14.3839V16.0326H15.5686V13.5712ZM7.93365 9.38441C8.02824 9.4349 8.10318 9.52042 8.12977 9.62664C8.18096 9.83109 8.05299 10.0611 7.84823 10.1122L2.06398 11.6201C2.03839 11.6456 1.9872 11.6456 1.9616 11.6456C1.91753 11.6456 1.87501 11.6379 1.83518 11.6236C1.87502 11.6379 1.91756 11.6457 1.96165 11.6457C1.98725 11.6457 2.03843 11.6457 2.06403 11.6201L7.84828 10.1122C8.05303 10.0611 8.181 9.83112 8.12982 9.62666C8.10322 9.52043 8.02826 9.4349 7.93365 9.38441ZM1.81189 10.6636L1.81084 10.6638C1.49453 10.7434 1.31235 11.085 1.38784 11.3865L1.38964 11.3928C1.46175 11.6448 1.68439 11.8413 1.96165 11.8413L1.96342 11.8413H1.96343C1.97654 11.8413 2.00946 11.8414 2.04496 11.8355C2.06722 11.8318 2.106 11.8235 2.14621 11.8009L7.89567 10.3021L7.89673 10.3018C8.21303 10.2222 8.3951 9.88067 8.31961 9.57914C8.24025 9.26217 7.89776 9.0804 7.59614 9.1557L1.81189 10.6636ZM7.92683 12.0012C8.0362 12.0598 8.11455 12.1632 8.12975 12.2846C8.15534 12.5146 8.00178 12.719 7.79703 12.7446L2.01277 13.6902H1.93599C1.87232 13.6902 1.80864 13.674 1.75186 13.644C1.80865 13.6741 1.87235 13.6902 1.93604 13.6902H2.01282L7.79708 12.7446C8.00183 12.719 8.15539 12.5146 8.1298 12.2846C8.1146 12.1632 8.03623 12.0598 7.92683 12.0012ZM2.02871 13.8859L7.82537 12.9382C8.14696 12.8957 8.36006 12.5846 8.32427 12.2629L8.32393 12.2603C8.28338 11.9363 7.97027 11.7218 7.6475 11.7576L1.85654 12.7043C1.53495 12.7469 1.32187 13.058 1.35766 13.3796L1.35799 13.3823C1.39745 13.6975 1.67177 13.8859 1.93604 13.8859H2.02871ZM7.927 14.4503C8.04676 14.5136 8.12976 14.6334 8.12976 14.7636C8.15535 14.9936 8.00178 15.1725 7.77144 15.198L1.98719 15.6836H1.96159C1.88332 15.6836 1.81391 15.6659 1.75538 15.6345C1.81392 15.6659 1.88335 15.6837 1.96164 15.6837H1.98723L7.77149 15.1981C8.00183 15.1725 8.1554 14.9936 8.1298 14.7636C8.1298 14.6334 8.04678 14.5136 7.927 14.4503ZM7.79306 15.3925C8.11981 15.3563 8.35778 15.0923 8.32533 14.7524C8.31832 14.4254 8.00475 14.1762 7.676 14.211L1.89408 14.6964L1.88888 14.6969C1.55878 14.7336 1.31928 15.0026 1.35766 15.3475L1.358 15.3502C1.39524 15.6477 1.62781 15.8793 1.96164 15.8793H1.99543L7.78786 15.3931L7.79306 15.3925ZM1.21031 16.8425V10.2475L8.39484 7.53295V16.8425H1.21031ZM1.01466 17.0381V10.1122L8.59045 7.24989V7.24984L1.01461 10.1122V17.0381H1.01466ZM9.57956 16.8425V7.46251L12.0548 8.21283V16.8425H9.57956ZM9.38391 17.0381H9.38386V7.19873L9.38391 7.19876V17.0381ZM15.3729 4.59195H15.3729V6.66206H14.5795V6.66204H15.3729V4.59195ZM15.3729 10.7512H15.3729V12.8213H14.5795V12.8212H15.3729V10.7512ZM15.3729 9.83112V7.76101H15.3729V9.8311H14.5795V9.83112H15.3729ZM15.3729 15.837V13.7669H15.3729V15.837H14.5795V15.837H15.3729Z" fill="currentcolor"/>
</g>
<defs>
<clipPath id="clip0">
<rect width="18" height="18" fill="white"/>
</clipPath>
</defs>
</svg>
