<svg width="19" height="19" viewBox="0 0 19 19" fill="none" xmlns="http://www.w3.org/2000/svg">
    <path fill-rule="evenodd" clip-rule="evenodd" d="M15.9639 15.7641C19.4868 12.2412 19.4868 6.55911 15.9639 3.0362C12.441 -0.486711 6.75887 -0.486724 3.23595 3.03617C-0.286972 6.55907 -0.286985 12.2412 3.23592 15.7641C6.75882 19.287 12.4409 19.287 15.9639 15.7641ZM14.6002 14.4004C11.8273 17.1733 7.3725 17.1732 4.59963 14.4004C1.84949 11.6502 1.8495 7.15001 4.59965 4.39988C7.37253 1.62702 11.8273 1.62703 14.6002 4.3999C17.373 7.17277 17.373 11.6275 14.6002 14.4004ZM9.5999 8.03637L11.1909 6.44538C11.5773 6.05899 12.1682 6.05899 12.5546 6.44538C12.941 6.83176 12.941 7.4227 12.5546 7.80908L10.9636 9.40008L12.5546 10.9911C12.941 11.3775 12.941 11.9684 12.5546 12.3548C12.1682 12.7412 11.5773 12.7412 11.1909 12.3548L9.59989 10.7638L8.0089 12.3548C7.62252 12.7412 7.03158 12.7412 6.6452 12.3548C6.25882 11.9684 6.25882 11.3774 6.6452 10.9911L8.23619 9.40007L6.6452 7.80908C6.25882 7.42269 6.25882 6.83175 6.64521 6.44537C7.03159 6.05899 7.62253 6.05899 8.00891 6.44537L9.5999 8.03637Z" fill="currentcolor" />
</svg>
