<svg width="18" height="18" viewBox="0 0 18 18" fill="none" xmlns="http://www.w3.org/2000/svg">
<path fill-rule="evenodd" clip-rule="evenodd" d="M7.09152 3C6.8729 3 6.66382 3.09104 6.51011 3.25211C6.35651 3.41308 6.27073 3.63077 6.27073 3.85714C6.27073 4.08351 6.35651 4.3012 6.51011 4.46217C6.66382 4.62325 6.8729 4.71429 7.09152 4.71429H8.17921V5.90437C6.37741 6.10179 4.69227 6.94177 3.40832 8.28729C2.12397 9.63323 1.32317 11.3989 1.13538 13.2857H0.820791C0.602168 13.2857 0.393088 13.3768 0.239387 13.5378C0.0857825 13.6988 0 13.9165 0 14.1429C0 14.3692 0.0857825 14.5869 0.239387 14.7479C0.393088 14.909 0.602168 15 0.820791 15H17.1792C17.3978 15 17.6069 14.909 17.7606 14.7479C17.9142 14.5869 18 14.3692 18 14.1429C18 13.9165 17.9142 13.6988 17.7606 13.5378C17.6069 13.3768 17.3978 13.2857 17.1792 13.2857H16.8646C16.6768 11.3989 15.876 9.63323 14.5917 8.28729C13.3077 6.94177 11.6226 6.10179 9.82079 5.90437V4.71429H10.9085C11.1271 4.71429 11.3362 4.62325 11.4899 4.46217C11.6435 4.3012 11.7293 4.08351 11.7293 3.85714C11.7293 3.63077 11.6435 3.41308 11.4899 3.25211C11.3362 3.09104 11.1271 3 10.9085 3H7.09152ZM4.75885 9.30601C5.91551 8.19071 7.42922 7.57192 8.99993 7.57143C10.5706 7.57192 12.0845 8.19071 13.2412 9.30601C14.325 10.3511 15.0212 11.7608 15.2125 13.2857H2.78746C2.97877 11.7608 3.67499 10.3511 4.75885 9.30601Z" fill="currentcolor"/>
</svg>
