<svg width="18" height="18" viewBox="0 0 18 18" fill="none" xmlns="http://www.w3.org/2000/svg">
<path d="M17.3362 14.7812L13.4564 11.5638C14.2702 10.3714 14.7622 8.93305 14.7622 7.38112C14.7622 3.31204 11.4502 0 7.38112 0C3.31204 0 0 3.31204 0 7.38112C0 11.4502 3.31204 14.7622 7.38112 14.7622C8.93305 14.7622 10.3714 14.2702 11.5638 13.4564L14.7812 17.3362C14.8569 17.4119 14.9326 17.5065 15.0272 17.5822C15.8032 18.2257 16.9387 18.1121 17.5822 17.3362C18.2257 16.5602 18.1121 15.4247 17.3362 14.7812ZM1.94937 7.40005C1.94937 4.39082 4.39082 1.94937 7.40005 1.94937C10.4093 1.94937 12.8507 4.39082 12.8507 7.40005C12.8507 10.4093 10.3903 12.8318 7.40005 12.8318C4.39082 12.8318 1.94937 10.3903 1.94937 7.40005Z" fill="currentcolor"/>
</svg>
