<svg width="18" height="18" viewBox="0 0 18 18" fill="none" xmlns="http://www.w3.org/2000/svg">
<path fill-rule="evenodd" clip-rule="evenodd" d="M9.01895 17.9811C8.84842 17.9811 8.65895 17.9811 8.45053 17.9621C8.26105 17.9432 8.07158 17.9243 7.88211 17.9054C7.54105 17.8675 7.25684 17.6972 7.04842 17.4511C6.84 17.205 6.70737 16.9022 6.70737 16.5615V15.6719C6.57474 15.6151 6.42316 15.5773 6.29053 15.5205C6.15789 15.4637 6.02526 15.4069 5.89263 15.3312L5.26737 15.9558C5.13474 16.0883 4.98316 16.183 4.83158 16.2397C4.66105 16.3155 4.49053 16.3344 4.32 16.3344C4.16842 16.3344 4.03579 16.3155 3.88421 16.2587C3.75158 16.2019 3.61895 16.1451 3.48632 16.0505C3.18316 15.8233 2.89895 15.5773 2.63368 15.3123C2.36842 15.0473 2.12211 14.7634 1.89474 14.4795C1.68632 14.2145 1.59158 13.8927 1.61053 13.571C1.62947 13.2492 1.76211 12.9464 2.00842 12.7003L2.63368 12.0757C2.57684 11.9432 2.50105 11.8107 2.46316 11.6782C2.40632 11.5457 2.34947 11.4132 2.31158 11.2618H1.42105C1.08 11.2618 0.776842 11.1293 0.530526 10.9211C0.28421 10.7129 0.132632 10.4101 0.0757894 10.0883C0.0378947 9.70978 0 9.33123 0 8.97161C0 8.61199 0.0189473 8.21451 0.0757894 7.85489C0.113684 7.5142 0.28421 7.23028 0.530526 7.02208C0.776842 6.81388 1.08 6.68139 1.42105 6.68139H2.31158C2.36842 6.5489 2.40632 6.4164 2.46316 6.28391C2.52 6.15142 2.57684 6.01893 2.65263 5.88643L2.02737 5.26183C1.78105 5.01577 1.64842 4.71293 1.62947 4.39117C1.61053 4.0694 1.70526 3.74763 1.91368 3.48265C2.14105 3.17981 2.40632 2.8959 2.65263 2.63091C2.91789 2.36593 3.20211 2.11987 3.50526 1.89274C3.61895 1.79811 3.75158 1.74132 3.90316 1.68454C4.05474 1.62776 4.18737 1.60883 4.33895 1.60883C4.50947 1.60883 4.69895 1.64669 4.85053 1.70347C5.02105 1.77918 5.15368 1.87382 5.28632 1.98738L5.91158 2.61199C6.04421 2.5552 6.17684 2.49842 6.30947 2.44164C6.44211 2.38486 6.57474 2.32808 6.72632 2.29022V1.40063C6.72632 1.05994 6.85895 0.757098 7.06737 0.511041C7.27579 0.264984 7.57895 0.113565 7.90105 0.0567823C8.26105 0.0189274 8.64 0 9.01895 0C9.39789 0 9.77684 0.0189275 10.1368 0.0757098C10.4779 0.113565 10.7621 0.283912 10.9705 0.529968C11.1789 0.776025 11.3116 1.07886 11.3116 1.41956V2.30915C11.4442 2.36593 11.5768 2.40379 11.7095 2.46057C11.8421 2.51735 11.9747 2.57413 12.1074 2.64984L12.7326 2.02524C12.8653 1.89274 13.0168 1.79811 13.1684 1.74132C13.3389 1.66562 13.5095 1.64669 13.68 1.64669C13.8316 1.64669 13.9832 1.66562 14.1158 1.7224C14.2484 1.77918 14.3811 1.83596 14.5137 1.9306C14.8168 2.15773 15.1011 2.40379 15.3663 2.66877C15.6316 2.93375 15.8779 3.21767 16.1053 3.5205C16.3137 3.78549 16.4084 4.10726 16.3895 4.42902C16.3705 4.75079 16.2379 5.05363 15.9916 5.29968L15.3663 5.92429C15.4232 6.05678 15.4989 6.18927 15.5368 6.32177C15.5937 6.45426 15.6505 6.58675 15.6884 6.73817H16.5789C16.92 6.73817 17.2232 6.87066 17.4695 7.07886C17.7158 7.28707 17.8674 7.58991 17.9242 7.91167C17.9621 8.29022 18 8.64984 18 9.02839C18 9.40694 17.9811 9.78549 17.9242 10.1451C17.8863 10.4858 17.7158 10.7697 17.4695 10.9779C17.2232 11.1861 16.92 11.3186 16.5789 11.3186H15.6884C15.6316 11.4511 15.5937 11.6025 15.5368 11.735C15.48 11.8675 15.4232 12 15.3663 12.1325L15.9916 12.7571C16.2379 13.0032 16.3705 13.306 16.3895 13.6278C16.4084 13.9495 16.3137 14.2713 16.1053 14.5363C15.8779 14.8391 15.6316 15.123 15.3663 15.3691C15.1011 15.6341 14.8168 15.8801 14.5137 16.1073C14.4 16.2019 14.2674 16.2776 14.1158 16.3155C13.9642 16.3722 13.8316 16.3912 13.68 16.3912C13.5095 16.3912 13.32 16.3533 13.1684 16.2965C12.9979 16.2208 12.8653 16.1262 12.7326 16.0126L12.1074 15.388C11.9747 15.4448 11.8421 15.5205 11.7095 15.5584C11.5768 15.6151 11.4442 15.6719 11.2926 15.7098V16.5994C11.2926 16.9401 11.16 17.2429 10.9516 17.489C10.7432 17.735 10.44 17.8864 10.1179 17.9432C9.94737 17.9621 9.75789 17.9811 9.54947 18C9.37895 17.9811 9.18947 17.9811 9.01895 17.9811ZM5.87368 13.7603C5.96842 13.7603 6.0821 13.7792 6.19579 13.7981C6.29053 13.817 6.40421 13.8549 6.49895 13.9117C6.63158 13.9685 6.76421 14.0442 6.91579 14.1009C7.06737 14.1577 7.2 14.2145 7.33263 14.2524C7.61684 14.347 7.84421 14.5174 8.01474 14.7445C8.18526 14.9716 8.28 15.2555 8.28 15.5394V16.3912C8.52632 16.4101 8.79158 16.429 9.03789 16.429C9.28421 16.429 9.54947 16.4101 9.79579 16.3912V15.5394C9.79579 15.2555 9.89053 14.9716 10.0611 14.7445C10.2316 14.5174 10.4589 14.347 10.7432 14.2524C10.8758 14.2145 11.0274 14.1577 11.16 14.1009C11.2926 14.0442 11.4253 13.9874 11.5768 13.9117C11.8421 13.7792 12.1263 13.7413 12.3916 13.7792C12.6758 13.817 12.9221 13.9495 13.1305 14.1577L13.7368 14.7634C13.9263 14.612 14.1158 14.4416 14.3053 14.2524C14.4758 14.082 14.6463 13.8927 14.8168 13.6845L14.2105 13.0789C14.0021 12.8707 13.8695 12.6057 13.8316 12.3407C13.7937 12.0757 13.8316 11.7729 13.9642 11.5268C14.04 11.3943 14.0968 11.2618 14.1537 11.1104C14.2105 10.959 14.2674 10.8265 14.3053 10.694C14.4 10.4101 14.5705 10.183 14.7979 10.0126C15.0253 9.84227 15.3095 9.74763 15.5937 9.74763H16.4463C16.4653 9.50158 16.4842 9.23659 16.4842 8.99054C16.4842 8.74448 16.4653 8.4795 16.4463 8.23344H15.5937C15.3095 8.23344 15.0253 8.1388 14.7979 7.96845C14.5705 7.79811 14.4 7.57098 14.3053 7.28707C14.2674 7.13565 14.2105 7.00315 14.1537 6.85174C14.0968 6.71924 14.04 6.58675 13.9642 6.43533C13.8316 6.17035 13.7937 5.88643 13.8316 5.60252C13.8695 5.31861 14.0021 5.07256 14.2105 4.86435L14.8168 4.25868C14.6463 4.05047 14.4947 3.88013 14.3053 3.69085C14.1347 3.5205 13.9453 3.35016 13.7368 3.17981L13.1305 3.78549C12.9221 3.99369 12.6568 4.12618 12.3916 4.16404C12.1074 4.20189 11.8232 4.16404 11.5768 4.03155C11.4442 3.95584 11.3116 3.89905 11.16 3.84227C11.0274 3.78549 10.8758 3.72871 10.7242 3.69085C10.44 3.59621 10.2126 3.42587 10.0421 3.19874C9.87158 2.97161 9.77684 2.6877 9.77684 2.40379V1.55205C9.53053 1.53312 9.26526 1.5142 9.01895 1.5142C8.77263 1.5142 8.50737 1.53312 8.26105 1.55205V2.40379C8.26105 2.6877 8.16632 2.97161 7.99579 3.19874C7.82526 3.42587 7.59789 3.59621 7.31368 3.69085C7.18105 3.72871 7.02947 3.78549 6.87789 3.84227C6.74526 3.89905 6.59368 3.95584 6.46105 4.03155C6.19579 4.16404 5.91158 4.20189 5.64632 4.16404C5.36211 4.12618 5.09684 3.99369 4.90737 3.78549L4.30105 3.17981C4.11158 3.35016 3.92211 3.50158 3.73263 3.69085C3.56211 3.8612 3.39158 4.05047 3.22105 4.25868L3.82737 4.86435C4.03579 5.07256 4.16842 5.33754 4.20632 5.60252C4.24421 5.86751 4.20632 6.17035 4.07368 6.4164C3.99789 6.5489 3.94105 6.68139 3.88421 6.83281C3.82737 6.9653 3.77053 7.11672 3.73263 7.26814C3.63789 7.55205 3.46737 7.77918 3.24 7.94953C3.01263 8.11987 2.72842 8.21451 2.44421 8.21451H1.59158C1.57263 8.46057 1.55368 8.72555 1.55368 8.97161C1.55368 9.21767 1.57263 9.48265 1.59158 9.72871H2.44421C2.72842 9.72871 3.01263 9.82334 3.24 9.99369C3.46737 10.164 3.63789 10.3912 3.73263 10.6751C3.77053 10.8265 3.82737 10.959 3.88421 11.1104C3.94105 11.2429 3.99789 11.3754 4.07368 11.5268C4.20632 11.7918 4.24421 12.0757 4.20632 12.3596C4.16842 12.6435 4.03579 12.8896 3.82737 13.0978L3.22105 13.7035C3.37263 13.8927 3.54316 14.082 3.73263 14.2713C3.90316 14.4416 4.09263 14.612 4.30105 14.7823L4.90737 14.1767C5.04 14.0442 5.19158 13.9495 5.34316 13.8927C5.51368 13.7981 5.68421 13.7603 5.87368 13.7603ZM9.01895 12.6246C9.51158 12.6246 9.98526 12.53 10.4211 12.3407C10.8568 12.1514 11.2547 11.8864 11.5958 11.5457C11.9368 11.205 12.2021 10.8076 12.3916 10.3722C12.5811 9.93691 12.6758 9.46372 12.6758 8.97161C12.6758 8.4795 12.5811 8.00631 12.3916 7.57098C12.2021 7.13565 11.9368 6.73817 11.5958 6.39748C11.2547 6.05678 10.8568 5.7918 10.4211 5.60252C9.98526 5.41325 9.51158 5.31861 9.01895 5.31861C8.52632 5.31861 8.05263 5.41325 7.61684 5.60252C7.18105 5.7918 6.78316 6.05678 6.44211 6.39748C6.10105 6.73817 5.83579 7.13565 5.64632 7.57098C5.45684 8.00631 5.36211 8.4795 5.36211 8.97161C5.36211 9.46372 5.45684 9.93691 5.64632 10.3722C5.83579 10.8076 6.10105 11.205 6.44211 11.5457C6.78316 11.8864 7.18105 12.1514 7.61684 12.3407C8.05263 12.53 8.52632 12.6246 9.01895 12.6246ZM9.01895 6.88959C8.73474 6.88959 8.46947 6.94637 8.22316 7.04101C7.97684 7.13565 7.74947 7.30599 7.54105 7.49527C7.35158 7.68454 7.18105 7.9306 7.08632 8.17666C6.99158 8.42271 6.93474 8.6877 6.93474 8.97161C6.93474 9.25552 6.99158 9.5205 7.08632 9.76656C7.18105 10.0126 7.35158 10.2397 7.54105 10.4479C7.73053 10.6372 7.97684 10.8076 8.22316 10.9022C8.46947 10.9968 8.73474 11.0536 9.01895 11.0536C9.30316 11.0536 9.56842 10.9968 9.81474 10.9022C10.0611 10.8076 10.2884 10.6372 10.4968 10.4479C10.6863 10.2397 10.8568 10.0126 10.9516 9.76656C11.0463 9.5205 11.1032 9.25552 11.1032 8.97161C11.1032 8.6877 11.0463 8.42271 10.9516 8.17666C10.8568 7.9306 10.6863 7.70347 10.4968 7.49527C10.2884 7.28707 10.0611 7.13565 9.81474 7.04101C9.56842 6.94637 9.30316 6.88959 9.01895 6.88959Z" fill="currentcolor"/>
</svg>
