<svg width="15" height="15" viewBox="0 0 15 15" fill="none" xmlns="http://www.w3.org/2000/svg">
<path d="M1.95452 3.73857C1.07805 3.73857 0.367537 3.08127 0.367537 2.27046C0.367537 1.45964 1.07805 0.802349 1.95452 0.802349C2.83099 0.802349 3.5415 1.45964 3.5415 2.27046C3.5415 3.08127 2.83099 3.73857 1.95452 3.73857Z" fill="currentColor"/>
<path d="M0.734801 2.27044C0.742148 2.73262 1.04338 3.15742 1.5136 3.32395C2.00218 3.49726 2.56424 3.35793 2.89854 2.9875C3.22181 2.62727 3.26222 2.10392 3.00874 1.69951C2.75527 1.2985 2.24831 1.07421 1.75238 1.15577C1.16461 1.25092 0.745821 1.7233 0.734801 2.27044C0.727453 2.70884 -0.00726104 2.70884 8.60691e-05 2.27044C0.0147803 1.49901 0.532754 0.822724 1.3189 0.561047C2.06463 0.312964 2.94629 0.544055 3.44957 1.10819C3.97489 1.69611 4.06306 2.54571 3.62958 3.205C3.19977 3.86429 2.36587 4.18714 1.55401 4.04441C0.646635 3.88468 0.0147803 3.10985 8.60691e-05 2.27384C-0.00726104 1.83205 0.727453 1.83205 0.734801 2.27044Z" fill="currentColor"/>
<path d="M1.95452 8.89054C1.07805 8.89054 0.367536 8.23325 0.367536 7.42243C0.367536 6.61162 1.07805 5.95432 1.95452 5.95432C2.83099 5.95432 3.5415 6.61162 3.5415 7.42243C3.5415 8.23325 2.83099 8.89054 1.95452 8.89054Z" fill="currentColor"/>
<path d="M0.734802 7.42244C0.742149 7.88463 1.04338 8.30943 1.5136 8.47595C2.00218 8.64927 2.56424 8.50993 2.89854 8.13951C3.22181 7.77928 3.26222 7.25592 3.00874 6.85151C2.75527 6.4505 2.24831 6.22621 1.75238 6.30777C1.16461 6.39952 0.745822 6.8753 0.734802 7.42244C0.727455 7.86084 -0.00725985 7.86084 8.72612e-05 7.42244C0.0147815 6.65101 0.532755 5.97472 1.3189 5.71305C2.06463 5.46496 2.94629 5.69606 3.44957 6.26019C3.97489 6.84811 4.06306 7.69771 3.62958 8.357C3.19977 9.01629 2.36587 9.33914 1.55401 9.19641C0.646636 9.03668 0.0147815 8.26185 8.72612e-05 7.42584C-0.00725985 6.98405 0.727455 6.98405 0.734802 7.42244Z" fill="currentColor"/>
<path d="M1.95452 14.1819C1.07805 14.1819 0.367536 13.5246 0.367536 12.7138C0.367536 11.903 1.07805 11.2457 1.95452 11.2457C2.83099 11.2457 3.5415 11.903 3.5415 12.7138C3.5415 13.5246 2.83099 14.1819 1.95452 14.1819Z" fill="currentColor"/>
<path d="M0.734802 12.7137C0.742149 13.1759 1.04338 13.6007 1.5136 13.7673C2.00218 13.9406 2.56424 13.8012 2.89854 13.4308C3.22181 13.0706 3.26222 12.5472 3.00874 12.1428C2.75527 11.7418 2.24831 11.5175 1.75238 11.5991C1.16461 11.6908 0.745822 12.1666 0.734802 12.7137C0.727455 13.1521 -0.00725985 13.1521 8.72612e-05 12.7137C0.0147815 11.9423 0.532755 11.266 1.3189 11.0044C2.06463 10.7563 2.94629 10.9874 3.44957 11.5515C3.97489 12.1394 4.06306 12.989 3.62958 13.6483C3.19977 14.3076 2.36587 14.6304 1.55401 14.4877C0.646636 14.328 0.0147815 13.5532 8.72612e-05 12.7171C-0.00725985 12.2754 0.727455 12.2754 0.734802 12.7137Z" fill="currentColor"/>
<path d="M7.77703 3.75891C6.90056 3.75891 6.19004 3.10161 6.19004 2.2908C6.19004 1.47999 6.90056 0.822691 7.77703 0.822691C8.6535 0.822691 9.36401 1.47999 9.36401 2.2908C9.36401 3.10161 8.6535 3.75891 7.77703 3.75891Z" fill="currentColor"/>
<path d="M6.55743 2.29116C6.56478 2.75334 6.86601 3.17814 7.33623 3.34466C7.82481 3.51798 8.38687 3.37864 8.72117 3.00822C9.04444 2.64799 9.08485 2.12463 8.83137 1.72022C8.5779 1.31921 8.07094 1.09492 7.57501 1.17648C6.98357 1.27164 6.56478 1.74401 6.55743 2.29116C6.55008 2.72955 5.81537 2.72955 5.82272 2.29116C5.83741 1.51972 6.35539 0.843438 7.14153 0.581761C7.88727 0.333678 8.76892 0.564769 9.2722 1.1289C9.79752 1.71683 9.88569 2.56643 9.45221 3.22571C9.0224 3.885 8.1885 4.20785 7.37664 4.06512C6.46927 3.90539 5.83741 3.13056 5.82272 2.29455C5.81537 1.85276 6.55008 1.85276 6.55743 2.29116Z" fill="currentColor"/>
<path d="M7.77703 8.9109C6.90056 8.9109 6.19004 8.25361 6.19004 7.44279C6.19004 6.63198 6.90056 5.97468 7.77703 5.97468C8.6535 5.97468 9.36401 6.63198 9.36401 7.44279C9.36401 8.25361 8.6535 8.9109 7.77703 8.9109Z" fill="currentColor"/>
<path d="M6.55743 7.44279C6.56478 7.90497 6.86601 8.32977 7.33623 8.49629C7.82481 8.66961 8.38687 8.53027 8.72117 8.15985C9.04444 7.79962 9.08485 7.27626 8.83137 6.87186C8.5779 6.47084 8.07094 6.24655 7.57501 6.32811C6.98357 6.42327 6.56478 6.89564 6.55743 7.44279C6.55008 7.88118 5.81537 7.88118 5.82272 7.44279C5.83741 6.67135 6.35539 5.99507 7.14153 5.73339C7.88727 5.48531 8.76892 5.7164 9.2722 6.28053C9.79752 6.86846 9.88569 7.71806 9.45221 8.37735C9.0224 9.03664 8.1885 9.35948 7.37664 9.21675C6.46927 9.05703 5.83741 8.28219 5.82272 7.44618C5.81537 7.00439 6.55008 7.00439 6.55743 7.44279Z" fill="currentColor"/>
<path d="M7.77703 14.2022C6.90056 14.2022 6.19004 13.5449 6.19004 12.7341C6.19004 11.9233 6.90056 11.266 7.77703 11.266C8.6535 11.266 9.36401 11.9233 9.36401 12.7341C9.36401 13.5449 8.6535 14.2022 7.77703 14.2022Z" fill="currentColor"/>
<path d="M6.55743 12.7341C6.56478 13.1963 6.86601 13.6211 7.33623 13.7876C7.82481 13.9609 8.38687 13.8216 8.72117 13.4512C9.04444 13.0909 9.08485 12.5676 8.83137 12.1632C8.5779 11.7622 8.07094 11.5379 7.57501 11.6194C6.98357 11.7112 6.56478 12.187 6.55743 12.7341C6.55008 13.1725 5.81537 13.1725 5.82272 12.7341C5.83741 11.9627 6.35539 11.2864 7.14153 11.0247C7.88727 10.7766 8.76892 11.0077 9.2722 11.5719C9.79752 12.1598 9.88569 13.0094 9.45221 13.6653C9.0224 14.3246 8.1885 14.6474 7.37664 14.5047C6.46927 14.345 5.83741 13.5701 5.82272 12.7341C5.81537 12.2957 6.55008 12.2957 6.55743 12.7341Z" fill="currentColor"/>
</svg>
