<svg width="18" height="18" viewBox="0 0 18 18" fill="none" xmlns="http://www.w3.org/2000/svg">
<g clip-path="url(#clip0)">
<path fill-rule="evenodd" clip-rule="evenodd" d="M8.72886 5.11818V1.40129H9.37167V5.11818H8.72886ZM12.1035 5.85458C12.1035 5.23607 11.7416 4.70099 11.2182 4.44989H16.699V16.6988H1.40151V4.44989H6.88229C6.35895 4.70099 5.99701 5.23607 5.99701 5.85458C5.99701 6.71354 6.69505 7.41158 7.55401 7.41158H10.5465C11.4055 7.41158 12.1035 6.71354 12.1035 5.85458ZM7.32756 0.700646V3.0486H0.700646C0.313537 3.0486 0 3.36214 0 3.74925V17.3995C0 17.7866 0.313536 18.1001 0.700646 18.1001H17.3995C17.7866 18.1001 18.1001 17.7866 18.1001 17.3995V3.74925C18.1001 3.36214 17.7866 3.0486 17.3995 3.0486H10.773V0.700646C10.773 0.313536 10.4594 0 10.0723 0H8.02821C7.6411 0 7.32756 0.313537 7.32756 0.700646ZM14.4761 8.42777H3.64411C3.257 8.42777 2.94347 8.74131 2.94347 9.12842C2.94347 9.51552 3.257 9.82906 3.64411 9.82906H14.4761C14.8632 9.82906 15.1767 9.51552 15.1767 9.12842C15.1767 8.74131 14.8632 8.42777 14.4761 8.42777ZM14.4761 11.0786H3.64411C3.257 11.0786 2.94347 11.3921 2.94347 11.7792C2.94347 12.1664 3.257 12.4799 3.64411 12.4799H14.4761C14.8632 12.4799 15.1767 12.1664 15.1767 11.7792C15.1767 11.3921 14.8632 11.0786 14.4761 11.0786ZM14.4761 13.7294H3.64411C3.257 13.7294 2.94347 14.043 2.94347 14.4301C2.94347 14.8172 3.257 15.1307 3.64411 15.1307H14.4761C14.8632 15.1307 15.1767 14.8172 15.1767 14.4301C15.1767 14.043 14.8632 13.7294 14.4761 13.7294Z" fill="currentcolor"/>
</g>
<defs>
<clipPath id="clip0">
<rect width="18" height="18" fill="white"/>
</clipPath>
</defs>
</svg>
