<svg id="Capa_1" enable-background="new 0 0 512 512" height="512" viewBox="0 0 512 512" width="512" xmlns="http://www.w3.org/2000/svg"><g><g><path d="m502 103.609h-67.571c-5.523 0-10 4.478-10 10v39.508h-50.144v-72.472l60.667-57.375c2.229-2.108 5.146-3.27 8.215-3.27h58.833c5.523 0 10-4.478 10-10s-4.477-10-10-10h-58.833c-8.201 0-15.999 3.104-21.957 8.738l-133.565 126.318c-3.627 3.431-8.374 5.319-13.367 5.319h-120.244c-7.743 0-15.184 2.845-20.951 8.009l-129.753 116.166c-4.114 3.684-4.464 10.006-.78 14.12 3.632 4.059 10.061 4.415 14.121.78l49.329-44.164v84.458 40.43h-56c-5.523 0-10 4.478-10 10v131.826c0 5.522 4.477 10 10 10h70c2.163 0 4.268-.701 5.999-1.999l165.365-123.97h127.379c2.487 0 4.885-.927 6.726-2.6l29.484-26.799c4.087-3.715 4.389-10.04.674-14.127-3.714-4.086-10.04-4.389-14.126-.674l-26.624 24.199h-126.845c-2.163 0-4.268.701-5.998 1.999l-165.366 123.971h-56.668v-111.826h56c5.523 0 10-4.478 10-10v-40.43h59.851c5.523 0 10-4.478 10-10v-38.099h130.149c5.523 0 10-4.478 10-10v-49.021h68.106c5.49 0 10.179-4.65 10.179-10.145v-39.363h60.144c5.523 0 10-4.478 10-10v-39.508h47.571v135.968l-25.907 23.547c-4.087 3.715-4.389 10.039-.674 14.126 3.714 4.089 10.039 4.389 14.126.675l29.181-26.522c2.085-1.896 3.274-4.583 3.274-7.4v-150.393c0-5.522-4.477-10-10-10zm-356.149 158.037c-5.523 0-10 4.478-10 10v38.099h-49.851v-92.363l60.424-54.097c2.095-1.876 4.797-2.909 7.61-2.909h52.182v101.271h-60.365zm208.434-59.021h-68.285c-5.523 0-10 4.478-10 10v49.021h-49.784v-101.271h48.063c10.125 0 19.752-3.831 27.109-10.788l52.897-50.027v63.558z"/><path d="m451.14 316.18c-2.062-5.035-8.041-7.503-13.06-5.41-5.029 2.097-7.499 8.016-5.41 13.061 2.086 5.038 8.033 7.473 13.06 5.399s7.505-8.024 5.41-13.05z"/></g></g></svg>