<svg id="Capa_1" enable-background="new 0 0 512 512" height="512" viewBox="0 0 512 512" width="512" xmlns="http://www.w3.org/2000/svg"><g><path d="m119.167 439.925-31.471-16.567-16.581-31.473c-1.729-3.282-5.134-5.338-8.844-5.339-.001 0-.002 0-.003 0-3.709 0-7.113 2.053-8.844 5.333l-16.608 31.476-31.474 16.57c-3.285 1.729-5.342 5.136-5.342 8.848s2.057 7.12 5.342 8.849l31.474 16.568 16.608 31.476c1.731 3.281 5.135 5.333 8.844 5.333h.002c3.711-.001 7.116-2.057 8.845-5.339l16.581-31.473 31.471-16.566c3.285-1.729 5.342-5.136 5.342-8.849s-2.057-7.118-5.342-8.847zm-43.531 18.011c-1.787.94-3.248 2.401-4.189 4.188l-9.186 17.436-9.203-17.441c-.941-1.785-2.401-3.243-4.186-4.182l-17.405-9.162 17.405-9.163c1.785-.939 3.245-2.397 4.186-4.182l9.203-17.441 9.186 17.436c.941 1.787 2.402 3.247 4.189 4.188l17.405 9.163z"/><path d="m361.707 394.55c19.567-21.011 32.301-48.453 34.612-78.766h.551c19.239 0 34.891-15.643 34.891-34.871 0-18.546-14.539-33.753-32.814-34.832l6.835-33.285 2.587-.8 34 10.519c3.547 1.097 7.408.14 10.031-2.486s3.576-6.489 2.475-10.034l-10.549-33.959 10.549-33.959c1.102-3.546.148-7.41-2.477-10.036s-6.488-3.581-10.035-2.482l-20.796 6.45 5.805-28.292c15.448-1.329 27.614-14.301 27.614-30.064v-5.195c0-16.659-13.561-30.213-30.229-30.213h-77.104v-8.604c-.002-17.998-14.652-32.641-32.66-32.641h-97.699c-18.008 0-32.659 14.643-32.659 32.641v8.604h-77.105c-16.653 0-30.201 13.554-30.201 30.213v5.195c0 15.773 12.17 28.751 27.617 30.066l10.158 49.453h-15.768c-5.523 0-10 4.477-10 10s4.477 10 10 10h19.875l14.155 68.909c-18.275 1.079-32.813 16.287-32.813 34.832 0 19.228 15.652 34.871 34.891 34.871h.551c2.452 32.166 16.635 61.104 38.266 82.55l-19.656 89.151c-.593 2.713-2.399 10.969 2.678 17.278 5.021 6.237 13.066 6.237 15.709 6.237h190.991c2.65 0 10.717 0 15.738-6.261 5.077-6.331 3.243-14.577 2.641-17.286zm62.597-215.547 5.838 18.794-18.817-5.822c-1.925-.596-3.986-.596-5.911 0l-10.805 3.343c-.245.065-.485.14-.723.224l-7.304 2.26 5.827-18.806c.598-1.928.598-3.992 0-5.92l-5.823-18.791 18.772 5.822c.007.002.015.005.023.007l.027.008c.016.005.032.006.048.011.295.09.596.17.904.234.115.024.229.033.344.053.114.019.227.037.341.052.448.06.894.101 1.335.101.472 0 .936-.042 1.395-.107.046-.007.092-.011.139-.018.451-.071.892-.174 1.324-.304.031-.009.063-.012.094-.021l18.806-5.833-5.833 18.779c-.601 1.933-.601 4.002-.001 5.934zm-219.67-145.362c0-6.97 5.679-12.641 12.659-12.641h97.699c6.98 0 12.659 5.671 12.659 12.641v8.604h-123.017zm-107.305 44.012v-5.195c0-5.631 4.576-10.213 10.201-10.213h317.226c5.641 0 10.229 4.582 10.229 10.213v5.195c0 5.616-4.589 10.185-10.229 10.185h-5.523c-.033 0-.065 0-.097 0h-305.955c-.035 0-.07 0-.105 0h-5.547c-5.624-.001-10.2-4.569-10.2-10.185zm23.224 203.261c0-8.215 6.68-14.899 14.891-14.899h10.116c.015 0 .03.002.045.002.013 0 .026-.002.039-.002h75.69c5.523 0 10-4.477 10-10s-4.477-10-10-10h-67.564l-14.141-68.842h22.256c4.252 13.374 16.791 23.092 31.563 23.092 18.257 0 33.111-14.845 33.111-33.092 0-18.248-14.854-33.093-33.111-33.093-14.771 0-27.311 9.719-31.563 23.093h-26.364l-10.134-49.335h281.543l-6.138 29.915-26.415-8.193c-3.545-1.099-7.408-.145-10.033 2.479s-3.58 6.486-2.481 10.032l10.525 33.966-10.525 33.966c-1.099 3.544-.144 7.405 2.479 10.029 1.904 1.905 4.46 2.931 7.074 2.931.987 0 1.983-.146 2.955-.447l9.611-2.973-5.436 26.472h-67.677c-5.523 0-10 4.477-10 10s4.477 10 10 10h75.803c.013 0 .026.002.039.002.015 0 .03-.002.045-.002h10.116c8.211 0 14.891 6.684 14.891 14.899 0 8.2-6.68 14.871-14.891 14.871h-261.428c-8.211 0-14.891-6.671-14.891-14.871zm59.783-113.742c0-7.219 5.882-13.093 13.111-13.093s13.111 5.874 13.111 13.093-5.881 13.092-13.111 13.092-13.111-5.872-13.111-13.092zm-24.263 148.613h220.168c-5.077 56.224-52.512 100.432-110.098 100.432-57.571 0-104.994-44.209-110.07-100.432zm18.239 175.215 17.249-78.236c21.156 14.772 46.872 23.453 74.582 23.453 29.441 0 56.633-9.79 78.497-26.278l18.023 81.061z"/><path d="m506.655 400.852-31.499-16.567-16.579-31.445c-1.73-3.282-5.136-5.336-8.846-5.336s-7.115 2.054-8.846 5.336l-16.58 31.445-31.499 16.567c-3.286 1.729-5.344 5.135-5.345 8.847-.001 3.713 2.055 7.121 5.339 8.851l31.502 16.596 16.582 31.448c1.73 3.282 5.136 5.336 8.846 5.336s7.115-2.054 8.846-5.336l16.581-31.448 31.502-16.596c3.285-1.73 5.34-5.138 5.339-8.851.001-3.713-2.057-7.119-5.343-8.847zm-43.558 18.042c-1.785.94-3.244 2.399-4.185 4.184l-9.18 17.411-9.18-17.411c-.941-1.785-2.4-3.243-4.185-4.184l-17.435-9.185 17.43-9.167c1.788-.94 3.249-2.4 4.19-4.187l9.18-17.411 9.18 17.411c.942 1.787 2.403 3.246 4.19 4.187l17.43 9.167z"/><path d="m266.115 266.014h.028c5.523 0 9.986-4.477 9.986-10s-4.491-10-10.014-10-10 4.477-10 10 4.477 10 10 10z"/></g></svg>