<svg width="20" height="18" viewBox="0 0 20 18" fill="none" xmlns="http://www.w3.org/2000/svg">
<path d="M6.1566 6.69047L6.61637 10.7408L8.37415 10.5509L7.85997 6.02055C7.82952 5.75796 7.80892 5.51089 7.8253 5.30092C7.84218 5.08454 7.89387 4.97321 7.9468 4.92028L7.94809 4.91899C7.99446 4.87216 8.09142 4.82214 8.28193 4.79398C8.46798 4.76649 8.69066 4.76693 8.93884 4.77457L11.4428 4.84851L11.444 4.84855C11.5257 4.85119 11.6463 4.85548 11.7555 4.87296C11.775 4.87608 11.7923 4.87936 11.8075 4.88266C11.81 4.95513 11.8052 5.03846 11.7999 5.12234L11.4497 10.5837L13.2128 10.6985L13.475 6.60747C14.615 7.21781 15.6019 8.14819 16.2582 9.24846C16.9233 10.3634 17.2733 11.6941 17.2597 13.0047C12.3923 12.8607 7.4866 12.9064 2.62292 13.1396C2.60349 11.7934 2.95254 10.4274 3.62269 9.2753C4.22912 8.231 5.11827 7.33215 6.1566 6.69047ZM8.55704 4.39808C8.20002 4.40772 7.87369 4.46297 7.68246 4.65608C7.38923 4.9493 7.42747 5.53576 7.48867 6.06358L7.96039 10.2198L6.9457 10.3294L6.94571 10.3294L7.96053 10.2198L7.48882 6.06358C7.42762 5.53577 7.38938 4.94931 7.6826 4.65608C7.87381 4.463 8.20007 4.40773 8.55704 4.39808ZM6.46393 6.08648C6.34449 6.14857 6.22654 6.21384 6.11026 6.28218C4.95684 6.95998 3.9669 7.93851 3.29958 9.08768C2.59252 10.3033 2.22672 11.741 2.24952 13.1579C2.25031 13.2068 2.25156 13.2558 2.25328 13.3047C2.25593 13.3803 2.2597 13.4558 2.26459 13.5312C2.26454 13.5312 2.26449 13.5312 2.26444 13.5312C2.16484 11.9957 2.53016 10.4102 3.29944 9.08767C4.03406 7.82261 5.15965 6.76433 6.46392 6.0864L6.46393 6.08648ZM13.1377 6.02824C13.1377 6.02822 13.1376 6.0282 13.1376 6.02818L12.8637 10.3014L12.8638 10.3014L13.1377 6.02824ZM19.9249 14.8721L20 13.1057L19.6267 13.0899C19.4275 13.0814 19.2283 13.0733 19.0289 13.0655C19.0397 12.4323 18.9813 11.7956 18.8527 11.1635C18.6533 10.1592 18.2915 9.20894 17.7745 8.34283C17.2575 7.47678 16.5945 6.70763 15.8054 6.05395C15.1237 5.48743 14.3717 5.03216 13.5669 4.69547C13.5441 4.42918 13.4709 4.1198 13.2692 3.83213C13.0068 3.45805 12.6382 3.27427 12.3091 3.18255C11.989 3.09335 11.6808 3.08445 11.5048 3.07936L8.99149 3.00515C8.31185 2.98508 7.3712 2.99079 6.69681 3.66518C6.3895 3.97249 6.2226 4.33699 6.13596 4.69272C5.41384 5.03127 4.73692 5.46598 4.11683 5.9871C3.30233 6.67424 2.62151 7.47957 2.09448 8.38712C1.56489 9.29469 1.20082 10.284 1.00706 11.3325C0.890071 11.9655 0.839742 12.6009 0.855061 13.2327C0.69432 13.2419 0.533635 13.2514 0.373009 13.261L0 13.2834L0.106061 15.0467L0.478945 15.0243C6.80508 14.6452 13.223 14.5892 19.5517 14.8564L19.9249 14.8721ZM0.456591 14.6514L0.456591 14.6514C1.98782 14.5596 3.5244 14.4867 5.06379 14.4327C3.5244 14.4867 1.98782 14.5596 0.456591 14.6514ZM19.5673 14.4831C19.5674 14.4831 19.5674 14.4831 19.5675 14.4831L19.6108 13.4631C19.4864 13.4579 19.362 13.4527 19.2375 13.4477L19.2304 13.4474C19.3572 13.4525 19.4839 13.4578 19.6107 13.4631L19.5673 14.4831ZM19.019 13.439L19.0146 13.4388C18.8901 13.434 18.7656 13.4292 18.6411 13.4246C18.6487 13.3003 18.6535 13.1759 18.6555 13.0513C18.6652 12.4476 18.6092 11.8404 18.4864 11.2371C18.2951 10.2733 17.9484 9.36303 17.4537 8.53434C16.959 7.70565 16.3241 6.96875 15.5668 6.3415C14.8515 5.74702 14.056 5.2808 13.2021 4.95151C13.2055 4.67397 13.1692 4.34035 12.9633 4.04667C12.6428 3.58966 12.1008 3.48987 11.7198 3.46304C12.1008 3.48989 12.6426 3.58971 12.9631 4.04667C13.1691 4.34035 13.2053 4.67396 13.202 4.95151C14.0559 5.28079 14.8514 5.74701 15.5667 6.34149C16.324 6.96875 16.9589 7.70565 17.4535 8.53434C17.9482 9.36303 18.295 10.2733 18.4862 11.2371C18.6345 11.9649 18.6853 12.6984 18.641 13.4246C18.767 13.4293 18.893 13.4341 19.019 13.439ZM8.89085 3.37627C8.92082 3.37694 8.95065 3.37774 8.98032 3.37862L8.98046 3.37862" fill="currentcolor"/>
</svg>
