<svg width="18" height="18" viewBox="0 0 18 18" fill="none" xmlns="http://www.w3.org/2000/svg">
<g clip-path="url(#clip0)">
<path d="M17.228 13.5143C15.617 11.9033 15.7227 12.0053 15.6773 11.9719L11.413 8.8234L13.0672 7.16926C14.3973 7.64321 15.9031 7.31555 16.9166 6.3021C18.0207 5.19798 18.3105 3.50996 17.6378 2.1017C17.481 1.77359 17.0461 1.69927 16.7893 1.95615L15.4255 3.3199C15.22 3.52542 14.8857 3.52546 14.68 3.3199C14.4739 3.11385 14.4739 2.78043 14.68 2.57438L16.0438 1.2106C16.3009 0.953499 16.2261 0.518756 15.8982 0.36217C14.49 -0.310579 12.802 -0.0207514 11.6978 1.08333C10.6841 2.09703 10.3569 3.60294 10.8307 4.93262L8.9228 6.84031C8.53436 6.53817 9.04694 7.05423 5.3884 3.17488L5.77192 2.79136C6.0145 2.54882 5.96395 2.14269 5.67039 1.96656L2.84685 0.272417C2.10671 -0.171677 1.16357 -0.0555912 0.553222 0.554756C-0.0570904 1.16507 -0.173212 2.10828 0.270882 2.84839L1.96503 5.67196C2.14144 5.96608 2.54774 6.01558 2.78983 5.77349L3.15152 5.4118C6.7911 9.27108 6.31206 8.74687 6.59978 9.11682C6.6066 9.12557 6.6142 9.1333 6.62144 9.14153L4.92968 10.8331C3.60007 10.3593 2.09405 10.6866 1.08043 11.7003C-0.0236919 12.8044 -0.31352 14.4924 0.359265 15.9007C0.516097 16.2289 0.950839 16.3031 1.20773 16.0463L2.57147 14.6825C2.7771 14.4769 3.11147 14.477 3.31703 14.6825C3.52308 14.8885 3.52308 15.2219 3.31703 15.428L1.95321 16.7918C1.69608 17.0489 1.77089 17.4836 2.09876 17.6402C2.60494 17.882 3.14712 17.9995 3.6855 17.9995C4.64492 17.9995 5.59189 17.6263 6.29916 16.9191C7.31286 15.9054 7.64013 14.3995 7.16632 13.0697L8.61111 11.6251L11.975 15.713C12.0006 15.744 11.9161 15.6576 13.4207 17.1621C13.9684 17.7098 14.6965 17.9938 15.4125 17.9938C15.9379 17.9938 16.4568 17.8408 16.8926 17.5269C18.2226 16.569 18.3794 14.6656 17.228 13.5143ZM3.54614 4.29352C3.34178 4.07685 2.99918 4.07305 2.78983 4.28244L2.52169 4.55055L1.17496 2.30592C0.980265 1.98143 1.03114 1.56789 1.29875 1.30028C1.56636 1.03264 1.9799 0.981799 2.30435 1.17649L4.54898 2.52326L4.28084 2.79133C4.07922 2.99295 4.07444 3.31835 4.27008 3.52578C8.47379 7.9832 7.81253 7.31246 8.17141 7.5916L7.37136 8.39158C7.09485 8.03601 7.73688 8.7372 3.54614 4.29352ZM6.17186 12.5731C6.01387 12.7311 5.97263 12.9715 6.06896 13.1731C6.54951 14.179 6.34237 15.3848 5.55364 16.1735C5.0483 16.6788 4.37189 16.9454 3.68642 16.9454C3.56312 16.9454 3.43959 16.9368 3.31664 16.9193L4.06252 16.1734C4.6806 15.5554 4.68071 14.555 4.06252 13.9368C3.44591 13.3202 2.44252 13.3202 1.82591 13.9368L1.08004 14.6827C0.965851 13.8764 1.22973 13.042 1.82591 12.4458C2.61468 11.657 3.8204 11.45 4.82629 11.9304C5.02788 12.0267 5.26824 11.9856 5.4263 11.8275L11.8251 5.42921C11.9831 5.27121 12.0243 5.03081 11.928 4.82919C11.4475 3.82334 11.6546 2.61755 12.4433 1.82882C13.0396 1.23257 13.874 0.968721 14.6803 1.08294L13.9344 1.82882C13.6357 2.12751 13.4711 2.5247 13.4711 2.94714C13.4711 3.36958 13.6357 3.7667 13.9344 4.06546C14.551 4.6821 15.5544 4.68207 16.171 4.06546L16.9169 3.31958C17.0311 4.12589 16.7672 4.96033 16.171 5.55651C15.3822 6.34527 14.1765 6.55238 13.1706 6.07186C12.9691 5.97557 12.7286 6.01677 12.5706 6.17476L6.17186 12.5731ZM9.35793 10.8783L10.659 9.57729L11.9851 10.5563L10.4008 12.1406C9.32358 10.8316 9.3908 10.9105 9.35793 10.8783ZM16.2764 16.6714C15.6615 17.1142 14.7543 17.0048 14.1661 16.4166L12.7728 15.0234L11.0738 12.9586L12.8428 11.1896L15.0193 12.7966L16.4824 14.2598C17.1512 14.9285 17.1083 16.0723 16.2764 16.6714Z" fill="currentcolor"/>
</g>
<defs>
<clipPath id="clip0">
<rect width="18" height="18" fill="white"/>
</clipPath>
</defs>
</svg>
