<svg width="18" height="18" viewBox="0 0 18 18" fill="none" xmlns="http://www.w3.org/2000/svg">
<path d="M11.032 6.66612H3.38457L5.99758 4.04097C6.22023 3.82957 6.35436 3.5409 6.3727 3.23367C6.39104 2.92645 6.2922 2.62375 6.09629 2.38713C5.99099 2.26933 5.86292 2.1743 5.71988 2.10782C5.57685 2.04134 5.42184 2.00481 5.2643 2.00044C5.10676 1.99608 4.94999 2.02397 4.80352 2.08243C4.65706 2.14088 4.52397 2.22867 4.41235 2.34046L0.751238 6.01275C0.513073 6.25193 0.324144 6.5359 0.195244 6.84845C0.0663443 7.161 0 7.496 0 7.83432C0 8.17263 0.0663443 8.50763 0.195244 8.82018C0.324144 9.13273 0.513073 9.4167 0.751238 9.65588L4.35429 13.2786C4.56573 13.5002 4.85308 13.6328 5.15817 13.6496C5.46326 13.6664 5.76331 13.5661 5.99758 13.369C6.11483 13.2632 6.20942 13.1346 6.27559 12.9909C6.34176 12.8472 6.37813 12.6914 6.38247 12.5332C6.38682 12.3749 6.35905 12.2174 6.30087 12.0702C6.24269 11.9231 6.1553 11.7894 6.04403 11.6772L3.38457 8.99959H11.032C12.264 8.99959 13.4456 9.49129 14.3167 10.3665C15.1879 11.2417 15.6773 12.4288 15.6773 13.6665V14.8333C15.6773 15.1427 15.7997 15.4395 16.0175 15.6583C16.2353 15.8771 16.5307 16 16.8387 16C17.1467 16 17.4421 15.8771 17.6599 15.6583C17.8776 15.4395 18 15.1427 18 14.8333V13.6665C18 11.8099 17.2659 10.0293 15.9591 8.7165C14.6524 7.40367 12.88 6.66612 11.032 6.66612Z" fill="currentcolor"/>
</svg>
