<svg height="512" viewBox="0 0 60 60" width="512" xmlns="http://www.w3.org/2000/svg"><g id="Page-1" fill="none" fill-rule="evenodd"><g id="021---Free-Parking-Spaces" fill="rgb(0,0,0)" fill-rule="nonzero"><path id="Shape" d="m59 29h-18v-28c0-.55228475-.4477153-1-1-1s-1 .44771525-1 1v28h-18v-28c0-.55228475-.4477153-1-1-1s-1 .44771525-1 1v28h-18c-.55228475 0-1 .4477153-1 1s.44771525 1 1 1h18v28c0 .5522847.4477153 1 1 1s1-.4477153 1-1v-28h18v28c0 .5522847.4477153 1 1 1s1-.4477153 1-1v-28h18c.5522847 0 1-.4477153 1-1s-.4477153-1-1-1z"/><path id="Shape" d="m13 27c2.209139 0 4-1.790861 4-4v-16c0-2.209139-1.790861-4-4-4h-6c-2.209139 0-4 1.790861-4 4v16c0 2.209139 1.790861 4 4 4zm-8-20c0-1.1045695.8954305-2 2-2h6c1.1045695 0 2 .8954305 2 2v1.815c-1.6096625-.54816747-3.2995805-.82362409-5-.815-1.70041955-.00862409-3.39033748.26683253-5 .815zm0 3.976c1.58531185-.6541552 3.28505573-.98594525 5-.976 1.7149443-.00994525 3.4146881.3218448 5 .976v2.024h-10zm0 4.024h10v5h-10zm0 8v-1h10v1c0 1.1045695-.8954305 2-2 2h-6c-1.1045695 0-2-.8954305-2-2z"/><path id="Shape" d="m33 57c2.209139 0 4-1.790861 4-4v-16c0-2.209139-1.790861-4-4-4h-6c-2.209139 0-4 1.790861-4 4v16c0 2.209139 1.790861 4 4 4zm-8-20c0-1.1045695.8954305-2 2-2h6c1.1045695 0 2 .8954305 2 2v1h-10zm0 3h10v5h-10zm0 7h10v2.024c-3.2064185 1.3008452-6.7935815 1.3008452-10 0zm0 6v-1.815c3.2447709 1.0866611 6.7552291 1.0866611 10 0v1.815c0 1.1045695-.8954305 2-2 2h-6c-1.1045695 0-2-.8954305-2-2z"/><path id="Shape" d="m53 27c2.209139 0 4-1.790861 4-4v-16c0-2.209139-1.790861-4-4-4h-6c-2.209139 0-4 1.790861-4 4v16c0 2.209139 1.790861 4 4 4zm-8-20c0-1.1045695.8954305-2 2-2h6c1.1045695 0 2 .8954305 2 2v1h-10zm0 3h10v5h-10zm0 7h10v2.024c-3.2064185 1.3008452-6.7935815 1.3008452-10 0zm0 6v-1.815c3.2447709 1.0866611 6.7552291 1.0866611 10 0v1.815c0 1.1045695-.8954305 2-2 2h-6c-1.1045695 0-2-.8954305-2-2z"/><path id="Shape" d="m47 57h6c2.209139 0 4-1.790861 4-4v-16c0-2.209139-1.790861-4-4-4h-6c-2.209139 0-4 1.790861-4 4v16c0 2.209139 1.790861 4 4 4zm-2-20c0-1.1045695.8954305-2 2-2h6c1.1045695 0 2 .8954305 2 2v1.815c-3.2447709-1.0866611-6.7552291-1.0866611-10 0zm0 3.976c3.2064185-1.3008452 6.7935815-1.3008452 10 0v2.024h-10zm0 4.024h10v5h-10zm0 7h10v1c0 1.1045695-.8954305 2-2 2h-6c-1.1045695 0-2-.8954305-2-2z"/><path id="Shape" d="m7 54v-6h2c3.3137085 0 6-2.6862915 6-6s-2.6862915-6-6-6h-3c-.55228475 0-1 .4477153-1 1v17c0 .5522847.44771525 1 1 1s1-.4477153 1-1zm0-16h2c2.209139 0 4 1.790861 4 4s-1.790861 4-4 4h-2z"/><path id="Shape" d="m27 23v-6h2c3.3137085 0 5.9999999-2.6862915 5.9999999-6 0-3.31370846-2.6862914-5.99999995-5.9999999-6h-3c-.5522847 0-1 .44771525-1 1v17c0 .5522847.4477153 1 1 1s1-.4477153 1-1zm0-16h2c2.209139 0 4 1.790861 4 4s-1.790861 4-4 4h-2z"/></g></g></svg>