<svg width="18" height="18" viewBox="0 0 18 18" fill="none" xmlns="http://www.w3.org/2000/svg">
<g clip-path="url(#clip0)">
<path fill-rule="evenodd" clip-rule="evenodd" d="M11.901 4.94009C11.914 4.80798 11.921 4.67492 11.921 4.54185C11.9195 4.40779 11.9133 4.27373 11.9005 4.14064C11.8588 3.87947 11.7918 3.62451 11.7004 3.37767C11.593 3.13305 11.4611 2.90154 11.3077 2.68525C11.1534 2.49197 10.9809 2.31408 10.7935 2.1551C10.5855 1.99724 10.3631 1.86345 10.1281 1.75372C9.88602 1.65804 9.63587 1.58822 9.37956 1.54527C9.12687 1.51853 8.87329 1.51853 8.6206 1.54527C8.36451 1.58819 8.11457 1.65791 7.87268 1.75347C7.63578 1.86431 7.41158 2.00053 7.20213 2.15896C7.01496 2.31824 6.84268 2.49642 6.68873 2.68994C6.53586 2.90469 6.4063 3.1344 6.30004 3.37701C6.20737 3.62701 6.13976 3.88533 6.09817 4.15C6.07227 4.41093 6.07227 4.67277 6.09817 4.9337C6.13973 5.19815 6.20725 5.45625 6.29979 5.70604C6.40713 5.95066 6.53904 6.18217 6.69246 6.39845C6.84672 6.59173 7.01927 6.76963 7.20668 6.92861C7.41464 7.08646 7.63709 7.22025 7.87204 7.32998C8.11413 7.42567 8.36429 7.49548 8.6206 7.53843C8.87329 7.56518 9.12687 7.56518 9.37957 7.53843C9.63565 7.49552 9.88559 7.42579 10.1275 7.33023C10.3644 7.2194 10.5886 7.08318 10.798 6.92475C10.9852 6.76547 11.1575 6.58729 11.3114 6.39376C11.4643 6.17902 11.5939 5.94931 11.7001 5.70669C11.792 5.45871 11.8593 5.20254 11.901 4.94009ZM11.6623 5.80479C11.6654 5.79702 11.6684 5.78926 11.6715 5.7815C11.6685 5.78927 11.6654 5.79703 11.6623 5.80479ZM10.2231 7.29093C10.2156 7.29413 10.2081 7.29732 10.2006 7.30047C10.2081 7.29726 10.2156 7.29408 10.2231 7.29093ZM9.29014 7.55229C9.30025 7.5508 9.3104 7.54931 9.32059 7.54782C9.31045 7.54935 9.3003 7.55084 9.29014 7.55229ZM9.41785 7.53417C9.44068 7.53113 9.46344 7.52824 9.48597 7.52558C9.46327 7.52866 9.44057 7.53153 9.41785 7.53417ZM7.77704 7.29093C7.78456 7.29408 7.79208 7.29726 7.79959 7.30047C7.79207 7.29731 7.78455 7.29413 7.77704 7.29093ZM6.33785 5.80479C6.33475 5.79704 6.33167 5.78928 6.32861 5.78151C6.33172 5.78927 6.3348 5.79703 6.33785 5.80479ZM6.08475 4.84137C6.08619 4.85181 6.08764 4.8623 6.08907 4.87281C6.08759 4.86234 6.08615 4.85186 6.08475 4.84137ZM6.10229 4.97324C6.10524 4.99681 6.10804 5.02032 6.11061 5.04359C6.10763 5.02015 6.10486 4.9967 6.10229 4.97324ZM6.33785 3.27892C6.3348 3.28668 6.33172 3.29445 6.32861 3.30221C6.33167 3.29444 6.33475 3.28667 6.33785 3.27892ZM7.77704 1.79278C7.78455 1.78957 7.79207 1.78639 7.79959 1.78324C7.79208 1.78644 7.78456 1.78963 7.77704 1.79278ZM8.71002 1.53142C8.69991 1.53291 8.68975 1.5344 8.67956 1.53588C8.68971 1.53435 8.69986 1.53286 8.71002 1.53142ZM8.58232 1.54953C8.55949 1.55257 8.53673 1.55547 8.51419 1.55812C8.53689 1.55504 8.5596 1.55218 8.58232 1.54953ZM10.2231 1.79278C10.2156 1.78963 10.2081 1.78645 10.2006 1.78324C10.2081 1.7864 10.2156 1.78957 10.2231 1.79278ZM11.6623 3.27892C11.6654 3.28666 11.6685 3.29441 11.6715 3.30216C11.6684 3.29442 11.6654 3.28667 11.6623 3.27892ZM11.9154 4.24234C11.914 4.23188 11.9125 4.22138 11.9111 4.21084C11.9126 4.22133 11.914 4.23183 11.9154 4.24234ZM11.8951 4.08761C11.8931 4.0717 11.8913 4.05586 11.8895 4.04011C11.8915 4.05593 11.8933 4.07176 11.8951 4.08761ZM13.3943 4.63074C13.3975 4.60171 13.3991 4.57206 13.3989 4.54185C13.3952 3.62804 13.1292 2.69324 12.6082 1.94921C12.4678 1.7489 12.3182 1.5524 12.1519 1.37498C11.9838 1.19565 11.799 1.04112 11.6069 0.890411C11.2577 0.615694 10.8679 0.413472 10.4541 0.257036C8.78577 -0.374431 6.77386 0.188357 5.64505 1.60773C5.48986 1.80232 5.34206 2.00454 5.21643 2.22202C5.0908 2.4376 4.99289 2.66653 4.90236 2.89928C4.73239 3.33043 4.64556 3.78829 4.61046 4.25187C4.5421 5.15997 4.77119 6.10812 5.22936 6.88648C5.67091 7.63814 6.33785 8.28296 7.11749 8.64734C7.34658 8.75418 7.58121 8.85338 7.82508 8.92397C8.0671 8.99264 8.31282 9.0308 8.56223 9.06132C9.01671 9.11665 9.48043 9.07849 9.92937 8.98501C11.6346 8.62636 13.0627 7.10969 13.3269 5.32976C13.3616 5.09766 13.3889 4.86556 13.3943 4.63074ZM13.2861 16.471H14.3725H14.3725C14.3761 16.4709 14.3796 16.4707 14.3832 16.4706C14.3963 16.4672 14.4093 16.4637 14.4223 16.4598C14.4357 16.4522 14.4489 16.4443 14.4619 16.4361C14.4709 16.427 14.4797 16.4178 14.4884 16.4083C14.496 16.3957 14.5032 16.3829 14.5102 16.37C14.5134 16.3585 14.5165 16.347 14.5194 16.3354C14.5211 16.2849 14.5208 16.2341 14.5205 16.1832C14.5204 16.1634 14.5203 16.1436 14.5203 16.1238V15.1795C14.5203 14.9211 14.5188 14.6657 14.4936 14.4093C14.4447 14.0949 14.3636 13.7882 14.2524 13.4922C14.1243 13.1971 13.9664 12.9178 13.7799 12.6577C13.5933 12.4216 13.3842 12.207 13.1563 12.0148C12.9033 11.8218 12.6316 11.6586 12.3445 11.5264C12.0594 11.412 11.7632 11.3303 11.4618 11.2805C11.2016 11.2532 10.9425 11.2533 10.6821 11.2533C10.6689 11.2533 10.6556 11.2533 10.6424 11.2533H8.27576H7.26149C7.01789 11.2533 6.77718 11.2548 6.53552 11.2803C6.22986 11.3308 5.93175 11.4147 5.64411 11.5299C5.35838 11.6622 5.08784 11.8253 4.83597 12.0178C4.60737 12.2105 4.39952 12.4265 4.21338 12.6618C4.02654 12.923 3.8685 13.2037 3.74043 13.5001C3.62831 13.798 3.54868 14.1077 3.50056 14.4229C3.4835 14.5893 3.476 14.7559 3.476 14.9239V15.7404C3.476 15.8074 3.47431 15.8754 3.47262 15.9437C3.46954 16.0678 3.46643 16.1932 3.47335 16.3161C3.47744 16.3341 3.48193 16.3521 3.48686 16.3699C3.49423 16.3837 3.50187 16.3973 3.50984 16.4108C3.51863 16.42 3.52759 16.4292 3.53672 16.4382C3.54895 16.446 3.56132 16.4534 3.57385 16.4606C3.58564 16.4642 3.59751 16.4676 3.60946 16.4707C3.61792 16.4709 3.6264 16.471 3.63488 16.471C3.91447 16.4736 4.19405 16.4727 4.47364 16.4719C4.61343 16.4715 4.75322 16.471 4.89302 16.471H7.58296H10.6997H13.2861ZM3.48053 16.4073C3.48123 16.4141 3.48197 16.4209 3.48275 16.4277C3.48234 16.4275 3.48194 16.4273 3.48154 16.4272M3.48053 16.4073C3.48134 16.4141 3.48214 16.421 3.48292 16.4277ZM3.78822 13.3786C3.77985 13.3999 3.77125 13.4211 3.76259 13.4424C3.77096 13.4211 3.77951 13.3998 3.78822 13.3786ZM5.53409 11.5757C5.54858 11.5695 5.5631 11.5633 5.57765 11.5572C5.56313 11.5634 5.54861 11.5697 5.53409 11.5757ZM6.63704 11.2648C6.62145 11.2671 6.60576 11.2694 6.59 11.2717C6.60566 11.2693 6.62134 11.267 6.63704 11.2648ZM6.49481 11.2848C6.47685 11.2872 6.45896 11.2894 6.44121 11.2915C6.45908 11.2891 6.47695 11.2869 6.49481 11.2848ZM12.4622 11.5757C12.4416 11.5671 12.4209 11.5582 12.4003 11.5493C12.421 11.5579 12.4416 11.5667 12.4622 11.5757ZM14.208 13.3786C14.2141 13.3935 14.2201 13.4086 14.226 13.4236C14.22 13.4086 14.2139 13.3936 14.208 13.3786ZM14.5092 14.5175C14.507 14.5014 14.5047 14.4852 14.5025 14.469C14.5048 14.4851 14.507 14.5013 14.5092 14.5175ZM14.4886 14.3612C14.4868 14.3458 14.485 14.3305 14.4833 14.3153C14.4852 14.3306 14.4869 14.3459 14.4886 14.3612ZM14.4593 17.9935C15.1416 17.9462 15.7315 17.4724 15.9336 16.7896C16.004 16.5505 16.0015 16.2964 15.9991 16.0481C15.9987 16.0031 15.9983 15.9584 15.9983 15.914C15.9983 15.8248 15.9986 15.7358 15.999 15.6468C16.0013 15.0733 16.0037 14.5035 15.9077 13.9337C15.7451 12.9703 15.2759 12.0641 14.633 11.3525C13.99 10.6409 13.1254 10.1182 12.2109 9.88548C11.6862 9.75193 11.1578 9.73095 10.6221 9.73095H8.97226H7.34463C6.79593 9.73095 6.25092 9.75766 5.717 9.90455C4.80988 10.1526 3.95634 10.681 3.32635 11.3983C2.69081 12.1214 2.23079 13.0295 2.08114 13.9986C1.99583 14.5549 1.99834 15.1126 2.00085 15.6729C2.00128 15.7678 2.0017 15.8628 2.0017 15.9579C2.0017 15.9939 2.00147 16.0301 2.00123 16.0665C1.99947 16.3342 1.99767 16.6085 2.09038 16.8621C2.2271 17.2322 2.4451 17.5241 2.76471 17.7435C3.01412 17.9133 3.33004 17.9953 3.62564 17.9992C3.72171 18.0004 3.81778 18 3.91385 17.9996C3.96188 17.9994 4.00992 17.9992 4.05795 17.9992H5.1646H6.73681H8.56582H10.4429H12.1592H13.5041H14.2745H14.3743C14.4028 17.9992 14.4312 17.9972 14.4593 17.9935ZM14.4722 16.4647C14.4742 16.4644 14.4763 16.4642 14.4783 16.464C14.4781 16.4644 14.4779 16.4649 14.4778 16.4653M14.4722 16.4647C14.4742 16.4644 14.4763 16.4641 14.4783 16.4639ZM3.48292 16.4277C3.48371 16.4346 3.48448 16.4414 3.48523 16.4482ZM3.48523 16.4482C3.48436 16.4413 3.48354 16.4345 3.48275 16.4277ZM14.4783 16.4639C14.4849 16.4631 14.4915 16.4623 14.4981 16.4615ZM14.4981 16.4615C14.4915 16.4624 14.4849 16.4632 14.4783 16.464Z" fill="currentcolor"/>
</g>
<defs>
<clipPath id="clip0">
<rect width="18" height="18" fill="white"/>
</clipPath>
</defs>
</svg>
