<svg height="512" viewBox="0 0 60 54" width="512" xmlns="http://www.w3.org/2000/svg"><g id="Page-1" fill="none" fill-rule="evenodd"><g id="015---Utility-Room" fill="rgb(0,0,0)" fill-rule="nonzero"><path id="Shape" d="m3 54h30c1.6568542 0 3-1.3431458 3-3v-36c0-1.6568542-1.3431458-3-3-3h-2.184c.3067585-.8138689.226915-1.7230542-.217-2.471 1.0082227-.63052261 1.545649-1.79963706 1.3677528-2.97540265s-1.0371292-2.1335621-2.1867528-2.43759735c.3754332-.9235218.265894-1.97340929-.2920881-2.79954398-.5579822-.82613468-1.4910011-1.3198332-2.4879119-1.31645602h-20c-1.65685425 0-3 1.34314575-3 3s1.34314575 3 3 3h1.184c-.2453699.64408927-.2453699 1.35591073 0 2h-.184c-1.65685425 0-3 1.34314575-3 3 .00331443.3414397.06556225.679743.184 1h-2.184c-1.65685425 0-3 1.3431458-3 3v36c0 1.6568542 1.34314575 3 3 3zm30-2h-30c-.55228475 0-1-.4477153-1-1v-29h32v29c0 .5522847-.4477153 1-1 1zm1-37v5h-17v-6h16c.5522847 0 1 .4477153 1 1zm-28-12c0-.55228475.44771525-1 1-1h20c.5522847 0 1 .44771525 1 1s-.4477153 1-1 1h-20c-.55228475 0-1-.44771525-1-1zm4 4c0-.55228475.4477153-1 1-1h18c.5522847 0 1 .44771525 1 1s-.4477153 1-1 1h-18c-.5522847 0-1-.44771525-1-1zm-3 4c0-.5522847.44771525-1 1-1h20c.5522847 0 1 .4477153 1 1s-.4477153 1-1 1h-20c-.55228475 0-1-.4477153-1-1zm-4 3h12v6h-13v-5c0-.5522847.44771525-1 1-1z"/><circle id="Oval" cx="31" cy="17" r="1"/><path id="Shape" d="m5 18h7c.5522847 0 1-.4477153 1-1s-.4477153-1-1-1h-7c-.55228475 0-1 .4477153-1 1s.44771525 1 1 1z"/><path id="Shape" d="m18 24c-7.1797017 0-13 5.8202983-13 13s5.8202983 13 13 13 13-5.8202983 13-13c-.008266-7.1762751-5.8237249-12.991734-13-13zm0 2c3.3088077.0004461 6.4410474 1.4927236 8.526 4.062-2.1066857 1.4734466-3.3990363 3.8507793-3.49 6.42-.766.5-3.2 1.543-7.481-1.314-1.8004967-1.3858617-4.0990245-1.9545097-6.338-1.568-.66805857.1530417-1.3060686.4159505-1.888.778 1.2098084-4.9125856 5.6116479-8.3685514 10.671-8.378zm0 22c-5.952768-.0090572-10.81950179-4.7495261-10.985-10.7.66028205-.8736458 1.60144404-1.4930822 2.665-1.754 1.6974309-.2420974 3.4198597.2227595 4.765 1.286 1.8330562 1.3628418 4.0312747 2.1473478 6.313 2.253.8240048.0063548 1.6416448-.1446829 2.409-.445.3531866 2.1496204 1.5658357 4.0629995 3.359 5.3-2.0853448 2.5685282-5.217526 4.060043-8.526 4.06zm9.641-5.712c-1.6625626-1.2495402-2.6406723-3.2082248-2.6406723-5.288s.9781097-4.0384598 2.6406723-5.288c1.8119168 3.2925155 1.8119168 7.2834845 0 10.576z"/><path id="Shape" d="m57 20h-16c-1.195432-.0041178-2.2784243.7042037-2.7537641 1.8010749-.4753399 1.0968713-.251658 2.3714528.5687641 3.2409251-.5015831.5684221-.7663901 1.3073769-.74 2.065l.788 22.071c.086599 2.695803 2.3028294 4.8331356 5 4.822h10.278c2.6971706.0111356 4.913401-2.126197 5-4.822l.788-22.071c.0269032-.757703-.2379699-1.4968421-.74-2.065.8209322-.8699996 1.0443496-2.1455466.5679853-3.2427732-.4763643-1.0972265-1.5608263-1.8049536-2.7569853-1.7992268zm-16 2h16c.5522847 0 1 .4477153 1 1s-.4477153 1-1 1h-16c-.5522847 0-1-.4477153-1-1s.4477153-1 1-1zm16.139 27.107c-.0524805 1.6172188-1.381942 2.8992629-3 2.893h-10.279c-1.6184811.0073177-2.9485583-1.2753201-3-2.893l-.788-22.071c-.0097767-.2713974.0912481-.5350993.2798546-.7304956s.448572-.3056804.7201454-.3055044h15.856c.2715734-.000176.5315389.1101081.7201454.3055044s.2896313.4590982.2798546.7304956z"/><path id="Shape" d="m55 47v-3c0-.5522847-.4477153-1-1-1s-1 .4477153-1 1v3h-2v-1c0-.5522847-.4477153-1-1-1s-1 .4477153-1 1v1h-1c-.5522847 0-1 .4477153-1 1s.4477153 1 1 1h1c0 .5522847.4477153 1 1 1s1-.4477153 1-1h2c0 .5522847.4477153 1 1 1s1-.4477153 1-1c.5522847 0 1-.4477153 1-1s-.4477153-1-1-1z"/></g></g></svg>