<svg width="18" height="18" viewBox="0 0 18 18" fill="none" xmlns="http://www.w3.org/2000/svg">
<path d="M17.9545 8.83563C16.9885 5.34489 12.5445 3 8.99991 3C5.45534 3 1.01126 5.34489 0.0453089 8.83563L0 9L0.0453089 9.16437C1.01126 12.6551 5.45534 15 8.99991 15C12.5445 15 16.9885 12.6551 17.9545 9.16437L18 9L17.9545 8.83563ZM8.99991 13.7201C6.07006 13.7201 2.2782 11.7901 1.3823 9C2.2782 6.20971 6.07006 4.27986 8.99991 4.27986C11.9298 4.27986 15.7216 6.20971 16.6175 9C15.7216 11.7903 11.9298 13.7201 8.99991 13.7201ZM9.0475 5.89176C7.21059 5.89176 5.71596 7.32722 5.71596 9.09142C5.71596 10.8556 7.21059 12.2911 9.0475 12.2911C10.8844 12.2911 12.379 10.8556 12.379 9.09142C12.379 7.32722 10.8846 5.89176 9.0475 5.89176ZM9.0475 11.0112C7.94524 11.0112 7.04858 10.15 7.04858 9.09142C7.04858 8.03279 7.94524 7.17162 9.0475 7.17162C10.1498 7.17162 11.0464 8.03279 11.0464 9.09142C11.0464 10.15 10.1498 11.0112 9.0475 11.0112Z" fill="currentcolor"/>
</svg>
